<svg xmlns="http://www.w3.org/2000/svg" width="1005" height="600"><rect width="1005" height="600" x="0" y="0" fill="#FFFFFF" id="backgorund"/><g id="viz"><clipPath id="serieClipPath"><rect x="-50" y="-20" width="805" height="600"/></clipPath><g transform="translate(0,0)"><g transform="translate(50,20)" clip-path="url(#serieClipPath)"><g id="axis"><g transform="translate(0,550)" fill="none" font-size="10" font-family="sans-serif" text-anchor="middle"><path class="domain" stroke="currentColor" d="M0.5,6V0.5H740.5V6"/><g class="tick" opacity="1" transform="translate(0.5,0)"><line stroke="currentColor" y2="6"/><text fill="currentColor" y="9" dy="0.71em">0</text></g><g class="tick" opacity="1" transform="translate(74.5,0)"><line stroke="currentColor" y2="6"/><text fill="currentColor" y="9" dy="0.71em">20</text></g><g class="tick" opacity="1" transform="translate(148.5,0)"><line stroke="currentColor" y2="6"/><text fill="currentColor" y="9" dy="0.71em">40</text></g><g class="tick" opacity="1" transform="translate(222.5,0)"><line stroke="currentColor" y2="6"/><text fill="currentColor" y="9" dy="0.71em">60</text></g><g class="tick" opacity="1" transform="translate(296.5,0)"><line stroke="currentColor" y2="6"/><text fill="currentColor" y="9" dy="0.71em">80</text></g><g class="tick" opacity="1" transform="translate(370.5,0)"><line stroke="currentColor" y2="6"/><text fill="currentColor" y="9" dy="0.71em">100</text></g><g class="tick" opacity="1" transform="translate(444.5,0)"><line stroke="currentColor" y2="6"/><text fill="currentColor" y="9" dy="0.71em">120</text></g><g class="tick" opacity="1" transform="translate(518.5,0)"><line stroke="currentColor" y2="6"/><text fill="currentColor" y="9" dy="0.71em">140</text></g><g class="tick" opacity="1" transform="translate(592.5,0)"><line stroke="currentColor" y2="6"/><text fill="currentColor" y="9" dy="0.71em">160</text></g><g class="tick" opacity="1" transform="translate(666.5,0)"><line stroke="currentColor" y2="6"/><text fill="currentColor" y="9" dy="0.71em">180</text></g><g class="tick" opacity="1" transform="translate(740.5,0)"><line stroke="currentColor" y2="6"/><text fill="currentColor" y="9" dy="0.71em">200</text></g><text x="740" dy="-5" text-anchor="end" style="font-family: Arial, sans-serif; font-size: 12px; fill: rgb(123, 123, 123); font-weight: bold;">Concurrency Level</text></g><g transform="translate(0,0)" fill="none" font-size="10" font-family="sans-serif" text-anchor="end"><path class="domain" stroke="currentColor" d="M0.5,550.5V0.5"/><g class="tick" opacity="1" transform="translate(0,550.5)"><line stroke="currentColor" x2="-6"/><text fill="currentColor" x="-9" dy="0.32em">400</text></g><g class="tick" opacity="1" transform="translate(0,489.38888888888886)"><line stroke="currentColor" x2="-6"/><text fill="currentColor" x="-9" dy="0.32em">500</text></g><g class="tick" opacity="1" transform="translate(0,428.27777777777777)"><line stroke="currentColor" x2="-6"/><text fill="currentColor" x="-9" dy="0.32em">600</text></g><g class="tick" opacity="1" transform="translate(0,367.1666666666667)"><line stroke="currentColor" x2="-6"/><text fill="currentColor" x="-9" dy="0.32em">700</text></g><g class="tick" opacity="1" transform="translate(0,306.05555555555554)"><line stroke="currentColor" x2="-6"/><text fill="currentColor" x="-9" dy="0.32em">800</text></g><g class="tick" opacity="1" transform="translate(0,244.94444444444443)"><line stroke="currentColor" x2="-6"/><text fill="currentColor" x="-9" dy="0.32em">900</text></g><g class="tick" opacity="1" transform="translate(0,183.83333333333334)"><line stroke="currentColor" x2="-6"/><text fill="currentColor" x="-9" dy="0.32em">1,000</text></g><g class="tick" opacity="1" transform="translate(0,122.72222222222221)"><line stroke="currentColor" x2="-6"/><text fill="currentColor" x="-9" dy="0.32em">1,100</text></g><g class="tick" opacity="1" transform="translate(0,61.611111111111136)"><line stroke="currentColor" x2="-6"/><text fill="currentColor" x="-9" dy="0.32em">1,200</text></g><g class="tick" opacity="1" transform="translate(0,0.5)"><line stroke="currentColor" x2="-6"/><text fill="currentColor" x="-9" dy="0.32em">1,300</text></g><text x="4" text-anchor="start" dominant-baseline="hanging" style="font-family: Arial, sans-serif; font-size: 12px; fill: rgb(123, 123, 123); font-weight: bold;">Throughput (rps)</text></g></g><g id="viz"><g><path d="M3.7,537.7122521985225C5.550000000000001,537.7122521985225,5.550000000000001,384.94431111460807,7.4,384.94431111460807C9.25,384.94431111460807,9.25,286.14053116722874,11.1,286.14053116722874C12.95,286.14053116722874,12.95,218.82556395108057,14.8,218.82556395108057C16.65,218.82556395108057,16.65,171.4060562770701,18.5,171.4060562770701C20.35,171.4060562770701,20.35,137.30029410906926,22.2,137.30029410906926C24.05,137.30029410906926,24.05,112.49760789285767,25.900000000000002,112.49760789285767C27.75,112.49760789285767,27.75,94.41719602506298,29.6,94.41719602506298C31.45,94.41719602506298,31.45,81.32503145588721,33.3,81.32503145588721C35.15,81.32503145588721,35.15,72.01444992429633,37,72.01444992429633C38.85,72.01444992429633,38.85,65.62106822124166,40.7,65.62106822124166C42.55,65.62106822124166,42.55,61.51045007911159,44.4,61.51045007911159C46.25,61.51045007911159,46.25,59.2072182538414,48.1,59.2072182538414C49.95,59.2072182538414,49.95,58.3488115887133,51.800000000000004,58.3488115887133C53.650000000000006,58.3488115887133,53.650000000000006,58.65444297612768,55.5,58.65444297612768C57.35,58.65444297612768,57.35,59.90373506827712,59.2,59.90373506827712C61.050000000000004,59.90373506827712,61.050000000000004,61.92169056561327,62.900000000000006,61.92169056561327C64.75,61.92169056561327,64.75,64.56791144895614,66.6,64.56791144895614C68.44999999999999,64.56791144895614,68.44999999999999,67.72873083150886,70.3,67.72873083150886C72.15,67.72873083150886,72.15,71.31138059888471,74,71.31138059888471C75.85,71.31138059888471,75.85,75.23960709521084,77.7,75.23960709521084C79.55000000000001,75.23960709521084,79.55000000000001,79.45033323552137,81.4,79.45033323552137C83.25,79.45033323552137,83.25,83.89108777607842,85.10000000000001,83.89108777607842C86.95,83.89108777607842,86.95,88.51800444071338,88.8,88.51800444071338C90.65,88.51800444071338,90.65,93.294249468899,92.5,93.294249468899C94.35,93.294249468899,94.35,98.18877483708768,96.2,98.18877483708768C98.05000000000001,98.18877483708768,98.05000000000001,103.17532158551514,99.9,103.17532158551514C101.75,103.17532158551514,101.75,108.23161703778386,103.60000000000001,108.23161703778386C105.45,108.23161703778386,105.45,113.3387236554226,107.3,113.3387236554226C109.15,113.3387236554226,109.15,118.48050744764997,111,118.48050744764997C112.85,118.48050744764997,112.85,123.64320136004616,114.7,123.64320136004616C116.55000000000001,123.64320136004616,116.55000000000001,128.81504465323184,118.4,128.81504465323184C120.25,128.81504465323184,120.25,133.98598348238664,122.10000000000001,133.98598348238664C123.95000000000002,133.98598348238664,123.95000000000002,139.1474210729846,125.80000000000001,139.1474210729846C127.65,139.1474210729846,127.65,144.29200832282388,129.5,144.29200832282388C131.35,144.29200832282388,131.35,149.4134675363562,133.2,149.4134675363562C135.05,149.4134675363562,135.05,154.5064434532861,136.9,154.5064434532861C138.75,154.5064434532861,138.75,159.56637687125487,140.6,159.56637687125487C142.45,159.56637687125487,142.45,164.5893970574599,144.3,164.5893970574599C146.15,164.5893970574599,146.15,169.57222985246398,148,169.57222985246398C149.85,169.57222985246398,149.85,174.51211893340928,151.7,174.51211893340928C153.55,174.51211893340928,153.55,179.4067581553268,155.4,179.4067581553268C157.25,179.4067581553268,157.25,184.2542332525625,159.1,184.2542332525625C160.95,184.2542332525625,160.95,189.05297147621025,162.8,189.05297147621025C164.65,189.05297147621025,164.65,193.80169798224665,166.5,193.80169798224665C168.35000000000002,193.80169798224665,168.35000000000002,198.499397980039,170.20000000000002,198.499397980039C172.05,198.499397980039,172.05,203.14528381074567,173.89999999999998,203.14528381074567C175.75,203.14528381074567,175.75,207.7387662567412,177.6,207.7387662567412C179.45,207.7387662567412,179.45,212.27942949198865,181.29999999999998,212.27942949198865C183.14999999999998,212.27942949198865,183.14999999999998,216.76700917355083,185,216.76700917355083C186.85000000000002,216.76700917355083,186.85000000000002,221.20137324958995,188.70000000000002,221.20137324958995C190.55,221.20137324958995,190.55,225.5825051220263,192.4,225.5825051220263C194.25,225.5825051220263,194.25,229.91048885467794,196.10000000000002,229.91048885467794C197.95000000000002,229.91048885467794,197.95000000000002,234.18549616200374,199.8,234.18549616200374C201.65000000000003,234.18549616200374,201.65000000000003,238.40777495093383,203.50000000000003,238.40777495093383C205.35000000000002,238.40777495093383,205.35000000000002,242.5776392198926,207.20000000000002,242.5776392198926C209.05,242.5776392198926,209.05,246.69546014594752,210.89999999999998,246.69546014594752C212.75,246.69546014594752,212.75,250.76165821384174,214.6,250.76165821384174C216.45,250.76165821384174,216.45,254.77669626014605,218.29999999999998,254.77669626014605C220.14999999999998,254.77669626014605,220.14999999999998,258.74107332241124,222,258.74107332241124C223.85,258.74107332241124,223.85,262.65531919748435,225.7,262.65531919748435C227.55,262.65531919748435,227.55,266.5199896254149,229.4,266.5199896254149C231.25,266.5199896254149,231.25,270.33566202594204,233.1,270.33566202594204C234.95,270.33566202594204,234.95,274.10293172366863,236.8,274.10293172366863C238.65,274.10293172366863,238.65,277.822408605919,240.5,277.822408605919C242.35000000000002,277.822408605919,242.35000000000002,281.4947141640991,244.20000000000002,281.4947141640991C246.05,281.4947141640991,246.05,285.12047887532157,247.9,285.12047887532157C249.75,285.12047887532157,249.75,288.70033988620946,251.60000000000002,288.70033988620946C253.45,288.70033988620946,253.45,292.2349389652968,255.29999999999998,292.2349389652968C257.15,292.2349389652968,257.15,295.7249206943616,259,295.7249206943616C260.85,295.7249206943616,260.85,299.1709308724685,262.7,299.1709308724685C264.54999999999995,299.1709308724685,264.54999999999995,302.5736151094982,266.4,302.5736151094982C268.25,302.5736151094982,268.25,305.9336175885782,270.09999999999997,305.9336175885782C271.95,305.9336175885782,271.95,309.2515799791519,273.8,309.2515799791519C275.65,309.2515799791519,275.65,312.52814048445464,277.5,312.52814048445464C279.35,312.52814048445464,279.35,315.7639330089643,281.2,315.7639330089643C283.05,315.7639330089643,283.05,318.9595864329803,284.90000000000003,318.9595864329803C286.75,318.9595864329803,286.75,322.11572398288024,288.6,322.11572398288024C290.45000000000005,322.11572398288024,290.45000000000005,325.23296268684385,292.3,325.23296268684385C294.15,325.23296268684385,294.15,328.3119129069321,296,328.3119129069321C297.85,328.3119129069321,297.85,331.3531779393767,299.70000000000005,331.3531779393767C301.55,331.3531779393767,301.55,334.3573536758023,303.4,334.3573536758023C305.25,334.3573536758023,305.25,337.32502831887035,307.09999999999997,337.32502831887035C308.95,337.32502831887035,308.95,340.2567821465091,310.8,340.2567821465091C312.65,340.2567821465091,312.65,343.1531873195145,314.5,343.1531873195145C316.35,343.1531873195145,316.35,346.01480772783333,318.2,346.01480772783333C320.04999999999995,346.01480772783333,320.04999999999995,348.8421988713346,321.9,348.8421988713346C323.75,348.8421988713346,323.75,351.63590777129997,325.6,351.63590777129997C327.45000000000005,351.63590777129997,327.45000000000005,354.39647290925257,329.3,354.39647290925257C331.15,354.39647290925257,331.15,357.12442419008613,333,357.12442419008613C334.85,357.12442419008613,334.85,359.8202829267686,336.7,359.8202829267686C338.55,359.8202829267686,338.55,362.48456184416654,340.40000000000003,362.48456184416654C342.25,362.48456184416654,342.25,365.11776509978887,344.1,365.11776509978887C345.95,365.11776509978887,345.95,367.72038831946725,347.79999999999995,367.72038831946725C349.65,367.72038831946725,349.65,370.29291864619466,351.5,370.29291864619466C353.35,370.29291864619466,353.35,372.83583480051846,355.2,372.83583480051846C357.04999999999995,372.83583480051846,357.04999999999995,375.34960715104785,358.9,375.34960715104785C360.75,375.34960715104785,360.75,377.834697793784,362.59999999999997,377.834697793784C364.45,377.834697793784,364.45,380.2915606391038,366.3,380.2915606391038C368.15,380.2915606391038,368.15,382.72064150535437,370,382.72064150535437C371.85,382.72064150535437,371.85,385.12237821811647,373.7,385.12237821811647C375.55,385.12237821811647,375.55,387.49720071429147,377.40000000000003,387.49720071429147C379.25,387.49720071429147,379.25,389.845531150253,381.1,389.845531150253C382.95000000000005,389.845531150253,382.95000000000005,392.1677840133824,384.8,392.1677840133824C386.65,392.1677840133824,386.65,394.46436623637715,388.5,394.46436623637715C390.35,394.46436623637715,390.35,396.73567731378284,392.20000000000005,396.73567731378284C394.05000000000007,396.73567731378284,394.05000000000007,398.98210942026043,395.90000000000003,398.98210942026043C397.75,398.98210942026043,397.75,401.20404753014697,399.6,401.20404753014697C401.45000000000005,401.20404753014697,401.45000000000005,403.4018695379198,403.3,403.4018695379198C405.15000000000003,403.4018695379198,405.15000000000003,405.57594637921227,407.00000000000006,405.57594637921227C408.85,405.57594637921227,408.85,407.72664215206925,410.70000000000005,407.72664215206925C412.55000000000007,407.72664215206925,412.55000000000007,409.85431423816345,414.40000000000003,409.85431423816345C416.25,409.85431423816345,416.25,411.9593134237288,418.09999999999997,411.9593134237288C419.94999999999993,411.9593134237288,419.94999999999993,414.04198401998747,421.79999999999995,414.04198401998747C423.65,414.04198401998747,423.65,416.10266398288144,425.49999999999994,416.10266398288144C427.34999999999997,416.10266398288144,427.34999999999997,418.14168503193554,429.2,418.14168503193554C431.04999999999995,418.14168503193554,431.04999999999995,420.15937276810297,432.9,420.15937276810297C434.75,420.15937276810297,434.75,422.15604679046305,436.59999999999997,422.15604679046305C438.44999999999993,422.15604679046305,438.44999999999993,424.1320208116553,440.29999999999995,424.1320208116553C442.15,424.1320208116553,442.15,426.0876027719535,444,426.0876027719535C445.85,426.0876027719535,445.85,428.023094951892,447.7,428.023094951892C449.54999999999995,428.023094951892,449.54999999999995,429.93879408337375,451.4,429.93879408337375C453.25,429.93879408337375,453.25,431.8349914591965,455.09999999999997,431.8349914591965C456.95,431.8349914591965,456.95,433.711973040949,458.8,433.711973040949C460.65,433.711973040949,460.65,435.57001956523084,462.5,435.57001956523084C464.35,435.57001956523084,464.35,437.4094066481653,466.2,437.4094066481653C468.05,437.4094066481653,468.05,439.2304048881758,469.90000000000003,439.2304048881758C471.75,439.2304048881758,471.75,441.0332799670089,473.6,441.0332799670089C475.45000000000005,441.0332799670089,475.45000000000005,442.81829274898473,477.3,442.81829274898473C479.15,442.81829274898473,479.15,444.58569937847204,481,444.58569937847204C482.85,444.58569937847204,482.85,446.33575137557773,484.70000000000005,446.33575137557773C486.55000000000007,446.33575137557773,486.55000000000007,448.0686957300558,488.40000000000003,448.0686957300558C490.25,448.0686957300558,490.25,449.78477499343455,492.1,449.78477499343455C493.95000000000005,449.78477499343455,493.95000000000005,451.48422736937465,495.8,451.48422736937465C497.65000000000003,451.48422736937465,497.65000000000003,453.1672868022625,499.50000000000006,453.1672868022625C501.35,453.1672868022625,501.35,454.83418306405684,503.20000000000005,454.83418306405684C505.05000000000007,454.83418306405684,505.05000000000007,456.4851418393988,506.90000000000003,456.4851418393988C508.75,456.4851418393988,508.75,458.12038480900645,510.59999999999997,458.12038480900645C512.4499999999999,458.12038480900645,512.4499999999999,459.7401297313693,514.3,459.7401297313693C516.15,459.7401297313693,516.15,461.34459052276617,518,461.34459052276617C519.8499999999999,461.34459052276617,519.8499999999999,462.9339773356256,521.6999999999999,462.9339773356256C523.55,462.9339773356256,523.55,464.5084966352525,525.4,464.5084966352525C527.25,464.5084966352525,527.25,466.0683512749453,529.1,466.0683512749453C530.95,466.0683512749453,530.95,467.6137405695274,532.8,467.6137405695274C534.65,467.6137405695274,534.65,469.1448603673186,536.5,469.1448603673186C538.3499999999999,469.1448603673186,538.3499999999999,470.66190312057233,540.1999999999999,470.66190312057233C542.05,470.66190312057233,542.05,472.16505795440395,543.9,472.16505795440395C545.75,472.16505795440395,545.75,473.65451073423867,547.6,473.65451073423867C549.45,473.65451073423867,549.45,475.1304441318041,551.3,475.1304441318041C553.15,475.1304441318041,553.15,476.5930376896939,555,476.5930376896939C556.85,476.5930376896939,556.85,478.0424678845326,558.7,478.0424678845326C560.55,478.0424678845326,560.55,479.47890818876476,562.4,479.47890818876476C564.25,479.47890818876476,564.25,480.9025291310982,566.1,480.9025291310982C567.95,480.9025291310982,567.95,482.31349835562753,569.8000000000001,482.31349835562753C571.6500000000001,482.31349835562753,571.6500000000001,483.7119806796632,573.5,483.7119806796632C575.35,483.7119806796632,575.35,485.098138150295,577.2,485.098138150295C579.05,485.098138150295,579.05,486.47213009971483,580.9,486.47213009971483C582.75,486.47213009971483,582.75,487.834113199325,584.6,487.834113199325C586.45,487.834113199325,586.45,489.18424151265845,588.3000000000001,489.18424151265845C590.1500000000001,489.18424151265845,590.1500000000001,490.5226665471354,592,490.5226665471354C593.85,490.5226665471354,593.85,491.8495373046826,595.7,491.8495373046826C597.5500000000001,491.8495373046826,597.5500000000001,493.1650003312389,599.4000000000001,493.1650003312389C601.25,493.1650003312389,601.25,494.46919976517245,603.0999999999999,494.46919976517245C604.9499999999999,494.46919976517245,604.9499999999999,495.76227738463393,606.8,495.76227738463393C608.65,495.76227738463393,608.65,497.0443726538676,610.5,497.0443726538676C612.3499999999999,497.0443726538676,612.3499999999999,498.31562276850497,614.1999999999999,498.31562276850497C616.05,498.31562276850497,616.05,499.5761626998649,617.9,499.5761626998649C619.75,499.5761626998649,619.75,500.8261252382792,621.6,500.8261252382792C623.45,500.8261252382792,623.45,502.06564103546964,625.3,502.06564103546964C627.15,502.06564103546964,627.15,503.29483864599507,629,503.29483864599507C630.8499999999999,503.29483864599507,630.8499999999999,504.5138445677921,632.6999999999999,504.5138445677921C634.55,504.5138445677921,634.55,505.72278328182756,636.4,505.72278328182756C638.25,505.72278328182756,638.25,506.9217772908858,640.1,506.9217772908858C641.95,506.9217772908858,641.95,508.1109471575092,643.8,508.1109471575092C645.65,508.1109471575092,645.65,509.29041154111115,647.5,509.29041154111115C649.35,509.29041154111115,649.35,510.4602872342819,651.2,510.4602872342819C653.05,510.4602872342819,653.05,511.6206891983051,654.9,511.6206891983051C656.75,511.6206891983051,656.75,512.7717305979032,658.6,512.7717305979032C660.45,512.7717305979032,660.45,513.9135228352304,662.3000000000001,513.9135228352304C664.1500000000001,513.9135228352304,664.1500000000001,515.04617558313,666,515.04617558313C667.85,515.04617558313,667.85,516.1697968176726,669.7,516.1697968176726C671.55,516.1697968176726,671.55,517.2844928499945,673.4,517.2844928499945C675.25,517.2844928499945,675.25,518.3903683574495,677.1,518.3903683574495C678.95,518.3903683574495,678.95,519.487526414091,680.8000000000001,519.487526414091C682.6500000000001,519.487526414091,682.6500000000001,520.5760685205025,684.5,520.5760685205025C686.35,520.5760685205025,686.35,521.6560946329873,688.2,521.6560946329873C690.0500000000001,521.6560946329873,690.0500000000001,522.7277031921361,691.9000000000001,522.7277031921361C693.75,522.7277031921361,693.75,523.7909911507854,695.5999999999999,523.7909911507854C697.4499999999999,523.7909911507854,697.4499999999999,524.8460540013806,699.3,524.8460540013806C701.15,524.8460540013806,701.15,525.8929858027587,703,525.8929858027587C704.8499999999999,525.8929858027587,704.8499999999999,526.9318792063633,706.6999999999999,526.9318792063633C708.55,526.9318792063633,708.55,527.9628254819055,710.4,527.9628254819055C712.25,527.9628254819055,712.25,528.9859145424838,714.1,528.9859145424838C715.95,528.9859145424838,715.95,530.0012349691742,717.8,530.0012349691742C719.65,530.0012349691742,719.65,531.0088740351056,721.5,531.0088740351056C723.3499999999999,531.0088740351056,723.3499999999999,532.0089177290291,725.1999999999999,532.0089177290291C727.05,532.0089177290291,727.05,533.0014507783956,728.9,533.0014507783956C730.75,533.0014507783956,730.75,533.9865566719516,732.6,533.9865566719516C734.45,533.9865566719516,734.45,534.9643176818647,736.3,534.9643176818647C738.15,534.9643176818647,738.15,535.9348148853907,740,535.9348148853907" stroke="#1f77b4" fill="none"/><text font-family="sans-serif" font-size="10" class="labels" x="51.800000000000004" y="58.3488115887133" dx="0" dy="-4" text-anchor="middle"/></g></g></g><text y="4" x="4" style="font-family: Arial, sans-serif; font-size: 12px; fill: black; font-weight: bold; dominant-baseline: hanging;"/></g><g id="grid"><rect x="0" y="0" width="805" height="600" fill="none" stroke="#ccc"/></g></g><g id="legend" transform="translate(805,20)"><g transform="translate(5,0)"/></g></svg>