<svg xmlns="http://www.w3.org/2000/svg" width="805" height="600"><rect width="805" height="600" x="0" y="0" fill="#FFFFFF" id="backgorund"/><g id="viz"><clipPath id="serieClipPath"><rect x="-50" y="-10" width="805" height="600"/></clipPath><g transform="translate(0,0)"><g transform="translate(50,10)" clip-path="url(#serieClipPath)"><g id="axis"><g transform="translate(0,570)" fill="none" font-size="10" font-family="sans-serif" text-anchor="middle"><path class="domain" stroke="currentColor" d="M0,6V0H740V6"/><g class="tick" opacity="1" transform="translate(0,0)"><line stroke="currentColor" y2="6"/><text fill="currentColor" y="9" dy="0.71em">0</text></g><g class="tick" opacity="1" transform="translate(74,0)"><line stroke="currentColor" y2="6"/><text fill="currentColor" y="9" dy="0.71em">20</text></g><g class="tick" opacity="1" transform="translate(148,0)"><line stroke="currentColor" y2="6"/><text fill="currentColor" y="9" dy="0.71em">40</text></g><g class="tick" opacity="1" transform="translate(222,0)"><line stroke="currentColor" y2="6"/><text fill="currentColor" y="9" dy="0.71em">60</text></g><g class="tick" opacity="1" transform="translate(296,0)"><line stroke="currentColor" y2="6"/><text fill="currentColor" y="9" dy="0.71em">80</text></g><g class="tick" opacity="1" transform="translate(370,0)"><line stroke="currentColor" y2="6"/><text fill="currentColor" y="9" dy="0.71em">100</text></g><g class="tick" opacity="1" transform="translate(444,0)"><line stroke="currentColor" y2="6"/><text fill="currentColor" y="9" dy="0.71em">120</text></g><g class="tick" opacity="1" transform="translate(518,0)"><line stroke="currentColor" y2="6"/><text fill="currentColor" y="9" dy="0.71em">140</text></g><g class="tick" opacity="1" transform="translate(592,0)"><line stroke="currentColor" y2="6"/><text fill="currentColor" y="9" dy="0.71em">160</text></g><g class="tick" opacity="1" transform="translate(666,0)"><line stroke="currentColor" y2="6"/><text fill="currentColor" y="9" dy="0.71em">180</text></g><g class="tick" opacity="1" transform="translate(740,0)"><line stroke="currentColor" y2="6"/><text fill="currentColor" y="9" dy="0.71em">200</text></g><text x="740" dy="-5" text-anchor="end" style="font-family: Arial, sans-serif; font-size: 12px; fill: rgb(123, 123, 123); font-weight: bold;">Concurrency Level</text></g><g transform="translate(0,0)" fill="none" font-size="10" font-family="sans-serif" text-anchor="end"><path class="domain" stroke="currentColor" d="M0,570V0"/><g class="tick" opacity="1" transform="translate(0,570)"><line stroke="currentColor" x2="-6"/><text fill="currentColor" x="-9" dy="0.32em">400</text></g><g class="tick" opacity="1" transform="translate(0,498.75)"><line stroke="currentColor" x2="-6"/><text fill="currentColor" x="-9" dy="0.32em">500</text></g><g class="tick" opacity="1" transform="translate(0,427.5)"><line stroke="currentColor" x2="-6"/><text fill="currentColor" x="-9" dy="0.32em">600</text></g><g class="tick" opacity="1" transform="translate(0,356.25)"><line stroke="currentColor" x2="-6"/><text fill="currentColor" x="-9" dy="0.32em">700</text></g><g class="tick" opacity="1" transform="translate(0,285)"><line stroke="currentColor" x2="-6"/><text fill="currentColor" x="-9" dy="0.32em">800</text></g><g class="tick" opacity="1" transform="translate(0,213.75)"><line stroke="currentColor" x2="-6"/><text fill="currentColor" x="-9" dy="0.32em">900</text></g><g class="tick" opacity="1" transform="translate(0,142.5)"><line stroke="currentColor" x2="-6"/><text fill="currentColor" x="-9" dy="0.32em">1,000</text></g><g class="tick" opacity="1" transform="translate(0,71.25)"><line stroke="currentColor" x2="-6"/><text fill="currentColor" x="-9" dy="0.32em">1,100</text></g><g class="tick" opacity="1" transform="translate(0,0)"><line stroke="currentColor" x2="-6"/><text fill="currentColor" x="-9" dy="0.32em">1,200</text></g><text x="4" text-anchor="start" dominant-baseline="hanging" style="font-family: Arial, sans-serif; font-size: 12px; fill: rgb(123, 123, 123); font-weight: bold;">Throughput (rps)</text></g></g><g id="viz"><g><path d="M3.7,541.6486411320834C5.550000000000001,541.6486411320834,5.550000000000001,382.6272912469946,7.4,382.6272912469946C9.25,382.6272912469946,9.25,287.23645219579146,11.1,287.23645219579146C12.95,287.23645219579146,12.95,224.1986485731148,14.8,224.1986485731148C16.65,224.1986485731148,16.65,179.8441095356455,18.5,179.8441095356455C20.35,179.8441095356455,20.35,147.2491400737173,22.2,147.2491400737173C24.05,147.2491400737173,24.05,122.53170831023617,25.900000000000002,122.53170831023617C27.75,122.53170831023617,27.75,103.34648416650828,29.6,103.34648416650828C31.45,103.34648416650828,31.45,88.19297042754665,33.3,88.19297042754665C35.15,88.19297042754665,35.15,76.066554488211,37,76.066554488211C38.85,76.066554488211,38.85,66.26931711824298,40.7,66.26931711824298C42.55,66.26931711824298,42.55,58.301316973225425,44.4,58.301316973225425C46.25,58.301316973225425,46.25,51.7950577084047,48.1,51.7950577084047C49.95,51.7950577084047,49.95,46.474369019852006,51.800000000000004,46.474369019852006C53.650000000000006,46.474369019852006,53.650000000000006,42.127710799566024,55.5,42.127710799566024C57.35,42.127710799566024,57.35,38.59032408761615,59.2,38.59032408761615C61.050000000000004,38.59032408761615,61.050000000000004,35.731987466589956,62.900000000000006,35.731987466589956C64.75,35.731987466589956,64.75,33.44842728444315,66.6,33.44842728444315C68.44999999999999,33.44842728444315,68.44999999999999,31.65516984870127,70.3,31.65516984870127C72.15,31.65516984870127,72.15,30.28306230781699,74,30.28306230781699C75.85,30.28306230781699,75.85,29.274956676219816,77.7,29.274956676219816C79.55000000000001,29.274956676219816,79.55000000000001,28.583219236816262,81.4,28.583219236816262C83.25,28.583219236816262,83.25,28.16783518585562,85.10000000000001,28.16783518585562C86.95,28.16783518585562,86.95,27.994948909810905,88.8,27.994948909810905C90.65,27.994948909810905,90.65,28.035727391872033,92.5,28.035727391872033C94.35,28.035727391872033,94.35,28.265466268587858,96.2,28.265466268587858C98.05000000000001,28.265466268587858,98.05000000000001,28.6628801779779,99.9,28.6628801779779C101.75,28.6628801779779,101.75,29.209534548238622,103.60000000000001,29.209534548238622C105.45,29.209534548238622,105.45,29.889386996973617,107.3,29.889386996973617C109.15,29.889386996973617,109.15,30.688414442249584,111,30.688414442249584C112.85,30.688414442249584,112.85,31.594307801963947,114.7,31.594307801963947C116.55000000000001,31.594307801963947,116.55000000000001,32.59622040917023,118.4,32.59622040917023C120.25,32.59622040917023,120.25,33.684559432318395,122.10000000000001,33.684559432318395C123.95000000000002,33.684559432318395,123.95000000000002,34.850811962645835,125.80000000000001,34.850811962645835C127.65,34.850811962645835,127.65,36.08739922858955,129.5,36.08739922858955C131.35,36.08739922858955,131.35,37.38755377016212,133.2,37.38755377016212C135.05,37.38755377016212,135.05,38.74521546327586,136.9,38.74521546327586C138.75,38.74521546327586,138.75,40.154943103851686,140.6,40.154943103851686C142.45,40.154943103851686,142.45,41.611838901882436,144.3,41.611838901882436C146.15,41.611838901882436,146.15,43.11148373909502,148,43.11148373909502C149.85,43.11148373909502,149.85,44.64988144219188,151.7,44.64988144219188C153.55,44.64988144219188,153.55,46.22341064072914,155.4,46.22341064072914C157.25,46.22341064072914,157.25,47.82878303247454,159.1,47.82878303247454C160.95,47.82878303247454,160.95,49.46300708335195,162.8,49.46300708335195C164.65,49.46300708335195,164.65,51.12335635430699,166.5,51.12335635430699C168.35000000000002,51.12335635430699,168.35000000000002,52.80734178174211,170.20000000000002,52.80734178174211C172.05,52.80734178174211,172.05,54.512687347879556,173.89999999999998,54.512687347879556C175.75,54.512687347879556,175.75,56.23730866739213,177.6,56.23730866739213C179.45,56.23730866739213,179.45,57.9792940908009,181.29999999999998,57.9792940908009C183.14999999999998,57.9792940908009,183.14999999999998,59.73688798647201,185,59.73688798647201C186.85000000000002,59.73688798647201,186.85000000000002,61.508475913987,188.70000000000002,61.508475913987C190.55,61.508475913987,190.55,63.29257144413992,192.4,63.29257144413992C194.25,63.29257144413992,194.25,65.08780441633368,196.10000000000002,65.08780441633368C197.95000000000002,65.08780441633368,197.95000000000002,66.89291045400003,199.8,66.89291045400003C201.65000000000003,66.89291045400003,201.65000000000003,68.70672158377828,203.50000000000003,68.70672158377828C205.35000000000002,68.70672158377828,205.35000000000002,70.52815782544623,207.20000000000002,70.52815782544623C209.05,70.52815782544623,209.05,72.35621963758763,210.89999999999998,72.35621963758763C212.75,72.35621963758763,212.75,74.18998111929503,214.6,74.18998111929503C216.45,74.18998111929503,216.45,76.0285838812649,218.29999999999998,76.0285838812649C220.14999999999998,76.0285838812649,220.14999999999998,77.87123151079139,222,77.87123151079139C223.85,77.87123151079139,223.85,79.71718456475178,225.7,79.71718456475178C227.55,79.71718456475178,227.55,81.5657560328908,229.4,81.5657560328908C231.25,81.5657560328908,231.25,83.41630722080467,233.1,83.41630722080467C234.95,83.41630722080467,234.95,85.26824400815266,236.8,85.26824400815266C238.65,85.26824400815266,238.65,87.12101344292032,240.5,87.12101344292032C242.35000000000002,87.12101344292032,242.35000000000002,88.97410063716976,244.20000000000002,88.97410063716976C246.05,88.97410063716976,246.05,90.82702593370259,247.9,90.82702593370259C249.75,90.82702593370259,249.75,92.67934231656493,251.60000000000002,92.67934231656493C253.45,92.67934231656493,253.45,94.53063304135596,255.29999999999998,94.53063304135596C257.15,94.53063304135596,257.15,96.38050946398022,259,96.38050946398022C260.85,96.38050946398022,260.85,98.2286090488165,262.7,98.2286090488165C264.54999999999995,98.2286090488165,264.54999999999995,100.07459353933086,266.4,100.07459353933086C268.25,100.07459353933086,268.25,101.91814727597115,270.09999999999997,101.91814727597115C271.95,101.91814727597115,271.95,103.75897564777566,273.8,103.75897564777566C275.65,103.75897564777566,275.65,105.59680366553238,277.5,105.59680366553238C279.35,105.59680366553238,279.35,107.43137464557842,281.2,107.43137464557842C283.05,107.43137464557842,283.05,109.26244899442406,284.90000000000003,109.26244899442406C286.75,109.26244899442406,286.75,111.08980308537812,288.6,111.08980308537812C290.45000000000005,111.08980308537812,290.45000000000005,112.9132282192109,292.3,112.9132282192109C294.15,112.9132282192109,294.15,114.73252966167145,296,114.73252966167145C297.85,114.73252966167145,297.85,116.54752575137367,299.70000000000005,116.54752575137367C301.55,116.54752575137367,301.55,118.35804707217224,303.4,118.35804707217224C305.25,118.35804707217224,305.25,120.16393568471088,307.09999999999997,120.16393568471088C308.95,120.16393568471088,308.95,121.96504441231585,310.8,121.96504441231585C312.65,121.96504441231585,312.65,123.76123617685288,314.5,123.76123617685288C316.35,123.76123617685288,316.35,125.55238338056195,318.2,125.55238338056195C320.04999999999995,125.55238338056195,320.04999999999995,127.33836733024512,321.9,127.33836733024512C323.75,127.33836733024512,323.75,129.1190777005047,325.6,129.1190777005047C327.45000000000005,129.1190777005047,327.45000000000005,130.89441203301334,329.3,130.89441203301334C331.15,130.89441203301334,331.15,132.66427526907128,333,132.66427526907128C334.85,132.66427526907128,334.85,134.42857931292951,336.7,134.42857931292951C338.55,134.42857931292951,338.55,136.18724262358438,340.40000000000003,136.18724262358438C342.25,136.18724262358438,342.25,137.9401898329298,344.1,137.9401898329298C345.95,137.9401898329298,345.95,139.68735138834268,347.79999999999995,139.68735138834268C349.65,139.68735138834268,349.65,141.42866321792368,351.5,141.42866321792368C353.35,141.42866321792368,353.35,143.164066416771,355.2,143.164066416771C357.04999999999995,143.164066416771,357.04999999999995,144.893506952787,358.9,144.893506952787C360.75,144.893506952787,360.75,146.6169353906459,362.59999999999997,146.6169353906459C364.45,146.6169353906459,364.45,148.33430663265233,366.3,148.33430663265233C368.15,148.33430663265233,368.15,150.04557967532438,370,150.04557967532438C371.85,150.04557967532438,371.85,151.75071738062766,373.7,151.75071738062766C375.55,151.75071738062766,375.55,153.44968626085995,377.40000000000003,153.44968626085995C379.25,153.44968626085995,379.25,155.1424562762757,381.1,155.1424562762757C382.95000000000005,155.1424562762757,382.95000000000005,156.82900064459645,384.8,156.82900064459645C386.65,156.82900064459645,386.65,158.50929566162662,388.5,158.50929566162662C390.35,158.50929566162662,390.35,160.18332053224347,392.20000000000005,160.18332053224347C394.05000000000007,160.18332053224347,394.05000000000007,161.8510572110918,395.90000000000003,161.8510572110918C397.75,161.8510572110918,397.75,163.51249025235794,399.6,163.51249025235794C401.45000000000005,163.51249025235794,401.45000000000005,165.16760666804115,403.3,165.16760666804115C405.15000000000003,165.16760666804115,405.15000000000003,166.8163957941909,407.00000000000006,166.8163957941909C408.85,166.8163957941909,408.85,168.45884916460483,410.70000000000005,168.45884916460483C412.55000000000007,168.45884916460483,412.55000000000007,170.0949603915251,414.40000000000003,170.0949603915251C416.25,170.0949603915251,416.25,171.72472505290213,418.09999999999997,171.72472505290213C419.94999999999993,171.72472505290213,419.94999999999993,173.34814058582242,421.79999999999995,173.34814058582242C423.65,173.34814058582242,423.65,174.96520618572765,425.49999999999994,174.96520618572765C427.34999999999997,174.96520618572765,427.34999999999997,176.57592271107336,429.2,176.57592271107336C431.04999999999995,176.57592271107336,431.04999999999995,178.18029259310413,432.9,178.18029259310413C434.75,178.18029259310413,434.75,179.77831975044168,436.59999999999997,179.77831975044168C438.44999999999993,179.77831975044168,438.44999999999993,181.3700095082002,440.29999999999995,181.3700095082002C442.15,181.3700095082002,442.15,182.95536852136703,444,182.95536852136703C445.85,182.95536852136703,445.85,184.534404702199,447.7,184.534404702199C449.54999999999995,184.534404702199,449.54999999999995,186.10712715140485,451.4,186.10712715140485C453.25,186.10712715140485,453.25,187.67354609289464,455.09999999999997,187.67354609289464C456.95,187.67354609289464,456.95,189.23367281189576,458.8,189.23367281189576C460.65,189.23367281189576,460.65,190.78751959624634,462.5,190.78751959624634C464.35,190.78751959624634,464.35,192.3350996806846,466.2,192.3350996806846C468.05,192.3350996806846,468.05,193.87642719397041,469.90000000000003,193.87642719397041C471.75,193.87642719397041,471.75,195.41151710868215,473.6,195.41151710868215C475.45000000000005,195.41151710868215,475.45000000000005,196.94038519354157,477.3,196.94038519354157C479.15,196.94038519354157,479.15,198.463047968128,481,198.463047968128C482.85,198.463047968128,482.85,199.9795226598538,484.70000000000005,199.9795226598538C486.55000000000007,199.9795226598538,486.55000000000007,201.48982716307935,488.40000000000003,201.48982716307935C490.25,201.48982716307935,490.25,202.99398000025175,492.1,202.99398000025175C493.95000000000005,202.99398000025175,493.95000000000005,204.49200028496045,495.8,204.49200028496045C497.65000000000003,204.49200028496045,497.65000000000003,205.9839076868093,499.50000000000006,205.9839076868093C501.35,205.9839076868093,501.35,207.46972239800868,503.20000000000005,207.46972239800868C505.05000000000007,207.46972239800868,505.05000000000007,208.94946510159747,506.90000000000003,208.94946510159747C508.75,208.94946510159747,508.75,210.42315694121163,510.59999999999997,210.42315694121163C512.4499999999999,210.42315694121163,512.4499999999999,211.89081949231863,514.3,211.89081949231863C516.15,211.89081949231863,516.15,213.35247473484316,518,213.35247473484316C519.8499999999999,213.35247473484316,519.8499999999999,214.80814502711175,521.6999999999999,214.80814502711175C523.55,214.80814502711175,523.55,216.2578530810523,525.4,216.2578530810523C527.25,216.2578530810523,527.25,217.70162193858187,529.1,217.70162193858187C530.95,217.70162193858187,530.95,219.13947494912458,532.8,219.13947494912458C534.65,219.13947494912458,534.65,220.57143574820458,536.5,220.57143574820458C538.3499999999999,220.57143574820458,538.3499999999999,221.99752823705828,540.1999999999999,221.99752823705828C542.05,221.99752823705828,542.05,223.41777656321597,543.9,223.41777656321597C545.75,223.41777656321597,545.75,224.83220510200897,547.6,224.83220510200897C549.45,224.83220510200897,549.45,226.2408384389495,551.3,226.2408384389495C553.15,226.2408384389495,553.15,227.6437013529485,555,227.6437013529485C556.85,227.6437013529485,556.85,229.04081880032697,558.7,229.04081880032697C560.55,229.04081880032697,560.55,230.43221589958182,562.4,230.43221589958182C564.25,230.43221589958182,564.25,231.81791791687283,566.1,231.81791791687283C567.95,231.81791791687283,567.95,233.1979502521948,569.8000000000001,233.1979502521948C571.6500000000001,233.1979502521948,571.6500000000001,234.57233842620155,573.5,234.57233842620155C575.35,234.57233842620155,575.35,235.94110806765264,577.2,235.94110806765264C579.05,235.94110806765264,579.05,237.3042849014514,580.9,237.3042849014514C582.75,237.3042849014514,582.75,238.66189473724947,584.6,238.66189473724947C586.45,238.66189473724947,586.45,240.0139634585888,588.3000000000001,240.0139634585888C590.1500000000001,240.0139634585888,590.1500000000001,241.36051701255616,592,241.36051701255616C593.85,241.36051701255616,593.85,242.7015813999285,595.7,242.7015813999285C597.5500000000001,242.7015813999285,597.5500000000001,244.03718266578474,599.4000000000001,244.03718266578474C601.25,244.03718266578474,601.25,245.3673468905624,603.0999999999999,245.3673468905624C604.9499999999999,245.3673468905624,604.9499999999999,246.69210018154075,606.8,246.69210018154075C608.65,246.69210018154075,608.65,248.01146866472808,610.5,248.01146866472808C612.3499999999999,248.01146866472808,612.3499999999999,249.32547847713656,614.1999999999999,249.32547847713656C616.05,249.32547847713656,616.05,250.63415575942807,617.9,250.63415575942807C619.75,250.63415575942807,619.75,251.93752664891062,621.6,251.93752664891062C623.45,251.93752664891062,623.45,253.23561727287466,625.3,253.23561727287466C627.15,253.23561727287466,627.15,254.5284537422484,629,254.5284537422484C630.8499999999999,254.5284537422484,630.8499999999999,255.8160621455628,632.6999999999999,255.8160621455628C634.55,255.8160621455628,634.55,257.09846854321034,636.4,257.09846854321034C638.25,257.09846854321034,638.25,258.3756989619821,640.1,258.3756989619821C641.95,258.3756989619821,641.95,259.64777938987754,643.8,259.64777938987754C645.65,259.64777938987754,645.65,260.9147357711661,647.5,260.9147357711661C649.35,260.9147357711661,649.35,262.17659400169686,651.2,262.17659400169686C653.05,262.17659400169686,653.05,263.4333799244423,654.9,263.4333799244423C656.75,263.4333799244423,656.75,264.6851193252647,658.6,264.6851193252647C660.45,264.6851193252647,660.45,265.9318379288982,662.3000000000001,265.9318379288982C664.1500000000001,265.9318379288982,664.1500000000001,267.1735613951356,666,267.1735613951356C667.85,267.1735613951356,667.85,268.4103153152102,669.7,268.4103153152102C671.55,268.4103153152102,671.55,269.6421252083666,673.4,269.6421252083666C675.25,269.6421252083666,675.25,270.8690165186093,677.1,270.8690165186093C678.95,270.8690165186093,678.95,272.09101461162425,680.8000000000001,272.09101461162425C682.6500000000001,272.09101461162425,682.6500000000001,273.3081447718636,684.5,273.3081447718636C686.35,273.3081447718636,686.35,274.52043219978793,688.2,274.52043219978793C690.0500000000001,274.52043219978793,690.0500000000001,275.7279020092587,691.9000000000001,275.7279020092587C693.75,275.7279020092587,693.75,276.9305792250743,695.5999999999999,276.9305792250743C697.4499999999999,276.9305792250743,697.4499999999999,278.1284887806445,699.3,278.1284887806445C701.15,278.1284887806445,701.15,279.32165551579544,703,279.32165551579544C704.8499999999999,279.32165551579544,704.8499999999999,280.51010417470224,706.6999999999999,280.51010417470224C708.55,280.51010417470224,708.55,281.6938594039406,710.4,281.6938594039406C712.25,281.6938594039406,712.25,282.8729457506551,714.1,282.8729457506551C715.95,282.8729457506551,715.95,284.0473876608382,717.8,284.0473876608382C719.65,284.0473876608382,719.65,285.21720947771394,721.5,285.21720947771394C723.3499999999999,285.21720947771394,723.3499999999999,286.38243544022424,725.1999999999999,286.38243544022424C727.05,286.38243544022424,727.05,287.54308968161143,728.9,287.54308968161143C730.75,287.54308968161143,730.75,288.69919622809374,732.6,288.69919622809374C734.45,288.69919622809374,734.45,289.8507789976304,736.3,289.8507789976304C738.15,289.8507789976304,738.15,290.99786179877094,740,290.99786179877094" stroke="#1f77b4" fill="none"/><text font-family="sans-serif" font-size="10" class="labels" x="88.8" y="27.994948909810905" dx="0" dy="-4" text-anchor="middle"/></g></g></g><text y="4" x="4" style="font-family: Arial, sans-serif; font-size: 12px; fill: black; font-weight: bold; dominant-baseline: hanging;"/></g><g id="grid"><rect x="0" y="0" width="805" height="600" fill="none" stroke="#ccc"/></g></g></svg>