<svg xmlns="http://www.w3.org/2000/svg" width="805" height="600"><rect width="805" height="600" x="0" y="0" fill="#FFFFFF" id="backgorund"/><g id="viz"><clipPath id="serieClipPath"><rect x="-50" y="-10" width="805" height="600"/></clipPath><g transform="translate(0,0)"><g transform="translate(50,10)" clip-path="url(#serieClipPath)"><g id="axis"><g transform="translate(0,570)" fill="none" font-size="10" font-family="sans-serif" text-anchor="middle"><path class="domain" stroke="currentColor" d="M0.5,6V0.5H740.5V6"/><g class="tick" opacity="1" transform="translate(0.5,0)"><line stroke="currentColor" y2="6"/><text fill="currentColor" y="9" dy="0.71em">0</text></g><g class="tick" opacity="1" transform="translate(74.5,0)"><line stroke="currentColor" y2="6"/><text fill="currentColor" y="9" dy="0.71em">20</text></g><g class="tick" opacity="1" transform="translate(148.5,0)"><line stroke="currentColor" y2="6"/><text fill="currentColor" y="9" dy="0.71em">40</text></g><g class="tick" opacity="1" transform="translate(222.5,0)"><line stroke="currentColor" y2="6"/><text fill="currentColor" y="9" dy="0.71em">60</text></g><g class="tick" opacity="1" transform="translate(296.5,0)"><line stroke="currentColor" y2="6"/><text fill="currentColor" y="9" dy="0.71em">80</text></g><g class="tick" opacity="1" transform="translate(370.5,0)"><line stroke="currentColor" y2="6"/><text fill="currentColor" y="9" dy="0.71em">100</text></g><g class="tick" opacity="1" transform="translate(444.5,0)"><line stroke="currentColor" y2="6"/><text fill="currentColor" y="9" dy="0.71em">120</text></g><g class="tick" opacity="1" transform="translate(518.5,0)"><line stroke="currentColor" y2="6"/><text fill="currentColor" y="9" dy="0.71em">140</text></g><g class="tick" opacity="1" transform="translate(592.5,0)"><line stroke="currentColor" y2="6"/><text fill="currentColor" y="9" dy="0.71em">160</text></g><g class="tick" opacity="1" transform="translate(666.5,0)"><line stroke="currentColor" y2="6"/><text fill="currentColor" y="9" dy="0.71em">180</text></g><g class="tick" opacity="1" transform="translate(740.5,0)"><line stroke="currentColor" y2="6"/><text fill="currentColor" y="9" dy="0.71em">200</text></g><text x="740" dy="-5" text-anchor="end" style="font-family: Arial, sans-serif; font-size: 12px; fill: rgb(123, 123, 123); font-weight: bold;">Concurrency Level</text></g><g transform="translate(0,0)" fill="none" font-size="10" font-family="sans-serif" text-anchor="end"><path class="domain" stroke="currentColor" d="M0.5,570.5V0.5"/><g class="tick" opacity="1" transform="translate(0,570.5)"><line stroke="currentColor" x2="-6"/><text fill="currentColor" x="-9" dy="0.32em">350</text></g><g class="tick" opacity="1" transform="translate(0,526.6538461538462)"><line stroke="currentColor" x2="-6"/><text fill="currentColor" x="-9" dy="0.32em">400</text></g><g class="tick" opacity="1" transform="translate(0,482.8076923076923)"><line stroke="currentColor" x2="-6"/><text fill="currentColor" x="-9" dy="0.32em">450</text></g><g class="tick" opacity="1" transform="translate(0,438.9615384615384)"><line stroke="currentColor" x2="-6"/><text fill="currentColor" x="-9" dy="0.32em">500</text></g><g class="tick" opacity="1" transform="translate(0,395.1153846153846)"><line stroke="currentColor" x2="-6"/><text fill="currentColor" x="-9" dy="0.32em">550</text></g><g class="tick" opacity="1" transform="translate(0,351.2692307692308)"><line stroke="currentColor" x2="-6"/><text fill="currentColor" x="-9" dy="0.32em">600</text></g><g class="tick" opacity="1" transform="translate(0,307.4230769230769)"><line stroke="currentColor" x2="-6"/><text fill="currentColor" x="-9" dy="0.32em">650</text></g><g class="tick" opacity="1" transform="translate(0,263.5769230769231)"><line stroke="currentColor" x2="-6"/><text fill="currentColor" x="-9" dy="0.32em">700</text></g><g class="tick" opacity="1" transform="translate(0,219.7307692307692)"><line stroke="currentColor" x2="-6"/><text fill="currentColor" x="-9" dy="0.32em">750</text></g><g class="tick" opacity="1" transform="translate(0,175.8846153846154)"><line stroke="currentColor" x2="-6"/><text fill="currentColor" x="-9" dy="0.32em">800</text></g><g class="tick" opacity="1" transform="translate(0,132.03846153846152)"><line stroke="currentColor" x2="-6"/><text fill="currentColor" x="-9" dy="0.32em">850</text></g><g class="tick" opacity="1" transform="translate(0,88.1923076923077)"><line stroke="currentColor" x2="-6"/><text fill="currentColor" x="-9" dy="0.32em">900</text></g><g class="tick" opacity="1" transform="translate(0,44.34615384615382)"><line stroke="currentColor" x2="-6"/><text fill="currentColor" x="-9" dy="0.32em">950</text></g><g class="tick" opacity="1" transform="translate(0,0.5)"><line stroke="currentColor" x2="-6"/><text fill="currentColor" x="-9" dy="0.32em">1,000</text></g><text x="4" text-anchor="start" dominant-baseline="hanging" style="font-family: Arial, sans-serif; font-size: 12px; fill: rgb(123, 123, 123); font-weight: bold;">Throughput (rps)</text></g></g><g id="viz"><g><path d="M3.7,555.32463308016C5.550000000000001,555.32463308016,5.550000000000001,384.15629307005986,7.4,384.15629307005986C9.25,384.15629307005986,9.25,279.917571678765,11.1,279.917571678765C12.95,279.917571678765,12.95,211.20619602121386,14.8,211.20619602121386C16.65,211.20619602121386,16.65,163.57063778555693,18.5,163.57063778555693C20.35,163.57063778555693,20.35,129.43395580827493,22.2,129.43395580827493C24.05,129.43395580827493,24.05,104.4414419236217,25.900000000000002,104.4414419236217C27.75,104.4414419236217,27.75,85.9130909445739,29.6,85.9130909445739C31.45,85.9130909445739,31.45,72.10974998019675,33.3,72.10974998019675C35.15,72.10974998019675,35.15,61.854033736339524,37,61.854033736339524C38.85,61.854033736339524,38.85,54.32083766281688,40.7,54.32083766281688C42.55,54.32083766281688,42.55,48.9150706226274,44.4,48.9150706226274C46.25,48.9150706226274,46.25,45.19699104380674,48.1,45.19699104380674C49.95,45.19699104380674,49.95,42.83484199450999,51.800000000000004,42.83484199450999C53.650000000000006,42.83484199450999,53.650000000000006,41.573809945663875,55.5,41.573809945663875C57.35,41.573809945663875,57.35,41.21510087843828,59.2,41.21510087843828C61.050000000000004,41.21510087843828,61.050000000000004,41.601485212713904,62.900000000000006,41.601485212713904C64.75,41.601485212713904,64.75,42.60709303206749,66.6,42.60709303206749C68.44999999999999,42.60709303206749,68.44999999999999,44.13006999845951,70.3,44.13006999845951C72.15,44.13006999845951,72.15,46.08720038932508,74,46.08720038932508C75.85,46.08720038932508,75.85,48.409909037512286,77.7,48.409909037512286C79.55000000000001,48.409909037512286,79.55000000000001,51.04124672635671,81.4,51.04124672635671C83.25,51.04124672635671,83.25,53.933588089488,85.10000000000001,53.933588089488C86.95,53.933588089488,86.95,57.04685313814091,88.8,57.04685313814091C90.65,57.04685313814091,90.65,60.34711866463093,92.5,60.34711866463093C94.35,60.34711866463093,94.35,63.80552343394329,96.2,63.80552343394329C98.05000000000001,63.80552343394329,98.05000000000001,67.39739721341725,99.9,67.39739721341725C101.75,67.39739721341725,101.75,71.10156209311565,103.60000000000001,71.10156209311565C105.45,71.10156209311565,105.45,74.89976767923714,107.3,74.89976767923714C109.15,74.89976767923714,109.15,78.77623122673866,111,78.77623122673866C112.85,78.77623122673866,112.85,82.71726070641263,114.7,82.71726070641263C116.55000000000001,82.71726070641263,116.55000000000001,86.71094391842827,118.4,86.71094391842827C120.25,86.71094391842827,120.25,90.74689058058472,122.10000000000001,90.74689058058472C123.95000000000002,90.74689058058472,123.95000000000002,94.81601719243264,125.80000000000001,94.81601719243264C127.65,94.81601719243264,127.65,98.91036665812324,129.5,98.91036665812324C131.35,98.91036665812324,131.35,103.02295632133672,133.2,103.02295632133672C135.05,103.02295632133672,135.05,107.14764935459185,136.9,107.14764935459185C138.75,107.14764935459185,138.75,111.27904544710066,140.6,111.27904544710066C142.45,111.27904544710066,142.45,115.41238751941731,144.3,115.41238751941731C146.15,115.41238751941731,146.15,119.54348181078733,148,119.54348181078733C149.85,119.54348181078733,149.85,123.66862917468565,151.7,123.66862917468565C153.55,123.66862917468565,153.55,127.78456580836708,155.4,127.78456580836708C157.25,127.78456580836708,157.25,131.88841195520473,159.1,131.88841195520473C160.95,131.88841195520473,160.95,135.97762737082735,162.8,135.97762737082735C164.65,135.97762737082735,164.65,140.04997254841155,166.5,140.04997254841155C168.35000000000002,140.04997254841155,168.35000000000002,144.10347486480745,170.20000000000002,144.10347486480745C172.05,144.10347486480745,172.05,148.13639894519488,173.89999999999998,148.13639894519488C175.75,148.13639894519488,175.75,152.1472206556832,177.6,152.1472206556832C179.45,152.1472206556832,179.45,156.1346042254113,181.29999999999998,156.1346042254113C183.14999999999998,156.1346042254113,183.14999999999998,160.09738207601274,185,160.09738207601274C186.85000000000002,160.09738207601274,186.85000000000002,164.03453699974685,188.70000000000002,164.03453699974685C190.55,164.03453699974685,190.55,167.94518638052838,192.4,167.94518638052838C194.25,167.94518638052838,194.25,171.8285681964132,196.10000000000002,171.8285681964132C197.95000000000002,171.8285681964132,197.95000000000002,175.6840285793396,199.8,175.6840285793396C201.65000000000003,175.6840285793396,201.65000000000003,179.51101073932077,203.50000000000003,179.51101073932077C205.35000000000002,179.51101073932077,205.35000000000002,183.30904508683122,207.20000000000002,183.30904508683122C209.05,183.30904508683122,209.05,187.07774040965091,210.89999999999998,187.07774040965091C212.75,187.07774040965091,212.75,190.81677597959197,214.6,190.81677597959197C216.45,190.81677597959197,216.45,194.52589448086553,218.29999999999998,194.52589448086553C220.14999999999998,194.52589448086553,220.14999999999998,198.20489566584357,222,198.20489566584357C223.85,198.20489566584357,223.85,201.85363065594188,225.7,201.85363065594188C227.55,201.85363065594188,227.55,205.47199681567716,229.4,205.47199681567716C231.25,205.47199681567716,231.25,209.05993313682566,233.1,209.05993313682566C234.95,209.05993313682566,234.95,212.61741607729638,236.8,212.61741607729638C238.65,212.61741607729638,238.65,216.1444558059728,240.5,216.1444558059728C242.35000000000002,216.1444558059728,242.35000000000002,219.64109281055687,244.20000000000002,219.64109281055687C246.05,219.64109281055687,246.05,223.10739483045734,247.9,223.10739483045734C249.75,223.10739483045734,249.75,226.54345408114062,251.60000000000002,226.54345408114062C253.45,226.54345408114062,253.45,229.9493847401915,255.29999999999998,229.9493847401915C257.15,229.9493847401915,257.15,233.32532066865133,259,233.32532066865133C260.85,233.32532066865133,260.85,236.6714133441553,262.7,236.6714133441553C264.54999999999995,236.6714133441553,264.54999999999995,239.98782998494298,266.4,239.98782998494298C268.25,239.98782998494298,268.25,243.27475184608988,270.09999999999997,243.27475184608988C271.95,243.27475184608988,271.95,246.53237267129902,273.8,246.53237267129902C275.65,246.53237267129902,275.65,249.76089728535254,277.5,249.76089728535254C279.35,249.76089728535254,279.35,252.96054031387985,281.2,252.96054031387985C283.05,252.96054031387985,283.05,256.1315250184746,284.90000000000003,256.1315250184746C286.75,256.1315250184746,286.75,259.27408223642084,288.6,259.27408223642084C290.45000000000005,259.27408223642084,290.45000000000005,262.38844941536905,292.3,262.38844941536905C294.15,262.38844941536905,294.15,265.47486973426976,296,265.47486973426976C297.85,265.47486973426976,297.85,268.53359130273606,299.70000000000005,268.53359130273606C301.55,268.53359130273606,301.55,271.56486643176646,303.4,271.56486643176646C305.25,271.56486643176646,305.25,274.5689509694548,307.09999999999997,274.5689509694548C308.95,274.5689509694548,308.95,277.5461036959147,310.8,277.5461036959147C312.65,277.5461036959147,312.65,280.4965857722059,314.5,280.4965857722059C316.35,280.4965857722059,316.35,283.42066023853243,318.2,283.42066023853243C320.04999999999995,283.42066023853243,320.04999999999995,286.3185915574315,321.9,286.3185915574315C323.75,286.3185915574315,323.75,289.1906451980623,325.6,289.1906451980623C327.45000000000005,289.1906451980623,327.45000000000005,292.0370872580658,329.3,292.0370872580658C331.15,292.0370872580658,331.15,294.85818411978215,333,294.85818411978215C334.85,294.85818411978215,334.85,297.65420213790986,336.7,297.65420213790986C338.55,297.65420213790986,338.55,300.42540735594275,340.40000000000003,300.42540735594275C342.25,300.42540735594275,342.25,303.17206524896545,344.1,303.17206524896545C345.95,303.17206524896545,345.95,305.8944404905954,347.79999999999995,305.8944404905954C349.65,305.8944404905954,349.65,308.5927967420555,351.5,308.5927967420555C353.35,308.5927967420555,353.35,311.2673964615371,355.2,311.2673964615371C357.04999999999995,311.2673964615371,357.04999999999995,313.9185007321667,358.9,313.9185007321667C360.75,313.9185007321667,360.75,316.54636910704426,362.59999999999997,316.54636910704426C364.45,316.54636910704426,364.45,319.1512594699361,366.3,319.1512594699361C368.15,319.1512594699361,368.15,321.73342791034196,370,321.73342791034196C371.85,321.73342791034196,371.85,324.29312861174765,373.7,324.29312861174765C375.55,324.29312861174765,375.55,326.8306137519859,377.40000000000003,326.8306137519859C379.25,326.8306137519859,379.25,329.34613341471004,381.1,329.34613341471004C382.95000000000005,329.34613341471004,382.95000000000005,331.83993551106937,384.8,331.83993551106937C386.65,331.83993551106937,386.65,334.31226571074967,388.5,334.31226571074967C390.35,334.31226571074967,390.35,336.7633673816122,392.20000000000005,336.7633673816122C394.05000000000007,336.7633673816122,394.05000000000007,339.19348153722257,395.90000000000003,339.19348153722257C397.75,339.19348153722257,397.75,341.60284679162197,399.6,341.60284679162197C401.45000000000005,341.60284679162197,401.45000000000005,343.9916993207438,403.3,343.9916993207438C405.15000000000003,343.9916993207438,405.15000000000003,346.36027282992507,407.00000000000006,346.36027282992507C408.85,346.36027282992507,408.85,348.7087985270091,410.70000000000005,348.7087985270091C412.55000000000007,348.7087985270091,412.55000000000007,351.0375051005708,414.40000000000003,351.0375051005708C416.25,351.0375051005708,416.25,353.34661870284043,418.09999999999997,353.34661870284043C419.94999999999993,353.34661870284043,419.94999999999993,355.636362936926,421.79999999999995,355.636362936926C423.65,355.636362936926,423.65,357.90695884797293,425.49999999999994,357.90695884797293C427.34999999999997,357.90695884797293,427.34999999999997,360.1586249179246,429.2,360.1586249179246C431.04999999999995,360.1586249179246,431.04999999999995,362.3915770635757,432.9,362.3915770635757C434.75,362.3915770635757,434.75,364.60602863763035,436.59999999999997,364.60602863763035C438.44999999999993,364.60602863763035,438.44999999999993,366.8021904325032,440.29999999999995,366.8021904325032C442.15,366.8021904325032,442.15,368.98027068662094,444,368.98027068662094C445.85,368.98027068662094,445.85,371.14047509300065,447.7,371.14047509300065C449.54999999999995,371.14047509300065,449.54999999999995,373.283006809895,451.4,373.283006809895C453.25,373.283006809895,453.25,375.4080664733168,455.09999999999997,375.4080664733168C456.95,375.4080664733168,456.95,377.51585221126567,458.8,377.51585221126567C460.65,377.51585221126567,460.65,379.60655965949303,462.5,379.60655965949303C464.35,379.60655965949303,464.35,381.6803819786561,466.2,381.6803819786561C468.05,381.6803819786561,468.05,383.73750987272246,469.90000000000003,383.73750987272246C471.75,383.73750987272246,471.75,385.77813160849774,473.6,385.77813160849774C475.45000000000005,385.77813160849774,475.45000000000005,387.80243303615623,477.3,387.80243303615623C479.15,387.80243303615623,479.15,389.81059761066626,481,389.81059761066626C482.85,389.81059761066626,482.85,391.8028064140134,484.70000000000005,391.8028064140134C486.55000000000007,391.8028064140134,486.55000000000007,393.7792381781215,488.40000000000003,393.7792381781215C490.25,393.7792381781215,490.25,395.7400693083916,492.1,395.7400693083916C493.95000000000005,395.7400693083916,493.95000000000005,397.6854739077796,495.8,397.6854739077796C497.65000000000003,397.6854739077796,497.65000000000003,399.6156238013354,499.50000000000006,399.6156238013354C501.35,399.6156238013354,501.35,401.5306885611419,503.20000000000005,401.5306885611419C505.05000000000007,401.5306885611419,505.05000000000007,403.430835531587,506.90000000000003,403.430835531587C508.75,403.430835531587,508.75,405.31622985491686,510.59999999999997,405.31622985491686C512.4499999999999,405.31622985491686,512.4499999999999,407.18703449701394,514.3,407.18703449701394C516.15,407.18703449701394,516.15,409.0434102733519,518,409.0434102733519C519.8499999999999,409.0434102733519,519.8499999999999,410.88551587508624,521.6999999999999,410.88551587508624C523.55,410.88551587508624,523.55,412.7135078952365,525.4,412.7135078952365C527.25,412.7135078952365,527.25,414.52754085492387,529.1,414.52754085492387C530.95,414.52754085492387,530.95,416.32776722963104,532.8,416.32776722963104C534.65,416.32776722963104,534.65,418.11433747545084,536.5,418.11433747545084C538.3499999999999,418.11433747545084,538.3499999999999,419.8874000552952,540.1999999999999,419.8874000552952C542.05,419.8874000552952,542.05,421.6471014650414,543.9,421.6471014650414C545.75,421.6471014650414,545.75,423.3935862595855,547.6,423.3935862595855C549.45,423.3935862595855,549.45,425.1269970787871,551.3,425.1269970787871C553.15,425.1269970787871,553.15,426.84747467328134,555,426.84747467328134C556.85,426.84747467328134,556.85,428.55515793014234,558.7,428.55515793014234C560.55,428.55515793014234,560.55,430.2501838983807,562.4,430.2501838983807C564.25,430.2501838983807,564.25,431.9326878142591,566.1,431.9326878142591C567.95,431.9326878142591,567.95,433.6028031264152,569.8000000000001,433.6028031264152C571.6500000000001,433.6028031264152,571.6500000000001,435.2606615207774,573.5,435.2606615207774C575.35,435.2606615207774,575.35,436.9063929452637,577.2,436.9063929452637C579.05,436.9063929452637,579.05,438.54012563425357,580.9,438.54012563425357C582.75,438.54012563425357,582.75,440.16198613282364,584.6,440.16198613282364C586.45,440.16198613282364,586.45,441.7720993207417,588.3000000000001,441.7720993207417C590.1500000000001,441.7720993207417,590.1500000000001,443.370588436209,592,443.370588436209C593.85,443.370588436209,593.85,444.9575750993481,595.7,444.9575750993481C597.5500000000001,444.9575750993481,597.5500000000001,446.5331793354283,599.4000000000001,446.5331793354283C601.25,446.5331793354283,601.25,448.09751959782756,603.0999999999999,448.09751959782756C604.9499999999999,448.09751959782756,604.9499999999999,449.6507127907233,606.8,449.6507127907233C608.65,449.6507127907233,608.65,451.192874291512,610.5,451.192874291512C612.3499999999999,451.192874291512,612.3499999999999,452.72411797295416,614.1999999999999,452.72411797295416C616.05,452.72411797295416,616.05,454.2445562250416,617.9,454.2445562250416C619.75,454.2445562250416,619.75,455.7542999765875,621.6,455.7542999765875C623.45,455.7542999765875,623.45,457.2534587165359,625.3,457.2534587165359C627.15,457.2534587165359,627.15,458.7421405149915,629,458.7421405149915C630.8499999999999,458.7421405149915,630.8499999999999,460.2204520439693,632.6999999999999,460.2204520439693C634.55,460.2204520439693,634.55,461.6884985978636,636.4,461.6884985978636C638.25,461.6884985978636,638.25,463.1463841136363,640.1,463.1463841136363C641.95,463.1463841136363,641.95,464.59421119072715,643.8,464.59421119072715C645.65,464.59421119072715,645.65,466.03208111068454,647.5,466.03208111068454C649.35,466.03208111068454,649.35,467.46009385651837,651.2,467.46009385651837C653.05,467.46009385651837,653.05,468.87834813177943,654.9,468.87834813177943C656.75,468.87834813177943,656.75,470.286941379361,658.6,470.286941379361C660.45,470.286941379361,660.45,471.68596980003116,662.3000000000001,471.68596980003116C664.1500000000001,471.68596980003116,664.1500000000001,473.07552837069204,666,473.07552837069204C667.85,473.07552837069204,667.85,474.4557108623721,669.7,474.4557108623721C671.55,474.4557108623721,671.55,475.82660985795104,673.4,475.82660985795104C675.25,475.82660985795104,675.25,477.18831676962134,677.1,477.18831676962134C678.95,477.18831676962134,678.95,478.5409218560885,680.8000000000001,478.5409218560885C682.6500000000001,478.5409218560885,682.6500000000001,479.8845142395115,684.5,479.8845142395115C686.35,479.8845142395115,686.35,481.2191819221879,688.2,481.2191819221879C690.0500000000001,481.2191819221879,690.0500000000001,482.5450118029848,691.9000000000001,482.5450118029848C693.75,482.5450118029848,693.75,483.8620896935196,695.5999999999999,483.8620896935196C697.4499999999999,483.8620896935196,697.4499999999999,485.1705003340923,699.3,485.1705003340923C701.15,485.1705003340923,701.15,486.470327409373,703,486.470327409373C704.8499999999999,486.470327409373,704.8499999999999,487.7616535638477,706.6999999999999,487.7616535638477C708.55,487.7616535638477,708.55,489.04456041702457,710.4,489.04456041702457C712.25,489.04456041702457,712.25,490.31912857840445,714.1,490.31912857840445C715.95,490.31912857840445,715.95,491.58543766221834,717.8,491.58543766221834C719.65,491.58543766221834,719.65,492.8435663019352,721.5,492.8435663019352C723.3499999999999,492.8435663019352,723.3499999999999,494.0935921645424,725.1999999999999,494.0935921645424C727.05,494.0935921645424,727.05,495.33559196460266,728.9,495.33559196460266C730.75,495.33559196460266,730.75,496.569641478091,732.6,496.569641478091C734.45,496.569641478091,734.45,497.7958155560121,736.3,497.7958155560121C738.15,497.7958155560121,738.15,499.01418813780623,740,499.01418813780623" stroke="#1f77b4" fill="none"/><text font-family="sans-serif" font-size="10" class="labels" x="59.2" y="41.21510087843828" dx="0" dy="-4" text-anchor="middle"/></g></g></g><text y="4" x="4" style="font-family: Arial, sans-serif; font-size: 12px; fill: black; font-weight: bold; dominant-baseline: hanging;"/></g><g id="grid"><rect x="0" y="0" width="805" height="600" fill="none" stroke="#ccc"/></g></g></svg>