<svg xmlns="http://www.w3.org/2000/svg" width="805" height="600"><rect width="805" height="600" x="0" y="0" fill="#FFFFFF" id="backgorund"/><g id="viz"><clipPath id="serieClipPath"><rect x="-50" y="-10" width="805" height="600"/></clipPath><g transform="translate(0,0)"><g transform="translate(50,10)" clip-path="url(#serieClipPath)"><g id="axis"><g transform="translate(0,570)" fill="none" font-size="10" font-family="sans-serif" text-anchor="middle"><path class="domain" stroke="currentColor" d="M0.5,6V0.5H740.5V6"/><g class="tick" opacity="1" transform="translate(0.5,0)"><line stroke="currentColor" y2="6"/><text fill="currentColor" y="9" dy="0.71em">0</text></g><g class="tick" opacity="1" transform="translate(74.5,0)"><line stroke="currentColor" y2="6"/><text fill="currentColor" y="9" dy="0.71em">20</text></g><g class="tick" opacity="1" transform="translate(148.5,0)"><line stroke="currentColor" y2="6"/><text fill="currentColor" y="9" dy="0.71em">40</text></g><g class="tick" opacity="1" transform="translate(222.5,0)"><line stroke="currentColor" y2="6"/><text fill="currentColor" y="9" dy="0.71em">60</text></g><g class="tick" opacity="1" transform="translate(296.5,0)"><line stroke="currentColor" y2="6"/><text fill="currentColor" y="9" dy="0.71em">80</text></g><g class="tick" opacity="1" transform="translate(370.5,0)"><line stroke="currentColor" y2="6"/><text fill="currentColor" y="9" dy="0.71em">100</text></g><g class="tick" opacity="1" transform="translate(444.5,0)"><line stroke="currentColor" y2="6"/><text fill="currentColor" y="9" dy="0.71em">120</text></g><g class="tick" opacity="1" transform="translate(518.5,0)"><line stroke="currentColor" y2="6"/><text fill="currentColor" y="9" dy="0.71em">140</text></g><g class="tick" opacity="1" transform="translate(592.5,0)"><line stroke="currentColor" y2="6"/><text fill="currentColor" y="9" dy="0.71em">160</text></g><g class="tick" opacity="1" transform="translate(666.5,0)"><line stroke="currentColor" y2="6"/><text fill="currentColor" y="9" dy="0.71em">180</text></g><g class="tick" opacity="1" transform="translate(740.5,0)"><line stroke="currentColor" y2="6"/><text fill="currentColor" y="9" dy="0.71em">200</text></g><text x="740" dy="-5" text-anchor="end" style="font-family: Arial, sans-serif; font-size: 12px; fill: rgb(123, 123, 123); font-weight: bold;">Concurrency Level</text></g><g transform="translate(0,0)" fill="none" font-size="10" font-family="sans-serif" text-anchor="end"><path class="domain" stroke="currentColor" d="M0.5,570.5V0.5"/><g class="tick" opacity="1" transform="translate(0,570.5)"><line stroke="currentColor" x2="-6"/><text fill="currentColor" x="-9" dy="0.32em">150</text></g><g class="tick" opacity="1" transform="translate(0,523)"><line stroke="currentColor" x2="-6"/><text fill="currentColor" x="-9" dy="0.32em">200</text></g><g class="tick" opacity="1" transform="translate(0,475.5)"><line stroke="currentColor" x2="-6"/><text fill="currentColor" x="-9" dy="0.32em">250</text></g><g class="tick" opacity="1" transform="translate(0,428)"><line stroke="currentColor" x2="-6"/><text fill="currentColor" x="-9" dy="0.32em">300</text></g><g class="tick" opacity="1" transform="translate(0,380.50000000000006)"><line stroke="currentColor" x2="-6"/><text fill="currentColor" x="-9" dy="0.32em">350</text></g><g class="tick" opacity="1" transform="translate(0,332.99999999999994)"><line stroke="currentColor" x2="-6"/><text fill="currentColor" x="-9" dy="0.32em">400</text></g><g class="tick" opacity="1" transform="translate(0,285.5)"><line stroke="currentColor" x2="-6"/><text fill="currentColor" x="-9" dy="0.32em">450</text></g><g class="tick" opacity="1" transform="translate(0,237.99999999999997)"><line stroke="currentColor" x2="-6"/><text fill="currentColor" x="-9" dy="0.32em">500</text></g><g class="tick" opacity="1" transform="translate(0,190.50000000000003)"><line stroke="currentColor" x2="-6"/><text fill="currentColor" x="-9" dy="0.32em">550</text></g><g class="tick" opacity="1" transform="translate(0,143)"><line stroke="currentColor" x2="-6"/><text fill="currentColor" x="-9" dy="0.32em">600</text></g><g class="tick" opacity="1" transform="translate(0,95.49999999999999)"><line stroke="currentColor" x2="-6"/><text fill="currentColor" x="-9" dy="0.32em">650</text></g><g class="tick" opacity="1" transform="translate(0,48.00000000000002)"><line stroke="currentColor" x2="-6"/><text fill="currentColor" x="-9" dy="0.32em">700</text></g><g class="tick" opacity="1" transform="translate(0,0.5)"><line stroke="currentColor" x2="-6"/><text fill="currentColor" x="-9" dy="0.32em">750</text></g><text x="4" text-anchor="start" dominant-baseline="hanging" style="font-family: Arial, sans-serif; font-size: 12px; fill: rgb(123, 123, 123); font-weight: bold;">Throughput (rps)</text></g></g><g id="viz"><g><path d="M3.7,532.4274574426283C5.550000000000001,532.4274574426283,5.550000000000001,408.0614620317948,7.4,408.0614620317948C9.25,408.0614620317948,9.25,318.1688120705206,11.1,318.1688120705206C12.95,318.1688120705206,12.95,251.05173144907417,14.8,251.05173144907417C16.65,251.05173144907417,16.65,199.73721611989586,18.5,199.73721611989586C20.35,199.73721611989586,20.35,159.81174250570976,22.2,159.81174250570976C24.05,159.81174250570976,24.05,128.346704621882,25.900000000000002,128.346704621882C27.75,128.346704621882,27.75,103.32322416847259,29.6,103.32322416847259C31.45,103.32322416847259,31.45,83.30505256020061,33.3,83.30505256020061C35.15,83.30505256020061,35.15,67.24309858315759,37,67.24309858315759C38.85,67.24309858315759,38.85,54.35367357205638,40.7,54.35367357205638C42.55,54.35367357205638,42.55,44.03994001033179,44.4,44.03994001033179C46.25,44.03994001033179,46.25,35.83967854820809,48.1,35.83967854820809C49.95,35.83967854820809,49.95,29.38963132268757,51.800000000000004,29.38963132268757C53.650000000000006,29.38963132268757,53.650000000000006,24.40059371438475,55.5,24.40059371438475C57.35,24.40059371438475,57.35,20.63965626498691,59.2,20.63965626498691C61.050000000000004,20.63965626498691,61.050000000000004,17.917312265038102,62.900000000000006,17.917312265038102C64.75,17.917312265038102,64.75,16.077944223335376,66.6,16.077944223335376C68.44999999999999,16.077944223335376,68.44999999999999,14.992699880425242,70.3,14.992699880425242C72.15,14.992699880425242,72.15,14.554086157852428,74,14.554086157852428C75.85,14.554086157852428,75.85,14.67181680284876,77.7,14.67181680284876C79.55000000000001,14.67181680284876,79.55000000000001,15.269587504499228,81.4,15.269587504499228C83.25,15.269587504499228,83.25,16.282545769441242,85.10000000000001,16.282545769441242C86.95,16.282545769441242,86.95,17.655287246358096,88.8,17.655287246358096C90.65,17.655287246358096,90.65,19.340255211414444,92.5,19.340255211414444C94.35,19.340255211414444,94.35,21.29645184040271,96.2,21.29645184040271C98.05000000000001,21.29645184040271,98.05000000000001,23.488392805850967,99.9,23.488392805850967C101.75,23.488392805850967,101.75,25.88525338367368,103.60000000000001,25.88525338367368C105.45,25.88525338367368,105.45,28.460166481993298,107.3,28.460166481993298C109.15,28.460166481993298,109.15,31.189642080131375,111,31.189642080131375C112.85,31.189642080131375,112.85,34.053084366382414,114.7,34.053084366382414C116.55000000000001,34.053084366382414,116.55000000000001,37.03238800537049,118.4,37.03238800537049C120.25,37.03238800537049,120.25,40.11159888699842,122.10000000000001,40.11159888699842C123.95000000000002,40.11159888699842,123.95000000000002,43.27662772304559,125.80000000000001,43.27662772304559C127.65,43.27662772304559,127.65,46.51500719166519,129.5,46.51500719166519C131.35,46.51500719166519,131.35,49.81568515057012,133.2,49.81568515057012C135.05,49.81568515057012,135.05,53.16884786913919,136.9,53.16884786913919C138.75,53.16884786913919,138.75,56.56576835918712,140.6,56.56576835918712C142.45,56.56576835918712,142.45,59.99867578203164,144.3,59.99867578203164C146.15,59.99867578203164,146.15,63.4606426273421,148,63.4606426273421C149.85,63.4606426273421,149.85,66.94548693628364,151.7,66.94548693628364C153.55,66.94548693628364,153.55,70.44768730772132,155.4,70.44768730772132C157.25,70.44768730772132,157.25,73.96230880482538,159.1,73.96230880482538C160.95,73.96230880482538,160.95,77.48493818827501,162.8,77.48493818827501C164.65,77.48493818827501,164.65,81.01162715535065,166.5,81.01162715535065C168.35000000000002,81.01162715535065,168.35000000000002,84.5388424725078,170.20000000000002,84.5388424725078C172.05,84.5388424725078,172.05,88.06342206114805,173.89999999999998,88.06342206114805C175.75,88.06342206114805,175.75,91.58253623911905,177.6,91.58253623911905C179.45,91.58253623911905,179.45,95.09365343939356,181.29999999999998,95.09365343939356C183.14999999999998,95.09365343939356,183.14999999999998,98.59450982677154,185,98.59450982677154C186.85000000000002,98.59450982677154,186.85000000000002,102.08308231680704,188.70000000000002,102.08308231680704C190.55,102.08308231680704,190.55,105.55756457131032,192.4,105.55756457131032C194.25,105.55756457131032,194.25,109.01634560398361,196.10000000000002,109.01634560398361C197.95000000000002,109.01634560398361,197.95000000000002,112.45799067989421,199.8,112.45799067989421C201.65000000000003,112.45799067989421,201.65000000000003,115.88122423507238,203.50000000000003,115.88122423507238C205.35000000000002,115.88122423507238,205.35000000000002,119.28491457879043,207.20000000000002,119.28491457879043C209.05,119.28491457879043,209.05,122.66806017205883,210.89999999999998,122.66806017205883C212.75,122.66806017205883,212.75,126.02977730240288,214.6,126.02977730240288C216.45,126.02977730240288,216.45,129.36928899775398,218.29999999999998,129.36928899775398C220.14999999999998,129.36928899775398,220.14999999999998,132.68591504189854,222,132.68591504189854C223.85,132.68591504189854,223.85,135.97906297083046,225.7,135.97906297083046C227.55,135.97906297083046,227.55,139.24821994398496,229.4,139.24821994398496C231.25,139.24821994398496,231.25,142.49294539699412,233.1,142.49294539699412C234.95,142.49294539699412,234.95,145.7128643936225,236.8,145.7128643936225C238.65,145.7128643936225,238.65,148.90766160411408,240.5,148.90766160411408C242.35000000000002,148.90766160411408,242.35000000000002,152.07707584553785,244.20000000000002,152.07707584553785C246.05,152.07707584553785,246.05,155.2208951270231,247.9,155.2208951270231C249.75,155.2208951270231,249.75,158.33895214916254,251.60000000000002,158.33895214916254C253.45,158.33895214916254,253.45,161.43112021246992,255.29999999999998,161.43112021246992C257.15,161.43112021246992,257.15,164.49730949470487,259,164.49730949470487C260.85,164.49730949470487,260.85,167.53746366121234,262.7,167.53746366121234C264.54999999999995,167.53746366121234,264.54999999999995,170.5515567762446,266.4,170.5515567762446C268.25,170.5515567762446,268.25,173.53959048661488,270.09999999999997,173.53959048661488C271.95,173.53959048661488,271.95,176.50159145201053,273.8,176.50159145201053C275.65,176.50159145201053,275.65,179.43760899894414,277.5,179.43760899894414C279.35,179.43760899894414,279.35,182.3477129776656,281.2,182.3477129776656C283.05,182.3477129776656,283.05,185.2319918034405,284.90000000000003,185.2319918034405C286.75,185.2319918034405,286.75,188.09055066546048,288.6,188.09055066546048C290.45000000000005,188.09055066546048,290.45000000000005,190.9235098882991,292.3,190.9235098882991C294.15,190.9235098882991,294.15,193.73100343230288,296,193.73100343230288C297.85,193.73100343230288,297.85,196.5131775206261,299.70000000000005,196.5131775206261C301.55,196.5131775206261,301.55,199.27018938179023,303.4,199.27018938179023C305.25,199.27018938179023,305.25,202.0022060977131,307.09999999999997,202.0022060977131C308.95,202.0022060977131,308.95,204.70940354808852,310.8,204.70940354808852C312.65,204.70940354808852,312.65,207.3919654428534,314.5,207.3919654428534C316.35,207.3919654428534,316.35,210.05008243524,318.2,210.05008243524C320.04999999999995,210.05008243524,320.04999999999995,212.68395130859543,321.9,212.68395130859543C323.75,212.68395130859543,323.75,215.293774230772,325.6,215.293774230772C327.45000000000005,215.293774230772,327.45000000000005,217.87975807044862,329.3,217.87975807044862C331.15,217.87975807044862,331.15,220.44211377024354,333,220.44211377024354C334.85,220.44211377024354,334.85,222.98105577193616,336.7,222.98105577193616C338.55,222.98105577193616,338.55,225.49680148952547,340.40000000000003,225.49680148952547C342.25,225.49680148952547,342.25,227.98957082622587,344.1,227.98957082622587C345.95,227.98957082622587,345.95,230.4595857318344,347.79999999999995,230.4595857318344C349.65,230.4595857318344,349.65,232.9070697972134,351.5,232.9070697972134C353.35,232.9070697972134,353.35,235.33224788290622,355.2,235.33224788290622C357.04999999999995,235.33224788290622,357.04999999999995,237.73534577915763,358.9,237.73534577915763C360.75,237.73534577915763,360.75,240.11658989483902,362.59999999999997,240.11658989483902C364.45,240.11658989483902,364.45,242.47620697298515,366.3,242.47620697298515C368.15,242.47620697298515,368.15,244.81442383084325,370,244.81442383084325C371.85,244.81442383084325,371.85,247.13146712249983,373.7,247.13146712249983C375.55,247.13146712249983,375.55,249.42756312231987,377.40000000000003,249.42756312231987C379.25,249.42756312231987,379.25,251.70293752756427,381.1,251.70293752756427C382.95000000000005,251.70293752756427,382.95000000000005,253.9578152786934,384.8,253.9578152786934C386.65,253.9578152786934,386.65,256.1924203959774,388.5,256.1924203959774C390.35,256.1924203959774,390.35,258.40697583114695,392.20000000000005,258.40697583114695C394.05000000000007,258.40697583114695,394.05000000000007,260.60170333291927,395.90000000000003,260.60170333291927C397.75,260.60170333291927,397.75,262.7768233253229,399.6,262.7768233253229C401.45000000000005,262.7768233253229,401.45000000000005,264.9325547978327,403.3,264.9325547978327C405.15000000000003,264.9325547978327,405.15000000000003,267.0691152064011,407.00000000000006,267.0691152064011C408.85,267.0691152064011,408.85,269.18672038454457,410.70000000000005,269.18672038454457C412.55000000000007,269.18672038454457,412.55000000000007,271.2855844637071,414.40000000000003,271.2855844637071C416.25,271.2855844637071,416.25,273.3659198021845,418.09999999999997,273.3659198021845C419.94999999999993,273.3659198021845,419.94999999999993,275.4279369219471,421.79999999999995,275.4279369219471C423.65,275.4279369219471,423.65,277.4718444527489,425.49999999999994,277.4718444527489C427.34999999999997,277.4718444527489,427.34999999999997,279.49784908295806,429.2,279.49784908295806C431.04999999999995,279.49784908295806,431.04999999999995,281.50615551658524,432.9,281.50615551658524C434.75,281.50615551658524,434.75,283.49696643602937,436.59999999999997,283.49696643602937C438.44999999999993,283.49696643602937,438.44999999999993,285.47048247009036,440.29999999999995,285.47048247009036C442.15,285.47048247009036,442.15,287.42690216683775,444,287.42690216683775C445.85,287.42690216683775,445.85,289.36642197095296,447.7,289.36642197095296C449.54999999999995,289.36642197095296,449.54999999999995,291.28923620518884,451.4,291.28923620518884C453.25,291.28923620518884,453.25,293.1955370556214,455.09999999999997,293.1955370556214C456.95,293.1955370556214,456.95,295.08551456038794,458.8,295.08551456038794C460.65,295.08551456038794,460.65,296.9593566016321,462.5,296.9593566016321C464.35,296.9593566016321,464.35,298.817248900394,466.2,298.817248900394C468.05,298.817248900394,468.05,300.6593750142054,469.90000000000003,300.6593750142054C471.75,300.6593750142054,471.75,302.48591633716535,473.6,302.48591633716535C475.45000000000005,302.48591633716535,475.45000000000005,304.2970521022896,477.3,304.2970521022896C479.15,304.2970521022896,479.15,306.0929593859423,481,306.0929593859423C482.85,306.0929593859423,482.85,307.87381311417005,484.70000000000005,307.87381311417005C486.55000000000007,307.87381311417005,486.55000000000007,309.6397860707761,488.40000000000003,309.6397860707761C490.25,309.6397860707761,490.25,311.39104890697973,492.1,311.39104890697973C493.95000000000005,311.39104890697973,493.95000000000005,313.127770152519,495.8,313.127770152519C497.65000000000003,313.127770152519,497.65000000000003,314.8501162280673,499.50000000000006,314.8501162280673C501.35,314.8501162280673,501.35,316.5582514588404,503.20000000000005,316.5582514588404C505.05000000000007,316.5582514588404,505.05000000000007,318.25233808928044,506.90000000000003,318.25233808928044C508.75,318.25233808928044,508.75,319.9325362987145,510.59999999999997,319.9325362987145C512.4499999999999,319.9325362987145,512.4499999999999,321.5990042178886,514.3,321.5990042178886C516.15,321.5990042178886,516.15,323.25189794628886,518,323.25189794628886C519.8499999999999,323.25189794628886,519.8499999999999,324.89137157016506,521.6999999999999,324.89137157016506C523.55,324.89137157016506,523.55,326.5175771811805,525.4,326.5175771811805C527.25,326.5175771811805,527.25,328.13066489561703,529.1,328.13066489561703C530.95,328.13066489561703,530.95,329.73078287406815,532.8,329.73078287406815C534.65,329.73078287406815,534.65,331.3180773415596,536.5,331.3180773415596C538.3499999999999,331.3180773415596,538.3499999999999,332.8926926080403,540.1999999999999,332.8926926080403C542.05,332.8926926080403,542.05,334.4547710891921,543.9,334.4547710891921C545.75,334.4547710891921,545.75,336.0044533275097,547.6,336.0044533275097C549.45,336.0044533275097,549.45,337.5418780136044,551.3,337.5418780136044C553.15,337.5418780136044,553.15,339.06718200769365,555,339.06718200769365C556.85,339.06718200769365,556.85,340.5805003612345,558.7,340.5805003612345C560.55,340.5805003612345,560.55,342.081966338668,562.4,342.081966338668C564.25,342.081966338668,564.25,343.57171143924273,566.1,343.57171143924273C567.95,343.57171143924273,567.95,345.0498654188848,569.8000000000001,345.0498654188848C571.6500000000001,345.0498654188848,571.6500000000001,346.5165563120892,573.5,346.5165563120892C575.35,346.5165563120892,575.35,347.9719104538067,577.2,347.9719104538067C579.05,347.9719104538067,579.05,349.41605250130186,580.9,349.41605250130186C582.75,349.41605250130186,582.75,350.84910545596296,584.6,350.84910545596296C586.45,350.84910545596296,586.45,352.27119068504163,588.3000000000001,352.27119068504163C590.1500000000001,352.27119068504163,590.1500000000001,353.68242794330706,592,353.68242794330706C593.85,353.68242794330706,593.85,355.0829353945961,595.7,355.0829353945961C597.5500000000001,355.0829353945961,597.5500000000001,356.47282963324506,599.4000000000001,356.47282963324506C601.25,356.47282963324506,601.25,357.8522257053914,603.0999999999999,357.8522257053914C604.9499999999999,357.8522257053914,604.9499999999999,359.22123713012917,606.8,359.22123713012917C608.65,359.22123713012917,608.65,360.5799759205111,610.5,360.5799759205111C612.3499999999999,360.5799759205111,612.3499999999999,361.92855260438404,614.1999999999999,361.92855260438404C616.05,361.92855260438404,616.05,363.26707624505053,617.9,363.26707624505053C619.75,363.26707624505053,619.75,364.59565446174724,621.6,364.59565446174724C623.45,364.59565446174724,623.45,365.91439344993347,625.3,365.91439344993347C627.15,365.91439344993347,627.15,367.2233980013831,629,367.2233980013831C630.8499999999999,367.2233980013831,630.8499999999999,368.5227715240735,632.6999999999999,368.5227715240735C634.55,368.5227715240735,634.55,369.8126160618678,636.4,369.8126160618678C638.25,369.8126160618678,638.25,371.0930323139838,640.1,371.0930323139838C641.95,371.0930323139838,641.95,372.36411965424793,643.8,372.36411965424793C645.65,372.36411965424793,645.65,373.62597615012885,647.5,373.62597615012885C649.35,373.62597615012885,649.35,374.8786985815501,651.2,374.8786985815501C653.05,374.8786985815501,653.05,376.1223824594766,654.9,376.1223824594766C656.75,376.1223824594766,656.75,377.35712204427614,658.6,377.35712204427614C660.45,377.35712204427614,660.45,378.58301036385154,662.3000000000001,378.58301036385154C664.1500000000001,378.58301036385154,664.1500000000001,379.8001392315446,666,379.8001392315446C667.85,379.8001392315446,667.85,381.0085992638088,669.7,381.0085992638088C671.55,381.0085992638088,671.55,382.208479897653,673.4,382.208479897653C675.25,382.208479897653,675.25,383.3998694078528,677.1,383.3998694078528C678.95,383.3998694078528,678.95,384.58285492393276,680.8000000000001,384.58285492393276C682.6500000000001,384.58285492393276,682.6500000000001,385.75752244691705,684.5,385.75752244691705C686.35,385.75752244691705,686.35,386.9239568658503,688.2,386.9239568658503C690.0500000000001,386.9239568658503,690.0500000000001,388.0822419740904,691.9000000000001,388.0822419740904C693.75,388.0822419740904,693.75,389.2324604853721,695.5999999999999,389.2324604853721C697.4499999999999,389.2324604853721,697.4499999999999,390.3746940496443,699.3,390.3746940496443C701.15,390.3746940496443,701.15,391.50902326868083,703,391.50902326868083C704.8499999999999,391.50902326868083,704.8499999999999,392.63552771146817,706.6999999999999,392.63552771146817C708.55,392.63552771146817,708.55,393.75428592936856,710.4,393.75428592936856C712.25,393.75428592936856,712.25,394.8653754710642,714.1,394.8653754710642C715.95,394.8653754710642,715.95,395.96887289728056,717.8,395.96887289728056C719.65,395.96887289728056,719.65,397.06485379529295,721.5,397.06485379529295C723.3499999999999,397.06485379529295,723.3499999999999,398.15339279321756,725.1999999999999,398.15339279321756C727.05,398.15339279321756,727.05,399.2345635740893,728.9,399.2345635740893C730.75,399.2345635740893,730.75,400.30843888972834,732.6,400.30843888972834C734.45,400.30843888972834,734.45,401.3750905743978,736.3,401.3750905743978C738.15,401.3750905743978,738.15,402.43458955825406,740,402.43458955825406" stroke="#1f77b4" fill="none"/><text font-family="sans-serif" font-size="10" class="labels" x="74" y="14.554086157852428" dx="0" dy="-4" text-anchor="middle"/></g></g></g><text y="4" x="4" style="font-family: Arial, sans-serif; font-size: 12px; fill: black; font-weight: bold; dominant-baseline: hanging;"/></g><g id="grid"><rect x="0" y="0" width="805" height="600" fill="none" stroke="#ccc"/></g></g></svg>