<svg xmlns="http://www.w3.org/2000/svg" width="805" height="600"><rect width="805" height="600" x="0" y="0" fill="#FFFFFF" id="backgorund"/><g id="viz"><clipPath id="serieClipPath"><rect x="-50" y="-10" width="805" height="600"/></clipPath><g transform="translate(0,0)"><g transform="translate(50,10)" clip-path="url(#serieClipPath)"><g id="axis"><g transform="translate(0,570)" fill="none" font-size="10" font-family="sans-serif" text-anchor="middle"><path class="domain" stroke="currentColor" d="M0.5,6V0.5H740.5V6"/><g class="tick" opacity="1" transform="translate(0.5,0)"><line stroke="currentColor" y2="6"/><text fill="currentColor" y="9" dy="0.71em">0</text></g><g class="tick" opacity="1" transform="translate(74.5,0)"><line stroke="currentColor" y2="6"/><text fill="currentColor" y="9" dy="0.71em">20</text></g><g class="tick" opacity="1" transform="translate(148.5,0)"><line stroke="currentColor" y2="6"/><text fill="currentColor" y="9" dy="0.71em">40</text></g><g class="tick" opacity="1" transform="translate(222.5,0)"><line stroke="currentColor" y2="6"/><text fill="currentColor" y="9" dy="0.71em">60</text></g><g class="tick" opacity="1" transform="translate(296.5,0)"><line stroke="currentColor" y2="6"/><text fill="currentColor" y="9" dy="0.71em">80</text></g><g class="tick" opacity="1" transform="translate(370.5,0)"><line stroke="currentColor" y2="6"/><text fill="currentColor" y="9" dy="0.71em">100</text></g><g class="tick" opacity="1" transform="translate(444.5,0)"><line stroke="currentColor" y2="6"/><text fill="currentColor" y="9" dy="0.71em">120</text></g><g class="tick" opacity="1" transform="translate(518.5,0)"><line stroke="currentColor" y2="6"/><text fill="currentColor" y="9" dy="0.71em">140</text></g><g class="tick" opacity="1" transform="translate(592.5,0)"><line stroke="currentColor" y2="6"/><text fill="currentColor" y="9" dy="0.71em">160</text></g><g class="tick" opacity="1" transform="translate(666.5,0)"><line stroke="currentColor" y2="6"/><text fill="currentColor" y="9" dy="0.71em">180</text></g><g class="tick" opacity="1" transform="translate(740.5,0)"><line stroke="currentColor" y2="6"/><text fill="currentColor" y="9" dy="0.71em">200</text></g><text x="740" dy="-5" text-anchor="end" style="font-family: Arial, sans-serif; font-size: 12px; fill: rgb(123, 123, 123); font-weight: bold;">Concurrency Level</text></g><g transform="translate(0,0)" fill="none" font-size="10" font-family="sans-serif" text-anchor="end"><path class="domain" stroke="currentColor" d="M0.5,570.5V0.5"/><g class="tick" opacity="1" transform="translate(0,570.5)"><line stroke="currentColor" x2="-6"/><text fill="currentColor" x="-9" dy="0.32em">300</text></g><g class="tick" opacity="1" transform="translate(0,499.25)"><line stroke="currentColor" x2="-6"/><text fill="currentColor" x="-9" dy="0.32em">400</text></g><g class="tick" opacity="1" transform="translate(0,428)"><line stroke="currentColor" x2="-6"/><text fill="currentColor" x="-9" dy="0.32em">500</text></g><g class="tick" opacity="1" transform="translate(0,356.75)"><line stroke="currentColor" x2="-6"/><text fill="currentColor" x="-9" dy="0.32em">600</text></g><g class="tick" opacity="1" transform="translate(0,285.5)"><line stroke="currentColor" x2="-6"/><text fill="currentColor" x="-9" dy="0.32em">700</text></g><g class="tick" opacity="1" transform="translate(0,214.25)"><line stroke="currentColor" x2="-6"/><text fill="currentColor" x="-9" dy="0.32em">800</text></g><g class="tick" opacity="1" transform="translate(0,143)"><line stroke="currentColor" x2="-6"/><text fill="currentColor" x="-9" dy="0.32em">900</text></g><g class="tick" opacity="1" transform="translate(0,71.75)"><line stroke="currentColor" x2="-6"/><text fill="currentColor" x="-9" dy="0.32em">1,000</text></g><g class="tick" opacity="1" transform="translate(0,0.5)"><line stroke="currentColor" x2="-6"/><text fill="currentColor" x="-9" dy="0.32em">1,100</text></g><text x="4" text-anchor="start" dominant-baseline="hanging" style="font-family: Arial, sans-serif; font-size: 12px; fill: rgb(123, 123, 123); font-weight: bold;">Throughput (rps)</text></g></g><g id="viz"><g><path d="M3.7,498.0272592450217C5.550000000000001,498.0272592450217,5.550000000000001,338.02639979301,7.4,338.02639979301C9.25,338.02639979301,9.25,238.3921396781007,11.1,238.3921396781007C12.95,238.3921396781007,12.95,172.2754840956223,14.8,172.2754840956223C16.65,172.2754840956223,16.65,126.62082227561142,18.5,126.62082227561142C20.35,126.62082227561142,20.35,94.32017112178966,22.2,94.32017112178966C24.05,94.32017112178966,24.05,71.17543252947289,25.900000000000002,71.17543252947289C27.75,71.17543252947289,27.75,54.549735299129445,29.6,54.549735299129445C31.45,54.549735299129445,31.45,42.705088559974946,33.3,42.705088559974946C35.15,42.705088559974946,35.15,34.45075170695474,37,34.45075170695474C38.85,34.45075170695474,38.85,28.94460556405797,40.7,28.94460556405797C42.55,28.94460556405797,42.55,25.575113463485863,44.4,25.575113463485863C46.25,25.575113463485863,46.25,23.88814609134388,48.1,23.88814609134388C49.95,23.88814609134388,49.95,23.539965710803333,51.800000000000004,23.539965710803333C53.650000000000006,23.539965710803333,53.650000000000006,24.266076224164333,55.5,24.266076224164333C57.35,24.266076224164333,57.35,25.86002796046998,59.2,25.86002796046998C61.050000000000004,25.86002796046998,61.050000000000004,28.158655567562334,62.900000000000006,28.158655567562334C64.75,28.158655567562334,64.75,31.03158250667285,66.6,31.03158250667285C68.44999999999999,31.03158250667285,68.44999999999999,34.37362107523456,70.3,34.37362107523456C72.15,34.37362107523456,72.15,38.099178196705886,74,38.099178196705886C75.85,38.099178196705886,75.85,42.138076446591214,77.7,42.138076446591214C79.55000000000001,42.138076446591214,79.55000000000001,46.432390379251345,81.4,46.432390379251345C83.25,46.432390379251345,83.25,50.93402230233618,85.10000000000001,50.93402230233618C86.95,50.93402230233618,86.95,55.60282404177705,88.8,55.60282404177705C90.65,55.60282404177705,90.65,60.405126950444306,92.5,60.405126950444306C94.35,60.405126950444306,94.35,65.31258070690035,96.2,65.31258070690035C98.05000000000001,65.31258070690035,98.05000000000001,70.30122817371402,99.9,70.30122817371402C101.75,70.30122817371402,101.75,75.35076249540975,103.60000000000001,75.35076249540975C105.45,75.35076249540975,105.45,80.44392617189965,107.3,80.44392617189965C109.15,80.44392617189965,109.15,85.56602167731246,111,85.56602167731246C112.85,85.56602167731246,112.85,90.70451040801333,114.7,90.70451040801333C116.55000000000001,90.70451040801333,116.55000000000001,95.84868209051055,118.4,95.84868209051055C120.25,95.84868209051055,120.25,100.98938078157006,122.10000000000001,100.98938078157006C123.95000000000002,100.98938078157006,123.95000000000002,106.1187766149615,125.80000000000001,106.1187766149615C127.65,106.1187766149615,127.65,111.23017475106109,129.5,111.23017475106109C131.35,111.23017475106109,131.35,116.3178547528004,133.2,116.3178547528004C135.05,116.3178547528004,135.05,121.3769349785558,136.9,121.3769349785558C138.75,121.3769349785558,138.75,126.40325764765136,140.6,126.40325764765136C142.45,126.40325764765136,142.45,131.39329106951268,144.3,131.39329106951268C146.15,131.39329106951268,146.15,136.34404618687756,148,136.34404618687756C149.85,136.34404618687756,149.85,141.25300510703966,151.7,141.25300510703966C153.55,141.25300510703966,153.55,146.1180597132518,155.4,146.1180597132518C157.25,146.1180597132518,157.25,150.93745878414154,159.1,150.93745878414154C160.95,150.93745878414154,160.95,155.7097623199736,162.8,155.7097623199736C164.65,155.7097623199736,164.65,160.43380199436015,166.5,160.43380199436015C168.35000000000002,160.43380199436015,168.35000000000002,165.10864682910932,170.20000000000002,165.10864682910932C172.05,165.10864682910932,172.05,169.73357333646956,173.89999999999998,169.73357333646956C175.75,169.73357333646956,175.75,174.30803949351656,177.6,174.30803949351656C179.45,174.30803949351656,179.45,178.83166201286235,181.29999999999998,178.83166201286235C183.14999999999998,178.83166201286235,183.14999999999998,183.30419645625338,185,183.30419645625338C186.85000000000002,183.30419645625338,186.85000000000002,187.7255198061348,188.70000000000002,187.7255198061348C190.55,187.7255198061348,190.55,192.09561516744432,192.4,192.09561516744432C194.25,192.09561516744432,194.25,196.41455831977794,196.10000000000002,196.41455831977794C197.95000000000002,196.41455831977794,197.95000000000002,200.68250588030406,199.8,200.68250588030406C201.65000000000003,200.68250588030406,201.65000000000003,204.89968487171282,203.50000000000003,204.89968487171282C205.35000000000002,204.89968487171282,205.35000000000002,209.06638351814865,207.20000000000002,209.06638351814865C209.05,209.06638351814865,209.05,213.18294311637717,210.89999999999998,213.18294311637717C212.75,213.18294311637717,212.75,217.24975085010453,214.6,217.24975085010453C216.45,217.24975085010453,216.45,221.267233432971,218.29999999999998,221.267233432971C220.14999999999998,221.267233432971,220.14999999999998,225.23585148080335,222,225.23585148080335C223.85,225.23585148080335,223.85,229.15609452660135,225.7,229.15609452660135C227.55,229.15609452660135,227.55,233.02847660281202,229.4,233.02847660281202C231.25,233.02847660281202,231.25,236.853532324984,233.1,236.853532324984C234.95,236.853532324984,234.95,240.63181341911115,236.8,240.63181341911115C238.65,240.63181341911115,238.65,244.3638856420973,240.5,244.3638856420973C242.35000000000002,244.3638856420973,242.35000000000002,248.05032605092458,244.20000000000002,248.05032605092458C246.05,248.05032605092458,246.05,251.69172058146455,247.9,251.69172058146455C249.75,251.69172058146455,249.75,255.2886619025173,251.60000000000002,255.2886619025173C253.45,255.2886619025173,253.45,258.8417475147184,255.29999999999998,258.8417475147184C257.15,258.8417475147184,257.15,262.3515780674932,259,262.3515780674932C260.85,262.3515780674932,260.85,265.81875587032835,262.7,265.81875587032835C264.54999999999995,265.81875587032835,264.54999999999995,269.24388357734347,266.4,269.24388357734347C268.25,269.24388357734347,268.25,272.627563026519,270.09999999999997,272.627563026519C271.95,272.627563026519,271.95,275.970394217029,273.8,275.970394217029C275.65,275.970394217029,275.65,279.2729744099609,277.5,279.2729744099609C279.35,279.2729744099609,279.35,282.53589733932915,281.2,282.53589733932915C283.05,282.53589733932915,283.05,285.75975252171247,284.90000000000003,285.75975252171247C286.75,285.75975252171247,286.75,288.9451246541138,288.6,288.9451246541138C290.45000000000005,288.9451246541138,290.45000000000005,292.09259309075424,292.3,292.09259309075424C294.15,292.09259309075424,294.15,295.20273139050494,296,295.20273139050494C297.85,295.20273139050494,297.85,298.27610692753996,299.70000000000005,298.27610692753996C301.55,298.27610692753996,301.55,301.31328055856864,303.4,301.31328055856864C305.25,301.31328055856864,305.25,304.3148063407042,307.09999999999997,304.3148063407042C308.95,304.3148063407042,308.95,307.28123129464075,310.8,307.28123129464075C312.65,307.28123129464075,312.65,310.2130952083566,314.5,310.2130952083566C316.35,310.2130952083566,316.35,313.11093047706146,318.2,313.11093047706146C320.04999999999995,313.11093047706146,320.04999999999995,315.9752619755325,321.9,315.9752619755325C323.75,315.9752619755325,323.75,318.8066069593807,325.6,318.8066069593807C327.45000000000005,318.8066069593807,327.45000000000005,321.60547499214147,329.3,321.60547499214147C331.15,321.60547499214147,331.15,324.37236789539037,333,324.37236789539037C334.85,324.37236789539037,334.85,327.10777971936875,336.7,327.10777971936875C338.55,327.10777971936875,338.55,329.81219673185785,340.40000000000003,329.81219673185785C342.25,329.81219673185785,342.25,332.4860974232613,344.1,332.4860974232613C345.95,332.4860974232613,345.95,335.12995252606254,347.79999999999995,335.12995252606254C349.65,335.12995252606254,349.65,337.744225047003,351.5,337.744225047003C353.35,337.744225047003,353.35,340.3293703104943,355.2,340.3293703104943C357.04999999999995,340.3293703104943,357.04999999999995,342.88583601192016,358.9,342.88583601192016C360.75,342.88583601192016,360.75,345.41406227962335,362.59999999999997,345.41406227962335C364.45,345.41406227962335,364.45,347.9144817444861,366.3,347.9144817444861C368.15,347.9144817444861,368.15,350.3875196161234,370,350.3875196161234C371.85,350.3875196161234,371.85,352.83359376480684,373.7,352.83359376480684C375.55,352.83359376480684,375.55,355.2531148083235,377.40000000000003,355.2531148083235C379.25,355.2531148083235,379.25,357.6464862030512,381.1,357.6464862030512C382.95000000000005,357.6464862030512,382.95000000000005,360.01410433860735,384.8,360.01410433860735C386.65,360.01410433860735,386.65,362.3563586354917,388.5,362.3563586354917C390.35,362.3563586354917,390.35,364.6736316451987,392.20000000000005,364.6736316451987C394.05000000000007,364.6736316451987,394.05000000000007,366.96629915233393,395.90000000000003,366.96629915233393C397.75,366.96629915233393,397.75,369.2347302783123,399.6,369.2347302783123C401.45000000000005,369.2347302783123,401.45000000000005,371.479287586259,403.3,371.479287586259C405.15000000000003,371.479287586259,405.15000000000003,373.7003271867789,407.00000000000006,373.7003271867789C408.85,373.7003271867789,408.85,375.89819884428675,410.70000000000005,375.89819884428675C412.55000000000007,375.89819884428675,412.55000000000007,378.0732460836303,414.40000000000003,378.0732460836303C416.25,378.0732460836303,416.25,380.22580629676384,418.09999999999997,380.22580629676384C419.94999999999993,380.22580629676384,419.94999999999993,382.3562108492573,421.79999999999995,382.3562108492573C423.65,382.3562108492573,423.65,384.46478518644716,425.49999999999994,384.46478518644716C427.34999999999997,384.46478518644716,427.34999999999997,386.55184893906267,429.2,386.55184893906267C431.04999999999995,386.55184893906267,431.04999999999995,388.6177160281729,432.9,388.6177160281729C434.75,388.6177160281729,434.75,390.6626947693251,436.59999999999997,390.6626947693251C438.44999999999993,390.6626947693251,438.44999999999993,392.6870879757567,440.29999999999995,392.6870879757567C442.15,392.6870879757567,442.15,394.69119306057655,444,394.69119306057655C445.85,394.69119306057655,445.85,396.67530213782953,447.7,396.67530213782953C449.54999999999995,396.67530213782953,449.54999999999995,398.6397021223656,451.4,398.6397021223656C453.25,398.6397021223656,453.25,400.5846748284453,455.09999999999997,400.5846748284453C456.95,400.5846748284453,456.95,402.5104970670285,458.8,402.5104970670285C460.65,402.5104970670285,460.65,404.4174407416943,462.5,404.4174407416943C464.35,404.4174407416943,464.35,406.3057729431545,466.2,406.3057729431545C468.05,406.3057729431545,468.05,408.1757560423271,469.90000000000003,408.1757560423271C471.75,408.1757560423271,471.75,410.02764778194165,473.6,410.02764778194165C475.45000000000005,410.02764778194165,475.45000000000005,411.8617013666581,477.3,411.8617013666581C479.15,411.8617013666581,479.15,413.6781655516815,481,413.6781655516815C482.85,413.6781655516815,482.85,415.47728472986284,484.70000000000005,415.47728472986284C486.55000000000007,415.47728472986284,486.55000000000007,417.2592990172778,488.40000000000003,417.2592990172778C490.25,417.2592990172778,490.25,419.02444433728294,492.1,419.02444433728294C493.95000000000005,419.02444433728294,493.95000000000005,420.77295250304684,495.8,420.77295250304684C497.65000000000003,420.77295250304684,497.65000000000003,422.50505129856197,499.50000000000006,422.50505129856197C501.35,422.50505129856197,501.35,424.22096455814165,503.20000000000005,424.22096455814165C505.05000000000007,424.22096455814165,505.05000000000007,425.9209122444116,506.90000000000003,425.9209122444116C508.75,425.9209122444116,508.75,427.60511052480683,510.59999999999997,427.60511052480683C512.4499999999999,427.60511052480683,512.4499999999999,429.2737718465851,514.3,429.2737718465851C516.15,429.2737718465851,516.15,430.92710501037214,518,430.92710501037214C519.8499999999999,430.92710501037214,519.8499999999999,432.5653152422546,521.6999999999999,432.5653152422546C523.55,432.5653152422546,523.55,434.18860426443507,525.4,434.18860426443507C527.25,434.18860426443507,527.25,435.79717036447084,529.1,435.79717036447084C530.95,435.79717036447084,530.95,437.39120846311147,532.8,437.39120846311147C534.65,437.39120846311147,534.65,438.97091018075747,536.5,438.97091018075747C538.3499999999999,438.97091018075747,538.3499999999999,440.5364639025589,540.1999999999999,440.5364639025589C542.05,440.5364639025589,542.05,442.08805484217567,543.9,442.08805484217567C545.75,442.08805484217567,545.75,443.6258651042202,547.6,443.6258651042202C549.45,443.6258651042202,549.45,445.1500737454043,551.3,445.1500737454043C553.15,445.1500737454043,553.15,446.6608568344123,555,446.6608568344123C556.85,446.6608568344123,556.85,448.15838751052377,558.7,448.15838751052377C560.55,448.15838751052377,560.55,449.6428360410047,562.4,449.6428360410047C564.25,449.6428360410047,564.25,451.11436987729485,566.1,451.11436987729485C567.95,451.11436987729485,567.95,452.57315371000817,569.8000000000001,452.57315371000817C571.6500000000001,452.57315371000817,571.6500000000001,454.0193495227734,573.5,454.0193495227734C575.35,454.0193495227734,575.35,455.45311664493397,577.2,455.45311664493397C579.05,455.45311664493397,579.05,456.8746118031309,580.9,456.8746118031309C582.75,456.8746118031309,582.75,458.283989171791,584.6,458.283989171791C586.45,458.283989171791,586.45,459.68140042254174,588.3000000000001,459.68140042254174C590.1500000000001,459.68140042254174,590.1500000000001,461.06699477257456,592,461.06699477257456C593.85,461.06699477257456,593.85,462.44091903197875,595.7,462.44091903197875C597.5500000000001,462.44091903197875,597.5500000000001,463.8033176500668,599.4000000000001,463.8033176500668C601.25,463.8033176500668,601.25,465.15433276071195,603.0999999999999,465.15433276071195C604.9499999999999,465.15433276071195,604.9499999999999,466.4941042267198,606.8,466.4941042267198C608.65,466.4941042267198,608.65,467.8227696832531,610.5,467.8227696832531C612.3499999999999,467.8227696832531,612.3499999999999,469.1404645803313,614.1999999999999,469.1404645803313C616.05,469.1404645803313,616.05,470.44732222442326,617.9,470.44732222442326C619.75,470.44732222442326,619.75,471.7434738191543,621.6,471.7434738191543C623.45,471.7434738191543,623.45,473.0290485051458,625.3,473.0290485051458C627.15,473.0290485051458,627.15,474.3041733990061,629,474.3041733990061C630.8499999999999,474.3041733990061,630.8499999999999,475.56897363149255,632.6999999999999,475.56897363149255C634.55,475.56897363149255,634.55,476.82357238486117,636.4,476.82357238486117C638.25,476.82357238486117,638.25,478.0680909294239,640.1,478.0680909294239C641.95,478.0680909294239,641.95,479.3026486593287,643.8,479.3026486593287C645.65,479.3026486593287,645.65,480.5273631275825,647.5,480.5273631275825C649.35,480.5273631275825,649.35,481.74235008033065,651.2,481.74235008033065C653.05,481.74235008033065,653.05,482.9477234904126,654.9,482.9477234904126C656.75,482.9477234904126,656.75,484.1435955902083,658.6,484.1435955902083C660.45,484.1435955902083,660.45,485.330076903791,662.3000000000001,485.330076903791C664.1500000000001,485.330076903791,664.1500000000001,486.5072762784024,666,486.5072762784024C667.85,486.5072762784024,667.85,487.6753009152675,669.7,487.6753009152675C671.55,487.6753009152675,671.55,488.8342563997594,673.4,488.8342563997594C675.25,488.8342563997594,675.25,489.98424673093325,677.1,489.98424673093325C678.95,489.98424673093325,678.95,491.12537435044106,680.8000000000001,491.12537435044106C682.6500000000001,491.12537435044106,682.6500000000001,492.25774017084234,684.5,492.25774017084234C686.35,492.25774017084234,686.35,493.3814436033237,688.2,493.3814436033237C690.0500000000001,493.3814436033237,690.0500000000001,494.4965825848408,691.9000000000001,494.4965825848408C693.75,494.4965825848408,693.75,495.6032536046967,695.5999999999999,495.6032536046967C697.4499999999999,495.6032536046967,697.4499999999999,496.7015517305676,699.3,496.7015517305676C701.15,496.7015517305676,701.15,497.79157063399026,703,497.79157063399026C704.8499999999999,497.79157063399026,704.8499999999999,498.87340261532216,706.6999999999999,498.87340261532216C708.55,498.87340261532216,708.55,499.9471386281861,710.4,499.9471386281861C712.25,499.9471386281861,712.25,501.0128683034127,714.1,501.0128683034127C715.95,501.0128683034127,715.95,502.0706799724897,717.8,502.0706799724897C719.65,502.0706799724897,719.65,503.1206606905309,721.5,503.1206606905309C723.3499999999999,503.1206606905309,723.3499999999999,504.162896258775,725.1999999999999,504.162896258775C727.05,504.162896258775,727.05,505.197471246625,728.9,505.197471246625C730.75,505.197471246625,730.75,506.22446901323866,732.6,506.22446901323866C734.45,506.22446901323866,734.45,507.2439717286797,736.3,507.2439717286797C738.15,507.2439717286797,738.15,508.25606039464026,740,508.25606039464026" stroke="#1f77b4" fill="none"/><text font-family="sans-serif" font-size="10" class="labels" x="51.800000000000004" y="23.539965710803333" dx="0" dy="-4" text-anchor="middle"/></g></g></g><text y="4" x="4" style="font-family: Arial, sans-serif; font-size: 12px; fill: black; font-weight: bold; dominant-baseline: hanging;"/></g><g id="grid"><rect x="0" y="0" width="805" height="600" fill="none" stroke="#ccc"/></g></g></svg>