<svg xmlns="http://www.w3.org/2000/svg" width="805" height="600"><rect width="805" height="600" x="0" y="0" fill="#FFFFFF" id="backgorund"/><g id="viz"><clipPath id="serieClipPath"><rect x="-50" y="-10" width="805" height="600"/></clipPath><g transform="translate(0,0)"><g transform="translate(50,10)" clip-path="url(#serieClipPath)"><g id="axis"><g transform="translate(0,570)" fill="none" font-size="10" font-family="sans-serif" text-anchor="middle"><path class="domain" stroke="currentColor" d="M0.5,6V0.5H740.5V6"/><g class="tick" opacity="1" transform="translate(0.5,0)"><line stroke="currentColor" y2="6"/><text fill="currentColor" y="9" dy="0.71em">0</text></g><g class="tick" opacity="1" transform="translate(74.5,0)"><line stroke="currentColor" y2="6"/><text fill="currentColor" y="9" dy="0.71em">20</text></g><g class="tick" opacity="1" transform="translate(148.5,0)"><line stroke="currentColor" y2="6"/><text fill="currentColor" y="9" dy="0.71em">40</text></g><g class="tick" opacity="1" transform="translate(222.5,0)"><line stroke="currentColor" y2="6"/><text fill="currentColor" y="9" dy="0.71em">60</text></g><g class="tick" opacity="1" transform="translate(296.5,0)"><line stroke="currentColor" y2="6"/><text fill="currentColor" y="9" dy="0.71em">80</text></g><g class="tick" opacity="1" transform="translate(370.5,0)"><line stroke="currentColor" y2="6"/><text fill="currentColor" y="9" dy="0.71em">100</text></g><g class="tick" opacity="1" transform="translate(444.5,0)"><line stroke="currentColor" y2="6"/><text fill="currentColor" y="9" dy="0.71em">120</text></g><g class="tick" opacity="1" transform="translate(518.5,0)"><line stroke="currentColor" y2="6"/><text fill="currentColor" y="9" dy="0.71em">140</text></g><g class="tick" opacity="1" transform="translate(592.5,0)"><line stroke="currentColor" y2="6"/><text fill="currentColor" y="9" dy="0.71em">160</text></g><g class="tick" opacity="1" transform="translate(666.5,0)"><line stroke="currentColor" y2="6"/><text fill="currentColor" y="9" dy="0.71em">180</text></g><g class="tick" opacity="1" transform="translate(740.5,0)"><line stroke="currentColor" y2="6"/><text fill="currentColor" y="9" dy="0.71em">200</text></g><text x="740" dy="-5" text-anchor="end" style="font-family: Arial, sans-serif; font-size: 12px; fill: rgb(123, 123, 123); font-weight: bold;">Concurrency Level</text></g><g transform="translate(0,0)" fill="none" font-size="10" font-family="sans-serif" text-anchor="end"><path class="domain" stroke="currentColor" d="M0.5,570.5V0.5"/><g class="tick" opacity="1" transform="translate(0,570.5)"><line stroke="currentColor" x2="-6"/><text fill="currentColor" x="-9" dy="0.32em">100</text></g><g class="tick" opacity="1" transform="translate(0,507.16666666666663)"><line stroke="currentColor" x2="-6"/><text fill="currentColor" x="-9" dy="0.32em">150</text></g><g class="tick" opacity="1" transform="translate(0,443.8333333333333)"><line stroke="currentColor" x2="-6"/><text fill="currentColor" x="-9" dy="0.32em">200</text></g><g class="tick" opacity="1" transform="translate(0,380.50000000000006)"><line stroke="currentColor" x2="-6"/><text fill="currentColor" x="-9" dy="0.32em">250</text></g><g class="tick" opacity="1" transform="translate(0,317.1666666666667)"><line stroke="currentColor" x2="-6"/><text fill="currentColor" x="-9" dy="0.32em">300</text></g><g class="tick" opacity="1" transform="translate(0,253.83333333333331)"><line stroke="currentColor" x2="-6"/><text fill="currentColor" x="-9" dy="0.32em">350</text></g><g class="tick" opacity="1" transform="translate(0,190.50000000000003)"><line stroke="currentColor" x2="-6"/><text fill="currentColor" x="-9" dy="0.32em">400</text></g><g class="tick" opacity="1" transform="translate(0,127.16666666666666)"><line stroke="currentColor" x2="-6"/><text fill="currentColor" x="-9" dy="0.32em">450</text></g><g class="tick" opacity="1" transform="translate(0,63.833333333333364)"><line stroke="currentColor" x2="-6"/><text fill="currentColor" x="-9" dy="0.32em">500</text></g><g class="tick" opacity="1" transform="translate(0,0.5)"><line stroke="currentColor" x2="-6"/><text fill="currentColor" x="-9" dy="0.32em">550</text></g><text x="4" text-anchor="start" dominant-baseline="hanging" style="font-family: Arial, sans-serif; font-size: 12px; fill: rgb(123, 123, 123); font-weight: bold;">Throughput (rps)</text></g></g><g id="viz"><g><path d="M3.7,511.96174719828986C5.550000000000001,511.96174719828986,5.550000000000001,390.06840055262705,7.4,390.06840055262705C9.25,390.06840055262705,9.25,304.80363911073863,11.1,304.80363911073863C12.95,304.80363911073863,12.95,242.72307593725205,14.8,242.72307593725205C16.65,242.72307593725205,16.65,196.2156517728498,18.5,196.2156517728498C20.35,196.2156517728498,20.35,160.65073725841273,22.2,160.65073725841273C24.05,160.65073725841273,24.05,133.050305366739,25.900000000000002,133.050305366739C27.75,133.050305366739,27.75,111.41285578035215,29.6,111.41285578035215C31.45,111.41285578035215,31.45,94.34409363014113,33.3,94.34409363014113C35.15,94.34409363014113,35.15,80.84340105544644,37,80.84340105544644C38.85,80.84340105544644,38.85,70.17446792964657,40.7,70.17446792964657C42.55,70.17446792964657,42.55,61.78377029839495,44.4,61.78377029839495C46.25,61.78377029839495,46.25,55.247450553043016,48.1,55.247450553043016C49.95,55.247450553043016,49.95,50.23568977780888,51.800000000000004,50.23568977780888C53.650000000000006,50.23568977780888,53.650000000000006,46.48820268751304,55.5,46.48820268751304C57.35,46.48820268751304,57.35,43.7970051937717,59.2,43.7970051937717C61.050000000000004,43.7970051937717,61.050000000000004,41.99405581968551,62.900000000000006,41.99405581968551C64.75,41.99405581968551,64.75,40.942235684057344,66.6,40.942235684057344C68.44999999999999,40.942235684057344,68.44999999999999,40.528660644491836,70.3,40.528660644491836C72.15,40.528660644491836,72.15,40.659651565026266,74,40.659651565026266C75.85,40.659651565026266,75.85,41.25690245697221,77.7,41.25690245697221C79.55000000000001,41.25690245697221,79.55000000000001,42.25452665448697,81.4,42.25452665448697C83.25,42.25452665448697,83.25,43.59675517964246,85.10000000000001,43.59675517964246C86.95,43.59675517964246,86.95,45.23612547223869,88.8,45.23612547223869C90.65,45.23612547223869,90.65,47.132042963571664,92.5,47.132042963571664C94.35,47.132042963571664,94.35,49.24962908430178,96.2,49.24962908430178C98.05000000000001,49.24962908430178,98.05000000000001,51.558791439774524,99.9,51.558791439774524C101.75,51.558791439774524,101.75,54.033467844583214,103.60000000000001,54.033467844583214C105.45,54.033467844583214,105.45,56.65100754339552,107.3,56.65100754339552C109.15,56.65100754339552,109.15,59.39166152030546,111,59.39166152030546C112.85,59.39166152030546,112.85,62.23816018298797,114.7,62.23816018298797C116.55000000000001,62.23816018298797,116.55000000000001,65.17536150560743,118.4,65.17536150560743C120.25,65.17536150560743,120.25,68.18995635199174,122.10000000000001,68.18995635199174C123.95000000000002,68.18995635199174,123.95000000000002,71.27022048149746,125.80000000000001,71.27022048149746C127.65,71.27022048149746,127.65,74.40580488270261,129.5,74.40580488270261C131.35,74.40580488270261,131.35,77.5875577432307,133.2,77.5875577432307C135.05,77.5875577432307,135.05,80.80737266396467,136.9,80.80737266396467C138.75,80.80737266396467,138.75,84.05805874869087,140.6,84.05805874869087C142.45,84.05805874869087,142.45,87.33322900995134,144.3,87.33322900995134C146.15,87.33322900995134,146.15,90.62720417674079,148,90.62720417674079C149.85,90.62720417674079,149.85,93.93492950615855,151.7,93.93492950615855C153.55,93.93492950615855,153.55,97.25190261696756,155.4,97.25190261696756C157.25,97.25190261696756,157.25,100.5741106995428,159.1,100.5741106995428C160.95,100.5741106995428,160.95,103.89797573037477,162.8,103.89797573037477C164.65,103.89797573037477,164.65,107.22030654288409,166.5,107.22030654288409C168.35000000000002,107.22030654288409,168.35000000000002,110.53825678978234,170.20000000000002,110.53825678978234C172.05,110.53825678978234,172.05,113.84928798342695,173.89999999999998,113.84928798342695C175.75,113.84928798342695,175.75,117.15113692572908,177.6,117.15113692572908C179.45,117.15113692572908,179.45,120.4417869430981,181.29999999999998,120.4417869430981C183.14999999999998,120.4417869430981,183.14999999999998,123.71944242855795,185,123.71944242855795C186.85000000000002,123.71944242855795,186.85000000000002,126.9825062656686,188.70000000000002,126.9825062656686C190.55,126.9825062656686,190.55,130.22955976975712,192.4,130.22955976975712C194.25,130.22955976975712,194.25,133.45934483323924,196.10000000000002,133.45934483323924C197.95000000000002,133.45934483323924,197.95000000000002,136.6707480051435,199.8,136.6707480051435C201.65000000000003,136.6707480051435,201.65000000000003,139.86278627167263,203.50000000000003,139.86278627167263C205.35000000000002,139.86278627167263,205.35000000000002,143.0345943358658,207.20000000000002,143.0345943358658C209.05,143.0345943358658,209.05,146.1854132210337,210.89999999999998,146.1854132210337C212.75,146.1854132210337,212.75,149.31458004539988,214.6,149.31458004539988C216.45,149.31458004539988,216.45,152.42151883487784,218.29999999999998,152.42151883487784C220.14999999999998,152.42151883487784,220.14999999999998,155.50573225767036,222,155.50573225767036C223.85,155.50573225767036,223.85,158.5667941788144,225.7,158.5667941788144C227.55,158.5667941788144,227.55,161.60434294525498,229.4,161.60434294525498C231.25,161.60434294525498,231.25,164.61807532281546,233.1,164.61807532281546C234.95,164.61807532281546,234.95,167.60774101578826,236.8,167.60774101578826C238.65,167.60774101578826,238.65,170.57313770799607,240.5,170.57313770799607C242.35000000000002,170.57313770799607,242.35000000000002,173.51410657125638,244.20000000000002,173.51410657125638C246.05,173.51410657125638,246.05,176.43052819336236,247.9,176.43052819336236C249.75,176.43052819336236,249.75,179.32231888309443,251.60000000000002,179.32231888309443C253.45,179.32231888309443,253.45,182.18942731451105,255.29999999999998,182.18942731451105C257.15,182.18942731451105,257.15,185.03183147692266,259,185.03183147692266C260.85,185.03183147692266,260.85,187.84953590060465,262.7,187.84953590060465C264.54999999999995,187.84953590060465,264.54999999999995,190.64256913152084,266.4,190.64256913152084C268.25,190.64256913152084,268.25,193.41098143116977,270.09999999999997,193.41098143116977C271.95,193.41098143116977,271.95,196.15484268017022,273.8,196.15484268017022C275.65,196.15484268017022,275.65,198.87424046642528,277.5,198.87424046642528C279.35,198.87424046642528,279.35,201.56927834066678,281.2,201.56927834066678C283.05,201.56927834066678,283.05,204.24007422393288,284.90000000000003,204.24007422393288C286.75,204.24007422393288,286.75,206.8867589530791,288.6,206.8867589530791C290.45000000000005,206.8867589530791,290.45000000000005,209.50947495180858,292.3,209.50947495180858C294.15,209.50947495180858,294.15,212.10837501593446,296,212.10837501593446C297.85,212.10837501593446,297.85,214.68362120269356,299.70000000000005,214.68362120269356C301.55,214.68362120269356,301.55,217.23538381490303,303.4,217.23538381490303C305.25,217.23538381490303,305.25,219.76384047164134,307.09999999999997,219.76384047164134C308.95,219.76384047164134,308.95,222.26917525791325,310.8,222.26917525791325C312.65,222.26917525791325,312.65,224.75157794647248,314.5,224.75157794647248C316.35,224.75157794647248,316.35,227.21124328560444,318.2,227.21124328560444C320.04999999999995,227.21124328560444,320.04999999999995,229.648370347246,321.9,229.648370347246C323.75,229.648370347246,323.75,232.06316193032873,325.6,232.06316193032873C327.45000000000005,232.06316193032873,327.45000000000005,234.45582401469767,329.3,234.45582401469767C331.15,234.45582401469767,331.15,236.82656526137475,333,236.82656526137475C334.85,236.82656526137475,334.85,239.1755965553086,336.7,239.1755965553086C338.55,239.1755965553086,338.55,241.50313058709824,340.40000000000003,241.50313058709824C342.25,241.50313058709824,342.25,243.80938147048204,344.1,243.80938147048204C345.95,243.80938147048204,345.95,246.09456439266415,347.79999999999995,246.09456439266415C349.65,246.09456439266415,349.65,248.35889529480139,351.5,248.35889529480139C353.35,248.35889529480139,353.35,250.60259058020588,355.2,250.60259058020588C357.04999999999995,250.60259058020588,357.04999999999995,252.82586684802072,358.9,252.82586684802072C360.75,252.82586684802072,360.75,255.0289406503236,362.59999999999997,255.0289406503236C364.45,255.0289406503236,364.45,257.21202827077605,366.3,257.21202827077605C368.15,257.21202827077605,368.15,259.3753455230995,370,259.3753455230995C371.85,259.3753455230995,371.85,261.519107567797,373.7,261.519107567797C375.55,261.519107567797,375.55,263.6435287456727,377.40000000000003,263.6435287456727C379.25,263.6435287456727,379.25,265.74882242681633,381.1,265.74882242681633C382.95000000000005,265.74882242681633,382.95000000000005,267.83520087383215,384.8,267.83520087383215C386.65,267.83520087383215,386.65,269.90287511818536,388.5,269.90287511818536C390.35,269.90287511818536,390.35,271.95205484863357,392.20000000000005,271.95205484863357C394.05000000000007,271.95205484863357,394.05000000000007,273.98294831079295,395.90000000000003,273.98294831079295C397.75,273.98294831079295,397.75,275.99576221696077,399.6,275.99576221696077C401.45000000000005,275.99576221696077,401.45000000000005,277.99070166538854,403.3,277.99070166538854C405.15000000000003,277.99070166538854,405.15000000000003,279.9679700682648,407.00000000000006,279.9679700682648C408.85,279.9679700682648,408.85,281.9277690877185,410.70000000000005,281.9277690877185C412.55000000000007,281.9277690877185,412.55000000000007,283.8702985792145,414.40000000000003,283.8702985792145C416.25,283.8702985792145,416.25,285.7957565417568,418.09999999999997,285.7957565417568C419.94999999999993,285.7957565417568,419.94999999999993,287.7043390743621,421.79999999999995,287.7043390743621C423.65,287.7043390743621,423.65,289.59624033830823,425.49999999999994,289.59624033830823C427.34999999999997,289.59624033830823,427.34999999999997,291.47165252469705,429.2,291.47165252469705C431.04999999999995,291.47165252469705,431.04999999999995,293.33076582691024,432.9,293.33076582691024C434.75,293.33076582691024,434.75,295.1737684175671,436.59999999999997,295.1737684175671C438.44999999999993,295.1737684175671,438.44999999999993,297.0008464296199,440.29999999999995,297.0008464296199C442.15,297.0008464296199,442.15,298.81218394125693,444,298.81218394125693C445.85,298.81218394125693,445.85,300.6079629643003,447.7,300.6079629643003C449.54999999999995,300.6079629643003,449.54999999999995,302.38836343581545,451.4,302.38836343581545C453.25,302.38836343581545,453.25,304.15356321266637,455.09999999999997,304.15356321266637C456.95,304.15356321266637,456.95,305.90373806877267,458.8,305.90373806877267C460.65,305.90373806877267,460.65,307.63906169484295,462.5,307.63906169484295C464.35,307.63906169484295,464.35,309.35970570037256,466.2,309.35970570037256C468.05,309.35970570037256,468.05,311.06583961771554,469.90000000000003,311.06583961771554C471.75,311.06583961771554,471.75,312.7576309080476,473.6,312.7576309080476C475.45000000000005,312.7576309080476,475.45000000000005,314.4352449690571,477.3,314.4352449690571C479.15,314.4352449690571,479.15,316.0988451442089,481,316.0988451442089C482.85,316.0988451442089,482.85,317.7485927334373,484.70000000000005,317.7485927334373C486.55000000000007,317.7485927334373,486.55000000000007,319.3846470051405,488.40000000000003,319.3846470051405C490.25,319.3846470051405,490.25,321.0071652093493,492.1,321.0071652093493C493.95000000000005,321.0071652093493,493.95000000000005,322.6163025919616,495.8,322.6163025919616C497.65000000000003,322.6163025919616,497.65000000000003,324.21221240993447,499.50000000000006,324.21221240993447C501.35,324.21221240993447,501.35,325.79504594734107,503.20000000000005,325.79504594734107C505.05000000000007,325.79504594734107,505.05000000000007,327.3649525321984,506.90000000000003,327.3649525321984C508.75,327.3649525321984,508.75,328.9220795539866,510.59999999999997,328.9220795539866C512.4499999999999,328.9220795539866,512.4499999999999,330.46657248178064,514.3,330.46657248178064C516.15,330.46657248178064,516.15,331.99857488292577,518,331.99857488292577C519.8499999999999,331.99857488292577,519.8499999999999,333.5182284421893,521.6999999999999,333.5182284421893C523.55,333.5182284421893,523.55,335.02567298132783,525.4,335.02567298132783C527.25,335.02567298132783,527.25,336.52104647901655,529.1,336.52104647901655C530.95,336.52104647901655,530.95,338.0044850910859,532.8,338.0044850910859C534.65,338.0044850910859,534.65,339.47612317101874,536.5,339.47612317101874C538.3499999999999,339.47612317101874,538.3499999999999,340.93609329066516,540.1999999999999,340.93609329066516C542.05,340.93609329066516,542.05,342.38452626113184,543.9,342.38452626113184C545.75,342.38452626113184,545.75,343.82155115381124,547.6,343.82155115381124C549.45,343.82155115381124,549.45,345.2472953215133,551.3,345.2472953215133C553.15,345.2472953215133,553.15,346.6618844196694,555,346.6618844196694C556.85,346.6618844196694,556.85,348.0654424275792,558.7,348.0654424275792C560.55,348.0654424275792,560.55,349.4580916696731,562.4,349.4580916696731C564.25,349.4580916696731,564.25,350.8399528367654,566.1,350.8399528367654C567.95,350.8399528367654,567.95,352.21114500727555,569.8000000000001,352.21114500727555C571.6500000000001,352.21114500727555,571.6500000000001,353.5717856683975,573.5,353.5717856683975C575.35,353.5717856683975,575.35,354.9219907371972,577.2,354.9219907371972C579.05,354.9219907371972,579.05,356.26187458162013,580.9,356.26187458162013C582.75,356.26187458162013,582.75,357.59155004139546,584.6,357.59155004139546C586.45,357.59155004139546,586.45,358.91112844882025,588.3000000000001,358.91112844882025C590.1500000000001,358.91112844882025,590.1500000000001,360.2207196494104,592,360.2207196494104C593.85,360.2207196494104,593.85,361.52043202240867,595.7,361.52043202240867C597.5500000000001,361.52043202240867,597.5500000000001,362.81037250113627,599.4000000000001,362.81037250113627C601.25,362.81037250113627,601.25,364.09064659318005,603.0999999999999,364.09064659318005C604.9499999999999,364.09064659318005,604.9499999999999,365.3613584004053,606.8,365.3613584004053C608.65,365.3613584004053,608.65,366.6226106387885,610.5,366.6226106387885C612.3499999999999,366.6226106387885,612.3499999999999,367.8745046580595,614.1999999999999,367.8745046580595C616.05,367.8745046580595,616.05,369.1171404611504,617.9,369.1171404611504C619.75,369.1171404611504,619.75,370.350616723443,621.6,370.350616723443C623.45,370.350616723443,623.45,371.57503081181164,625.3,371.57503081181164C627.15,371.57503081181164,627.15,372.7904788034569,629,372.7904788034569C630.8499999999999,372.7904788034569,630.8499999999999,373.9970555045247,632.6999999999999,373.9970555045247C634.55,373.9970555045247,634.55,375.1948544685119,636.4,375.1948544685119C638.25,375.1948544685119,638.25,376.3839680144497,640.1,376.3839680144497C641.95,376.3839680144497,641.95,377.56448724486944,643.8,377.56448724486944C645.65,377.56448724486944,645.65,378.7365020635429,647.5,378.7365020635429C649.35,378.7365020635429,649.35,379.90010119300064,651.2,379.90010119300064C653.05,379.90010119300064,653.05,381.0553721918235,654.9,381.0553721918235C656.75,381.0553721918235,656.75,382.20240147171023,658.6,382.20240147171023C660.45,382.20240147171023,660.45,383.3412743143173,662.3000000000001,383.3412743143173C664.1500000000001,383.3412743143173,664.1500000000001,384.4720748878738,666,384.4720748878738C667.85,384.4720748878738,667.85,385.59488626357034,669.7,385.59488626357034C671.55,385.59488626357034,671.55,386.70979043172116,673.4,386.70979043172116C675.25,386.70979043172116,675.25,387.81686831770327,677.1,387.81686831770327C678.95,387.81686831770327,678.95,388.91619979766995,680.8000000000001,388.91619979766995C682.6500000000001,388.91619979766995,682.6500000000001,390.0078637140427,684.5,390.0078637140427C686.35,390.0078637140427,686.35,391.09193789077983,688.2,391.09193789077983C690.0500000000001,391.09193789077983,690.0500000000001,392.168499148426,691.9000000000001,392.168499148426C693.75,392.168499148426,693.75,393.23762331894227,695.5999999999999,393.23762331894227C697.4499999999999,393.23762331894227,697.4499999999999,394.2993852603188,699.3,394.2993852603188C701.15,394.2993852603188,701.15,395.3538588709717,703,395.3538588709717C704.8499999999999,395.3538588709717,704.8499999999999,396.4011171039269,706.6999999999999,396.4011171039269C708.55,396.4011171039269,708.55,397.44123198079177,710.4,397.44123198079177C712.25,397.44123198079177,712.25,398.47427460551626,714.1,398.47427460551626C715.95,398.47427460551626,715.95,399.50031517794775,717.8,399.50031517794775C719.65,399.50031517794775,719.65,400.5194230071791,721.5,400.5194230071791C723.3499999999999,400.5194230071791,723.3499999999999,401.5316665246942,725.1999999999999,401.5316665246942C727.05,401.5316665246942,727.05,402.5371132973109,728.9,402.5371132973109C730.75,402.5371132973109,730.75,403.5358300399281,732.6,403.5358300399281C734.45,403.5358300399281,734.45,404.52788262807263,736.3,404.52788262807263C738.15,404.52788262807263,738.15,405.51333611025547,740,405.51333611025547" stroke="#1f77b4" fill="none"/><text font-family="sans-serif" font-size="10" class="labels" x="70.3" y="40.528660644491836" dx="0" dy="-4" text-anchor="middle"/></g></g></g><text y="4" x="4" style="font-family: Arial, sans-serif; font-size: 12px; fill: black; font-weight: bold; dominant-baseline: hanging;"/></g><g id="grid"><rect x="0" y="0" width="805" height="600" fill="none" stroke="#ccc"/></g></g></svg>