<svg xmlns="http://www.w3.org/2000/svg" width="805" height="600"><rect width="805" height="600" x="0" y="0" fill="#FFFFFF" id="backgorund"/><g id="viz"><clipPath id="serieClipPath"><rect x="-50" y="-10" width="805" height="600"/></clipPath><g transform="translate(0,0)"><g transform="translate(50,10)" clip-path="url(#serieClipPath)"><g id="axis"><g transform="translate(0,570)" fill="none" font-size="10" font-family="sans-serif" text-anchor="middle"><path class="domain" stroke="currentColor" d="M0.5,6V0.5H740.5V6"/><g class="tick" opacity="1" transform="translate(0.5,0)"><line stroke="currentColor" y2="6"/><text fill="currentColor" y="9" dy="0.71em">0</text></g><g class="tick" opacity="1" transform="translate(74.5,0)"><line stroke="currentColor" y2="6"/><text fill="currentColor" y="9" dy="0.71em">20</text></g><g class="tick" opacity="1" transform="translate(148.5,0)"><line stroke="currentColor" y2="6"/><text fill="currentColor" y="9" dy="0.71em">40</text></g><g class="tick" opacity="1" transform="translate(222.5,0)"><line stroke="currentColor" y2="6"/><text fill="currentColor" y="9" dy="0.71em">60</text></g><g class="tick" opacity="1" transform="translate(296.5,0)"><line stroke="currentColor" y2="6"/><text fill="currentColor" y="9" dy="0.71em">80</text></g><g class="tick" opacity="1" transform="translate(370.5,0)"><line stroke="currentColor" y2="6"/><text fill="currentColor" y="9" dy="0.71em">100</text></g><g class="tick" opacity="1" transform="translate(444.5,0)"><line stroke="currentColor" y2="6"/><text fill="currentColor" y="9" dy="0.71em">120</text></g><g class="tick" opacity="1" transform="translate(518.5,0)"><line stroke="currentColor" y2="6"/><text fill="currentColor" y="9" dy="0.71em">140</text></g><g class="tick" opacity="1" transform="translate(592.5,0)"><line stroke="currentColor" y2="6"/><text fill="currentColor" y="9" dy="0.71em">160</text></g><g class="tick" opacity="1" transform="translate(666.5,0)"><line stroke="currentColor" y2="6"/><text fill="currentColor" y="9" dy="0.71em">180</text></g><g class="tick" opacity="1" transform="translate(740.5,0)"><line stroke="currentColor" y2="6"/><text fill="currentColor" y="9" dy="0.71em">200</text></g><text x="740" dy="-5" text-anchor="end" style="font-family: Arial, sans-serif; font-size: 12px; fill: rgb(123, 123, 123); font-weight: bold;">Concurrency Level</text></g><g transform="translate(0,0)" fill="none" font-size="10" font-family="sans-serif" text-anchor="end"><path class="domain" stroke="currentColor" d="M0.5,570.5V0.5"/><g class="tick" opacity="1" transform="translate(0,570.5)"><line stroke="currentColor" x2="-6"/><text fill="currentColor" x="-9" dy="0.32em">150</text></g><g class="tick" opacity="1" transform="translate(0,507.16666666666663)"><line stroke="currentColor" x2="-6"/><text fill="currentColor" x="-9" dy="0.32em">200</text></g><g class="tick" opacity="1" transform="translate(0,443.8333333333333)"><line stroke="currentColor" x2="-6"/><text fill="currentColor" x="-9" dy="0.32em">250</text></g><g class="tick" opacity="1" transform="translate(0,380.50000000000006)"><line stroke="currentColor" x2="-6"/><text fill="currentColor" x="-9" dy="0.32em">300</text></g><g class="tick" opacity="1" transform="translate(0,317.1666666666667)"><line stroke="currentColor" x2="-6"/><text fill="currentColor" x="-9" dy="0.32em">350</text></g><g class="tick" opacity="1" transform="translate(0,253.83333333333331)"><line stroke="currentColor" x2="-6"/><text fill="currentColor" x="-9" dy="0.32em">400</text></g><g class="tick" opacity="1" transform="translate(0,190.50000000000003)"><line stroke="currentColor" x2="-6"/><text fill="currentColor" x="-9" dy="0.32em">450</text></g><g class="tick" opacity="1" transform="translate(0,127.16666666666666)"><line stroke="currentColor" x2="-6"/><text fill="currentColor" x="-9" dy="0.32em">500</text></g><g class="tick" opacity="1" transform="translate(0,63.833333333333364)"><line stroke="currentColor" x2="-6"/><text fill="currentColor" x="-9" dy="0.32em">550</text></g><g class="tick" opacity="1" transform="translate(0,0.5)"><line stroke="currentColor" x2="-6"/><text fill="currentColor" x="-9" dy="0.32em">600</text></g><text x="4" text-anchor="start" dominant-baseline="hanging" style="font-family: Arial, sans-serif; font-size: 12px; fill: rgb(123, 123, 123); font-weight: bold;">Throughput (rps)</text></g></g><g id="viz"><g><path d="M3.7,551.4467595732559C5.550000000000001,551.4467595732559,5.550000000000001,419.8384914394583,7.4,419.8384914394583C9.25,419.8384914394583,9.25,330.4066987789571,11.1,330.4066987789571C12.95,330.4066987789571,12.95,266.5569953875434,14.8,266.5569953875434C16.65,266.5569953875434,16.65,219.36774038291267,18.5,219.36774038291267C20.35,219.36774038291267,20.35,183.6157990090847,22.2,183.6157990090847C24.05,183.6157990090847,24.05,156.04062393454768,25.900000000000002,156.04062393454768C27.75,156.04062393454768,27.75,134.50212281251046,29.6,134.50212281251046C31.45,134.50212281251046,31.45,117.53785519733646,33.3,117.53785519733646C35.15,117.53785519733646,35.15,104.11482370799018,37,104.11482370799018C38.85,104.11482370799018,38.85,93.4828999876012,40.7,93.4828999876012C42.55,93.4828999876012,42.55,85.08443524050973,44.4,85.08443524050973C46.25,85.08443524050973,46.25,78.49643876552565,48.1,78.49643876552565C49.95,78.49643876552565,49.95,73.39241031569554,51.800000000000004,73.39241031569554C53.650000000000006,73.39241031569554,53.650000000000006,69.51645073398703,55.5,69.51645073398703C57.35,69.51645073398703,57.35,66.6652775854363,59.2,66.6652775854363C61.050000000000004,66.6652775854363,61.050000000000004,64.67546648956738,62.900000000000006,64.67546648956738C64.75,64.67546648956738,64.75,63.414228750546904,66.6,63.414228750546904C68.44999999999999,63.414228750546904,68.44999999999999,62.77263249780469,70.3,62.77263249780469C72.15,62.77263249780469,72.15,62.66054415469804,74,62.66054415469804C75.85,62.66054415469804,75.85,63.00280172844529,77.7,63.00280172844529C79.55000000000001,63.00280172844529,79.55000000000001,63.736283758241356,81.4,63.736283758241356C83.25,63.736283758241356,83.25,64.80763866018468,85.10000000000001,64.80763866018468C86.95,64.80763866018468,86.95,66.17150726990029,88.8,66.17150726990029C90.65,66.17150726990029,90.65,67.78911806749919,92.5,67.78911806749919C94.35,67.78911806749919,94.35,69.6271670842842,96.2,69.6271670842842C98.05000000000001,69.6271670842842,98.05000000000001,71.65691745873507,99.9,71.65691745873507C101.75,71.65691745873507,101.75,73.85347004679531,103.60000000000001,73.85347004679531C105.45,73.85347004679531,105.45,76.19516839833395,107.3,76.19516839833395C109.15,76.19516839833395,109.15,78.66311013415428,111,78.66311013415428C112.85,78.66311013415428,112.85,81.24074321497734,114.7,81.24074321497734C116.55000000000001,81.24074321497734,116.55000000000001,83.91353042086506,118.4,83.91353042086506C120.25,83.91353042086506,120.25,86.66866900127835,122.10000000000001,86.66866900127835C123.95000000000002,86.66866900127835,123.95000000000002,89.49485522718572,125.80000000000001,89.49485522718572C127.65,89.49485522718572,127.65,92.38208570257729,129.5,92.38208570257729C131.35,92.38208570257729,131.35,95.32148893609605,133.2,95.32148893609605C135.05,95.32148893609605,135.05,98.30518195303554,136.9,98.30518195303554C138.75,98.30518195303554,138.75,101.32614773095354,140.6,101.32614773095354C142.45,101.32614773095354,142.45,104.37813003351944,144.3,104.37813003351944C146.15,104.37813003351944,146.15,107.45554284536756,148,107.45554284536756C149.85,107.45554284536756,149.85,110.55339211226824,151.7,110.55339211226824C153.55,110.55339211226824,153.55,113.66720789357083,155.4,113.66720789357083C157.25,113.66720789357083,157.25,116.79298535881286,159.1,116.79298535881286C160.95,116.79298535881286,160.95,119.92713332394356,162.8,119.92713332394356C164.65,119.92713332394356,164.65,123.06642923740249,166.5,123.06642923740249C168.35000000000002,123.06642923740249,168.35000000000002,126.20797970211913,170.20000000000002,126.20797970211913C172.05,126.20797970211913,172.05,129.34918576408927,173.89999999999998,129.34918576408927C175.75,129.34918576408927,175.75,132.48771231755106,177.6,132.48771231755106C179.45,132.48771231755106,179.45,135.62146107574986,181.29999999999998,135.62146107574986C183.14999999999998,135.62146107574986,183.14999999999998,138.74854663861666,185,138.74854663861666C186.85000000000002,138.74854663861666,186.85000000000002,141.8672752574725,188.70000000000002,141.8672752574725C190.55,141.8672752574725,190.55,144.9761259545051,192.4,144.9761259545051C194.25,144.9761259545051,194.25,148.07373370325166,196.10000000000002,148.07373370325166C197.95000000000002,148.07373370325166,197.95000000000002,151.1588744172115,199.8,151.1588744172115C201.65000000000003,151.1588744172115,201.65000000000003,154.23045152834325,203.50000000000003,154.23045152834325C205.35000000000002,154.23045152834325,205.35000000000002,157.2874839665815,207.20000000000002,157.2874839665815C209.05,157.2874839665815,209.05,160.3290953765288,210.89999999999998,160.3290953765288C212.75,160.3290953765288,212.75,163.35450442884914,214.6,163.35450442884914C216.45,163.35450442884914,216.45,166.3630161021657,218.29999999999998,166.3630161021657C220.14999999999998,166.3630161021657,220.14999999999998,169.35401382697432,222,169.35401382697432C223.85,169.35401382697432,223.85,172.3269523965865,225.7,172.3269523965865C227.55,172.3269523965865,227.55,175.28135156176364,229.4,175.28135156176364C231.25,175.28135156176364,231.25,178.21679023579065,233.1,178.21679023579065C234.95,178.21679023579065,234.95,181.13290124545068,236.8,181.13290124545068C238.65,181.13290124545068,238.65,184.0293665709607,240.5,184.0293665709607C242.35000000000002,184.0293665709607,242.35000000000002,186.90591302451747,244.20000000000002,186.90591302451747C246.05,186.90591302451747,246.05,189.76230832286083,247.9,189.76230832286083C249.75,189.76230832286083,249.75,192.59835751429594,251.60000000000002,192.59835751429594C253.45,192.59835751429594,253.45,195.41389972501253,255.29999999999998,195.41389972501253C257.15,195.41389972501253,257.15,198.2088051934113,259,198.2088051934113C260.85,198.2088051934113,260.85,200.98297256453606,262.7,200.98297256453606C264.54999999999995,200.98297256453606,264.54999999999995,203.73632641970534,266.4,203.73632641970534C268.25,203.73632641970534,268.25,206.4688150190693,270.09999999999997,206.4688150190693C271.95,206.4688150190693,271.95,209.18040823715017,273.8,209.18040823715017C275.65,209.18040823715017,275.65,211.87109567348645,277.5,211.87109567348645C279.35,211.87109567348645,279.35,214.54088492232106,281.2,214.54088492232106C283.05,214.54088492232106,283.05,217.18979998690335,284.90000000000003,217.18979998690335C286.75,217.18979998690335,286.75,219.81787982541175,288.6,219.81787982541175C290.45000000000005,219.81787982541175,290.45000000000005,222.4251770167834,292.3,222.4251770167834C294.15,222.4251770167834,294.15,225.01175653589067,296,225.01175653589067C297.85,225.01175653589067,297.85,227.5776946285139,299.70000000000005,227.5776946285139C301.55,227.5776946285139,301.55,230.12307777748106,303.4,230.12307777748106C305.25,230.12307777748106,305.25,232.64800175215666,307.09999999999997,232.64800175215666C308.95,232.64800175215666,308.95,235.15257073419784,310.8,235.15257073419784C312.65,235.15257073419784,312.65,237.63689651315053,314.5,237.63689651315053C316.35,237.63689651315053,316.35,240.10109774604652,318.2,240.10109774604652C320.04999999999995,240.10109774604652,320.04999999999995,242.54529927570096,321.9,242.54529927570096C323.75,242.54529927570096,323.75,244.96963150287596,325.6,244.96963150287596C327.45000000000005,244.96963150287596,327.45000000000005,247.3742298079176,329.3,247.3742298079176C331.15,247.3742298079176,331.15,249.75923401785667,333,249.75923401785667C334.85,249.75923401785667,334.85,252.1247879153152,336.7,252.1247879153152C338.55,252.1247879153152,338.55,254.4710387858808,340.40000000000003,254.4710387858808C342.25,254.4710387858808,342.25,256.79813700089534,344.1,256.79813700089534C345.95,256.79813700089534,345.95,259.10623563286714,347.79999999999995,259.10623563286714C349.65,259.10623563286714,349.65,261.39549010095243,351.5,261.39549010095243C353.35,261.39549010095243,353.35,263.66605784416384,355.2,263.66605784416384C357.04999999999995,263.66605784416384,357.04999999999995,265.91809802016115,358.9,265.91809802016115C360.75,265.91809802016115,360.75,268.15177122765556,362.59999999999997,268.15177122765556C364.45,268.15177122765556,364.45,270.36723925062165,366.3,270.36723925062165C368.15,270.36723925062165,368.15,272.5646648226539,370,272.5646648226539C371.85,272.5646648226539,371.85,274.7442114099464,373.7,274.7442114099464C375.55,274.7442114099464,375.55,276.9060430114868,377.40000000000003,276.9060430114868C379.25,276.9060430114868,379.25,279.05032397517823,381.1,279.05032397517823C382.95000000000005,279.05032397517823,382.95000000000005,281.1772188286942,384.8,281.1772188286942C386.65,281.1772188286942,386.65,283.286892123973,388.5,283.286892123973C390.35,283.286892123973,390.35,285.37950829434016,392.20000000000005,285.37950829434016C394.05000000000007,285.37950829434016,394.05000000000007,287.4552315233266,395.90000000000003,287.4552315233266C397.75,287.4552315233266,397.75,289.5142256243195,399.6,289.5142256243195C401.45000000000005,289.5142256243195,401.45000000000005,291.5566539302535,403.3,291.5566539302535C405.15000000000003,291.5566539302535,405.15000000000003,293.5826791926075,407.00000000000006,293.5826791926075C408.85,293.5826791926075,408.85,295.5924634890241,410.70000000000005,295.5924634890241C412.55000000000007,295.5924634890241,412.55000000000007,297.5861681389291,414.40000000000003,297.5861681389291C416.25,297.5861681389291,416.25,299.56395362656593,418.09999999999997,299.56395362656593C419.94999999999993,299.56395362656593,419.94999999999993,301.5259795309086,421.79999999999995,301.5259795309086C423.65,301.5259795309086,423.65,303.4724044619534,425.49999999999994,303.4724044619534C427.34999999999997,303.4724044619534,427.34999999999997,305.4033860029302,429.2,305.4033860029302C431.04999999999995,305.4033860029302,431.04999999999995,307.319080658003,432.9,307.319080658003C434.75,307.319080658003,434.75,309.2196438050638,436.59999999999997,309.2196438050638C438.44999999999993,309.2196438050638,438.44999999999993,311.10522965325214,440.29999999999995,311.10522965325214C442.15,311.10522965325214,442.15,312.97599120485785,444,312.97599120485785C445.85,312.97599120485785,445.85,314.8320802212914,447.7,314.8320802212914C449.54999999999995,314.8320802212914,449.54999999999995,316.6736471928247,451.4,316.6736471928247C453.25,316.6736471928247,453.25,318.50084131183314,455.09999999999997,318.50084131183314C456.95,318.50084131183314,456.95,320.31381044928014,458.8,320.31381044928014C460.65,320.31381044928014,460.65,322.1127011342114,462.5,322.1127011342114C464.35,322.1127011342114,464.35,323.89765853603814,466.2,323.89765853603814C468.05,323.89765853603814,468.05,325.6688264494046,469.90000000000003,325.6688264494046C471.75,325.6688264494046,471.75,327.4263472814513,473.6,327.4263472814513C475.45000000000005,327.4263472814513,475.45000000000005,329.1703620412951,477.3,329.1703620412951C479.15,329.1703620412951,479.15,330.90101033156554,481,330.90101033156554C482.85,330.90101033156554,482.85,332.61843034183966,484.70000000000005,332.61843034183966C486.55000000000007,332.61843034183966,486.55000000000007,334.3227588438357,488.40000000000003,334.3227588438357C490.25,334.3227588438357,490.25,336.0141311882341,492.1,336.0141311882341C493.95000000000005,336.0141311882341,493.95000000000005,337.69268130299787,495.8,337.69268130299787C497.65000000000003,337.69268130299787,497.65000000000003,339.35854169308277,499.50000000000006,339.35854169308277C501.35,339.35854169308277,501.35,341.0118434414251,503.20000000000005,341.0118434414251C505.05000000000007,341.0118434414251,505.05000000000007,342.65271621111106,506.90000000000003,342.65271621111106C508.75,342.65271621111106,508.75,344.28128824863285,510.59999999999997,344.28128824863285C512.4499999999999,344.28128824863285,512.4499999999999,345.8976863881433,514.3,345.8976863881433C516.15,345.8976863881433,516.15,347.50203605663296,518,347.50203605663296C519.8499999999999,347.50203605663296,519.8499999999999,349.09446127994846,521.6999999999999,349.09446127994846C523.55,349.09446127994846,523.55,350.67508468958647,525.4,350.67508468958647C527.25,350.67508468958647,527.25,352.2440275301959,529.1,352.2440275301959C530.95,352.2440275301959,530.95,353.8014096677263,532.8,353.8014096677263C534.65,353.8014096677263,534.65,355.34734959817047,536.5,355.34734959817047C538.3499999999999,355.34734959817047,538.3499999999999,356.8819644568397,540.1999999999999,356.8819644568397C542.05,356.8819644568397,542.05,358.4053700281324,543.9,358.4053700281324C545.75,358.4053700281324,545.75,359.9176807557423,547.6,359.9176807557423C549.45,359.9176807557423,549.45,361.4190097532671,551.3,361.4190097532671C553.15,361.4190097532671,553.15,362.90946881517664,555,362.90946881517664C556.85,362.90946881517664,556.85,364.38916842810346,558.7,364.38916842810346C560.55,364.38916842810346,560.55,365.8582177824218,562.4,365.8582177824218C564.25,365.8582177824218,564.25,367.3167247840818,566.1,367.3167247840818C567.95,367.3167247840818,567.95,368.76479606666913,569.8000000000001,368.76479606666913C571.6500000000001,368.76479606666913,571.6500000000001,370.2025370036625,573.5,370.2025370036625C575.35,370.2025370036625,575.35,371.63005172086326,577.2,371.63005172086326C579.05,371.63005172086326,579.05,373.0474431089717,580.9,373.0474431089717C582.75,373.0474431089717,582.75,374.4548128362892,584.6,374.4548128362892C586.45,374.4548128362892,586.45,375.85226136152374,588.3000000000001,375.85226136152374C590.1500000000001,375.85226136152374,590.1500000000001,377.23988794668134,592,377.23988794668134C593.85,377.23988794668134,593.85,378.6177906700224,595.7,378.6177906700224C597.5500000000001,378.6177906700224,597.5500000000001,379.9860664390701,599.4000000000001,379.9860664390701C601.25,379.9860664390701,601.25,381.34481100365156,603.0999999999999,381.34481100365156C604.9499999999999,381.34481100365156,604.9499999999999,382.6941189689606,606.8,382.6941189689606C608.65,382.6941189689606,608.65,384.03408380862584,610.5,384.03408380862584C612.3499999999999,384.03408380862584,612.3499999999999,385.3647978777748,614.1999999999999,385.3647978777748C616.05,385.3647978777748,616.05,386.6863524260798,617.9,386.6863524260798C619.75,386.6863524260798,619.75,387.99883761077706,621.6,387.99883761077706C623.45,387.99883761077706,623.45,389.30234250964884,625.3,389.30234250964884C627.15,389.30234250964884,627.15,390.5969551339592,629,390.5969551339592C630.8499999999999,390.5969551339592,630.8499999999999,391.88276244133516,632.6999999999999,391.88276244133516C634.55,391.88276244133516,634.55,393.1598503485864,636.4,393.1598503485864C638.25,393.1598503485864,638.25,394.4283037444559,640.1,394.4283037444559C641.95,394.4283037444559,641.95,395.6882065022953,643.8,395.6882065022953C645.65,395.6882065022953,645.65,396.93964149265923,647.5,396.93964149265923C649.35,396.93964149265923,649.35,398.18269059581314,651.2,398.18269059581314C653.05,398.18269059581314,653.05,399.4174347141496,654.9,399.4174347141496C656.75,399.4174347141496,656.75,400.6439537845094,658.6,400.6439537845094C660.45,400.6439537845094,660.45,401.8623267904028,662.3000000000001,401.8623267904028C664.1500000000001,401.8623267904028,664.1500000000001,403.07263177412705,666,403.07263177412705C667.85,403.07263177412705,667.85,404.2749458487778,669.7,404.2749458487778C671.55,404.2749458487778,671.55,405.469345210151,673.4,405.469345210151C675.25,405.469345210151,675.25,406.6559051485325,677.1,406.6559051485325C678.95,406.6559051485325,678.95,407.83470006037317,680.8000000000001,407.83470006037317C682.6500000000001,407.83470006037317,682.6500000000001,409.00580345984866,684.5,409.00580345984866C686.35,409.00580345984866,686.35,410.1692879902988,688.2,410.1692879902988C690.0500000000001,410.1692879902988,690.0500000000001,411.3252254355505,691.9000000000001,411.3252254355505C693.75,411.3252254355505,693.75,412.4736867311158,695.5999999999999,412.4736867311158C697.4499999999999,412.4736867311158,697.4499999999999,413.61474197527116,699.3,413.61474197527116C701.15,413.61474197527116,701.15,414.7484604400121,703,414.7484604400121C704.8499999999999,414.7484604400121,704.8499999999999,415.87491058188414,706.6999999999999,415.87491058188414C708.55,415.87491058188414,708.55,416.99416005268944,710.4,416.99416005268944C712.25,416.99416005268944,712.25,418.1062757100694,714.1,418.1062757100694C715.95,418.1062757100694,715.95,419.2113236279614,717.8,419.2113236279614C719.65,419.2113236279614,719.65,420.30936910693055,721.5,420.30936910693055C723.3499999999999,420.30936910693055,723.3499999999999,421.4004766843773,725.1999999999999,421.4004766843773C727.05,421.4004766843773,727.05,422.4847101446185,728.9,422.4847101446185C730.75,422.4847101446185,730.75,423.5621325288446,732.6,423.5621325288446C734.45,423.5621325288446,734.45,424.63280614495267,736.3,424.63280614495267C738.15,424.63280614495267,738.15,425.69679257725437,740,425.69679257725437" stroke="#1f77b4" fill="none"/><text font-family="sans-serif" font-size="10" class="labels" x="74" y="62.66054415469804" dx="0" dy="-4" text-anchor="middle"/></g></g></g><text y="4" x="4" style="font-family: Arial, sans-serif; font-size: 12px; fill: black; font-weight: bold; dominant-baseline: hanging;"/></g><g id="grid"><rect x="0" y="0" width="805" height="600" fill="none" stroke="#ccc"/></g></g></svg>