<svg xmlns="http://www.w3.org/2000/svg" width="805" height="600"><rect width="805" height="600" x="0" y="0" fill="#FFFFFF" id="backgorund"/><g id="viz"><clipPath id="serieClipPath"><rect x="-50" y="-10" width="805" height="600"/></clipPath><g transform="translate(0,0)"><g transform="translate(50,10)" clip-path="url(#serieClipPath)"><g id="axis"><g transform="translate(0,570)" fill="none" font-size="10" font-family="sans-serif" text-anchor="middle"><path class="domain" stroke="currentColor" d="M0.5,6V0.5H740.5V6"/><g class="tick" opacity="1" transform="translate(0.5,0)"><line stroke="currentColor" y2="6"/><text fill="currentColor" y="9" dy="0.71em">0</text></g><g class="tick" opacity="1" transform="translate(74.5,0)"><line stroke="currentColor" y2="6"/><text fill="currentColor" y="9" dy="0.71em">20</text></g><g class="tick" opacity="1" transform="translate(148.5,0)"><line stroke="currentColor" y2="6"/><text fill="currentColor" y="9" dy="0.71em">40</text></g><g class="tick" opacity="1" transform="translate(222.5,0)"><line stroke="currentColor" y2="6"/><text fill="currentColor" y="9" dy="0.71em">60</text></g><g class="tick" opacity="1" transform="translate(296.5,0)"><line stroke="currentColor" y2="6"/><text fill="currentColor" y="9" dy="0.71em">80</text></g><g class="tick" opacity="1" transform="translate(370.5,0)"><line stroke="currentColor" y2="6"/><text fill="currentColor" y="9" dy="0.71em">100</text></g><g class="tick" opacity="1" transform="translate(444.5,0)"><line stroke="currentColor" y2="6"/><text fill="currentColor" y="9" dy="0.71em">120</text></g><g class="tick" opacity="1" transform="translate(518.5,0)"><line stroke="currentColor" y2="6"/><text fill="currentColor" y="9" dy="0.71em">140</text></g><g class="tick" opacity="1" transform="translate(592.5,0)"><line stroke="currentColor" y2="6"/><text fill="currentColor" y="9" dy="0.71em">160</text></g><g class="tick" opacity="1" transform="translate(666.5,0)"><line stroke="currentColor" y2="6"/><text fill="currentColor" y="9" dy="0.71em">180</text></g><g class="tick" opacity="1" transform="translate(740.5,0)"><line stroke="currentColor" y2="6"/><text fill="currentColor" y="9" dy="0.71em">200</text></g><text x="740" dy="-5" text-anchor="end" style="font-family: Arial, sans-serif; font-size: 12px; fill: rgb(123, 123, 123); font-weight: bold;">Concurrency Level</text></g><g transform="translate(0,0)" fill="none" font-size="10" font-family="sans-serif" text-anchor="end"><path class="domain" stroke="currentColor" d="M0.5,570.5V0.5"/><g class="tick" opacity="1" transform="translate(0,570.5)"><line stroke="currentColor" x2="-6"/><text fill="currentColor" x="-9" dy="0.32em">150</text></g><g class="tick" opacity="1" transform="translate(0,499.25)"><line stroke="currentColor" x2="-6"/><text fill="currentColor" x="-9" dy="0.32em">200</text></g><g class="tick" opacity="1" transform="translate(0,428)"><line stroke="currentColor" x2="-6"/><text fill="currentColor" x="-9" dy="0.32em">250</text></g><g class="tick" opacity="1" transform="translate(0,356.75)"><line stroke="currentColor" x2="-6"/><text fill="currentColor" x="-9" dy="0.32em">300</text></g><g class="tick" opacity="1" transform="translate(0,285.5)"><line stroke="currentColor" x2="-6"/><text fill="currentColor" x="-9" dy="0.32em">350</text></g><g class="tick" opacity="1" transform="translate(0,214.25)"><line stroke="currentColor" x2="-6"/><text fill="currentColor" x="-9" dy="0.32em">400</text></g><g class="tick" opacity="1" transform="translate(0,143)"><line stroke="currentColor" x2="-6"/><text fill="currentColor" x="-9" dy="0.32em">450</text></g><g class="tick" opacity="1" transform="translate(0,71.75)"><line stroke="currentColor" x2="-6"/><text fill="currentColor" x="-9" dy="0.32em">500</text></g><g class="tick" opacity="1" transform="translate(0,0.5)"><line stroke="currentColor" x2="-6"/><text fill="currentColor" x="-9" dy="0.32em">550</text></g><text x="4" text-anchor="start" dominant-baseline="hanging" style="font-family: Arial, sans-serif; font-size: 12px; fill: rgb(123, 123, 123); font-weight: bold;">Throughput (rps)</text></g></g><g id="viz"><g><path d="M3.7,540.1203791045975C5.550000000000001,540.1203791045975,5.550000000000001,392.3494981599232,7.4,392.3494981599232C9.25,392.3494981599232,9.25,294.2613734941842,11.1,294.2613734941842C12.95,294.2613734941842,12.95,225.21249381183105,14.8,225.21249381183105C16.65,225.21249381183105,16.65,174.58826120659987,18.5,174.58826120659987C20.35,174.58826120659987,20.35,136.37277436596702,22.2,136.37277436596702C24.05,136.37277436596702,24.05,106.90211859381179,25.900000000000002,106.90211859381179C27.75,106.90211859381179,27.75,83.81756498542275,29.6,83.81756498542275C31.45,83.81756498542275,31.45,65.53214258473983,33.3,65.53214258473983C35.15,65.53214258473983,35.15,50.93904807056785,37,50.93904807056785C38.85,50.93904807056785,38.85,39.2429654413452,40.7,39.2429654413452C42.55,39.2429654413452,42.55,29.857820229185805,44.4,29.857820229185805C46.25,29.857820229185805,46.25,22.342322783964896,48.1,22.342322783964896C49.95,22.342322783964896,49.95,16.357952037844587,51.800000000000004,16.357952037844587C53.650000000000006,16.357952037844587,53.650000000000006,11.6407650632361,55.5,11.6407650632361C57.35,11.6407650632361,57.35,7.982000769733371,59.2,7.982000769733371C61.050000000000004,7.982000769733371,61.050000000000004,5.214435432144716,62.900000000000006,5.214435432144716C64.75,5.214435432144716,64.75,3.2025939229005775,66.6,3.2025939229005775C68.44999999999999,3.2025939229005775,68.44999999999999,1.8356027542869602,70.3,1.8356027542869602C72.15,1.8356027542869602,72.15,1.0218890010109438,74,1.0218890010109438C75.85,1.0218890010109438,75.85,0.6851919177885823,77.7,0.6851919177885823C79.55000000000001,0.6851919177885823,79.55000000000001,0.7615231015372492,81.4,0.7615231015372492C83.25,0.7615231015372492,83.25,1.1968220933536466,85.10000000000001,1.1968220933536466C86.95,1.1968220933536466,86.95,1.9451286644462995,88.8,1.9451286644462995C90.65,1.9451286644462995,90.65,2.967143679644695,92.5,2.967143679644695C94.35,2.967143679644695,94.35,4.229085488809016,96.2,4.229085488809016C98.05000000000001,4.229085488809016,98.05000000000001,5.701773417654615,99.9,5.701773417654615C101.75,5.701773417654615,101.75,7.359887456255029,103.60000000000001,7.359887456255029C105.45,7.359887456255029,105.45,9.181365876649812,107.3,9.181365876649812C109.15,9.181365876649812,109.15,11.146911723041487,111,11.146911723041487C112.85,11.146911723041487,112.85,13.239585908315226,114.7,13.239585908315226C116.55000000000001,13.239585908315226,116.55000000000001,15.444469706403906,118.4,15.444469706403906C120.25,15.444469706403906,120.25,17.748383230024796,122.10000000000001,17.748383230024796C123.95000000000002,17.748383230024796,123.95000000000002,20.13964936481461,125.80000000000001,20.13964936481461C127.65,20.13964936481461,127.65,22.607894834091418,129.5,22.607894834091418C131.35,22.607894834091418,131.35,25.143881766274493,133.2,25.143881766274493C135.05,25.143881766274493,135.05,27.73936445501324,136.9,27.73936445501324C138.75,27.73936445501324,138.75,30.38696703240977,140.6,30.38696703240977C142.45,30.38696703240977,142.45,33.08007858648008,144.3,33.08007858648008C146.15,33.08007858648008,146.15,35.8127628959887,148,35.8127628959887C149.85,35.8127628959887,149.85,38.579680467153985,151.7,38.579680467153985C153.55,38.579680467153985,153.55,41.37602096632493,155.4,41.37602096632493C157.25,41.37602096632493,157.25,44.197444472611096,159.1,44.197444472611096C160.95,44.197444472611096,160.95,47.040030241460705,162.8,47.040030241460705C164.65,47.040030241460705,164.65,49.900231887366346,166.5,49.900231887366346C168.35000000000002,49.900231887366346,168.35000000000002,52.77483807136434,170.20000000000002,52.77483807136434C172.05,52.77483807136434,172.05,55.66093792467418,173.89999999999998,55.66093792467418C175.75,55.66093792467418,175.75,58.55589055991124,177.6,58.55589055991124C179.45,58.55589055991124,179.45,61.4572981207003,181.29999999999998,61.4572981207003C183.14999999999998,61.4572981207003,183.14999999999998,64.36298190310153,185,64.36298190310153C186.85000000000002,64.36298190310153,186.85000000000002,67.27096115114232,188.70000000000002,67.27096115114232C190.55,67.27096115114232,190.55,70.17943418640004,192.4,70.17943418640004C194.25,70.17943418640004,194.25,73.08676158000583,196.10000000000002,73.08676158000583C197.95000000000002,73.08676158000583,197.95000000000002,75.99145111624274,199.8,75.99145111624274C201.65000000000003,75.99145111624274,201.65000000000003,78.89214433141741,203.50000000000003,78.89214433141741C205.35000000000002,78.89214433141741,205.35000000000002,81.78760444093115,207.20000000000002,81.78760444093115C209.05,81.78760444093115,209.05,84.67670549236466,210.89999999999998,84.67670549236466C212.75,84.67670549236466,212.75,87.55842260361052,214.6,87.55842260361052C216.45,87.55842260361052,216.45,90.43182316324194,218.29999999999998,90.43182316324194C220.14999999999998,90.43182316324194,220.14999999999998,93.29605888587243,222,93.29605888587243C223.85,93.29605888587243,223.85,96.1503586286462,225.7,96.1503586286462C227.55,96.1503586286462,227.55,98.99402188654068,229.4,98.99402188654068C231.25,98.99402188654068,231.25,101.82641289412186,233.1,101.82641289412186C234.95,101.82641289412186,234.95,104.64695527003406,236.8,104.64695527003406C238.65,104.64695527003406,238.65,107.45512714799705,240.5,107.45512714799705C242.35000000000002,107.45512714799705,242.35000000000002,110.25045674459776,244.20000000000002,110.25045674459776C246.05,110.25045674459776,246.05,113.03251831985193,247.9,113.03251831985193C249.75,113.03251831985193,249.75,115.80092849146759,251.60000000000002,115.80092849146759C253.45,115.80092849146759,253.45,118.55534286809359,255.29999999999998,118.55534286809359C257.15,118.55534286809359,257.15,121.29545297063895,259,121.29545297063895C260.85,121.29545297063895,260.85,124.02098341410169,262.7,124.02098341410169C264.54999999999995,124.02098341410169,264.54999999999995,126.73168932528506,266.4,126.73168932528506C268.25,126.73168932528506,268.25,129.42735397438634,270.09999999999997,129.42735397438634C271.95,129.42735397438634,271.95,132.10778660072526,273.8,132.10778660072526C275.65,132.10778660072526,275.65,134.77282041491958,277.5,134.77282041491958C279.35,134.77282041491958,279.35,137.42231076160928,281.2,137.42231076160928C283.05,137.42231076160928,283.05,140.05613342842463,284.90000000000003,140.05613342842463C286.75,140.05613342842463,286.75,142.6741830883205,288.6,142.6741830883205C290.45000000000005,142.6741830883205,290.45000000000005,145.2763718636529,292.3,145.2763718636529C294.15,145.2763718636529,294.15,147.86262800150908,296,147.86262800150908C297.85,147.86262800150908,297.85,150.43289465080016,299.70000000000005,150.43289465080016C301.55,150.43289465080016,301.55,152.98712873253152,303.4,152.98712873253152C305.25,152.98712873253152,305.25,155.52529989546522,307.09999999999997,155.52529989546522C308.95,155.52529989546522,308.95,158.04738955011413,310.8,158.04738955011413C312.65,158.04738955011413,312.65,160.5533899746532,314.5,160.5533899746532C316.35,160.5533899746532,316.35,163.04330348691548,318.2,163.04330348691548C320.04999999999995,163.04330348691548,320.04999999999995,165.51714167716557,321.9,165.51714167716557C323.75,165.51714167716557,323.75,167.97492469681197,325.6,167.97492469681197C327.45000000000005,167.97492469681197,327.45000000000005,170.41668059864972,329.3,170.41668059864972C331.15,170.41668059864972,331.15,172.84244472460387,333,172.84244472460387C334.85,172.84244472460387,334.85,175.25225913729673,336.7,175.25225913729673C338.55,175.25225913729673,338.55,177.6461720920704,340.40000000000003,177.6461720920704C342.25,177.6461720920704,342.25,180.02423754638667,344.1,180.02423754638667C345.95,180.02423754638667,345.95,182.3865147037805,347.79999999999995,182.3865147037805C349.65,182.3865147037805,349.65,184.73306758977856,351.5,184.73306758977856C353.35,184.73306758977856,353.35,187.0639646574077,355.2,187.0639646574077C357.04999999999995,187.0639646574077,357.04999999999995,189.37927842011183,358.9,189.37927842011183C360.75,189.37927842011183,360.75,191.67908511007113,362.59999999999997,191.67908511007113C364.45,191.67908511007113,364.45,193.96346436007912,366.3,193.96346436007912C368.15,193.96346436007912,368.15,196.23249890727794,370,196.23249890727794C371.85,196.23249890727794,371.85,198.48627431719052,373.7,198.48627431719052C375.55,198.48627431719052,375.55,200.72487872660048,377.40000000000003,200.72487872660048C379.25,200.72487872660048,379.25,202.9484026039561,381.1,202.9484026039561C382.95000000000005,202.9484026039561,382.95000000000005,205.15693852606466,384.8,205.15693852606466C386.65,205.15693852606466,386.65,207.3505809699427,388.5,207.3505809699427C390.35,207.3505809699427,390.35,209.52942611877407,392.20000000000005,209.52942611877407C394.05000000000007,209.52942611877407,394.05000000000007,211.69357168100439,395.90000000000003,211.69357168100439C397.75,211.69357168100439,397.75,213.8431167216721,399.6,213.8431167216721C401.45000000000005,213.8431167216721,401.45000000000005,215.97816150514552,403.3,215.97816150514552C405.15000000000003,215.97816150514552,405.15000000000003,218.09880734849392,407.00000000000006,218.09880734849392C408.85,218.09880734849392,408.85,220.2051564847773,410.70000000000005,220.2051564847773C412.55000000000007,220.2051564847773,412.55000000000007,222.29731193559087,414.40000000000003,222.29731193559087C416.25,222.29731193559087,416.25,224.37537739225039,418.09999999999997,224.37537739225039C419.94999999999993,224.37537739225039,419.94999999999993,226.43945710504337,421.79999999999995,226.43945710504337C423.65,226.43945710504337,423.65,228.4896557800163,425.49999999999994,228.4896557800163C427.34999999999997,228.4896557800163,427.34999999999997,230.52607848280405,429.2,230.52607848280405C431.04999999999995,230.52607848280405,431.04999999999995,232.54883054903956,432.9,232.54883054903956C434.75,232.54883054903956,434.75,234.55801750091777,436.59999999999997,234.55801750091777C438.44999999999993,234.55801750091777,438.44999999999993,236.55374496951552,440.29999999999995,236.55374496951552C442.15,236.55374496951552,442.15,238.5361186224932,444,238.5361186224932C445.85,238.5361186224932,445.85,240.50524409683743,447.7,240.50524409683743C449.54999999999995,240.50524409683743,449.54999999999995,242.46122693631676,451.4,242.46122693631676C453.25,242.46122693631676,453.25,244.40417253335326,455.09999999999997,244.40417253335326C456.95,244.40417253335326,456.95,246.33418607502742,458.8,246.33418607502742C460.65,246.33418607502742,460.65,248.25137249295528,462.5,248.25137249295528C464.35,248.25137249295528,464.35,250.1558364167919,466.2,250.1558364167919C468.05,250.1558364167919,468.05,252.04768213113363,469.90000000000003,252.04768213113363C471.75,252.04768213113363,471.75,253.92701353560426,473.6,253.92701353560426C475.45000000000005,253.92701353560426,475.45000000000005,255.79393410792593,477.3,255.79393410792593C479.15,255.79393410792593,479.15,257.6485468697874,481,257.6485468697874C482.85,257.6485468697874,482.85,259.4909543553355,484.70000000000005,259.4909543553355C486.55000000000007,259.4909543553355,486.55000000000007,261.32125858212447,488.40000000000003,261.32125858212447C490.25,261.32125858212447,490.25,263.1395610243713,492.1,263.1395610243713C493.95000000000005,263.1395610243713,493.95000000000005,264.9459625883739,495.8,264.9459625883739C497.65000000000003,264.9459625883739,497.65000000000003,266.7405635899549,499.50000000000006,266.7405635899549C501.35,266.7405635899549,501.35,268.52346373380766,503.20000000000005,268.52346373380766C505.05000000000007,268.52346373380766,505.05000000000007,270.2947620946262,506.90000000000003,270.2947620946262C508.75,270.2947620946262,508.75,272.05455709990554,510.59999999999997,272.05455709990554C512.4499999999999,272.05455709990554,512.4499999999999,273.8029465143122,514.3,273.8029465143122C516.15,273.8029465143122,516.15,275.54002742552393,518,275.54002742552393C519.8499999999999,275.54002742552393,519.8499999999999,277.2658962314499,521.6999999999999,277.2658962314499C523.55,277.2658962314499,523.55,278.98064862874304,525.4,278.98064862874304C527.25,278.98064862874304,527.25,280.68437960252595,529.1,280.68437960252595C530.95,280.68437960252595,530.95,282.3771834172521,532.8,282.3771834172521C534.65,282.3771834172521,534.65,284.0591536086354,536.5,284.0591536086354C538.3499999999999,284.0591536086354,538.3499999999999,285.73038297657496,540.1999999999999,285.73038297657496C542.05,285.73038297657496,542.05,287.3909635790183,543.9,287.3909635790183C545.75,287.3909635790183,545.75,289.0409867267007,547.6,289.0409867267007C549.45,289.0409867267007,549.45,290.6805429787051,551.3,290.6805429787051C553.15,290.6805429787051,553.15,292.30972213879204,555,292.30972213879204C556.85,292.30972213879204,556.85,293.9286132524488,558.7,293.9286132524488C560.55,293.9286132524488,560.55,295.5373046046123,562.4,295.5373046046123C564.25,295.5373046046123,564.25,297.1358837180228,566.1,297.1358837180228C567.95,297.1358837180228,567.95,298.7244373521662,569.8000000000001,298.7244373521662C571.6500000000001,298.7244373521662,571.6500000000001,300.30305150276797,573.5,300.30305150276797C575.35,300.30305150276797,575.35,301.87181140180127,577.2,301.87181140180127C579.05,301.87181140180127,579.05,303.4308015179749,580.9,303.4308015179749C582.75,303.4308015179749,582.75,304.9801055576725,584.6,304.9801055576725C586.45,304.9801055576725,586.45,306.5198064663069,588.3000000000001,306.5198064663069C590.1500000000001,306.5198064663069,590.1500000000001,308.04998643006536,592,308.04998643006536C593.85,308.04998643006536,593.85,309.5707268780192,595.7,309.5707268780192C597.5500000000001,309.5707268780192,597.5500000000001,311.0821084845697,599.4000000000001,311.0821084845697C601.25,311.0821084845697,601.25,312.58421117220865,603.0999999999999,312.58421117220865C604.9499999999999,312.58421117220865,604.9499999999999,314.07711411457177,606.8,314.07711411457177C608.65,314.07711411457177,608.65,315.5608957397603,610.5,315.5608957397603C612.3499999999999,315.5608957397603,612.3499999999999,317.0356337339167,614.1999999999999,317.0356337339167C616.05,317.0356337339167,616.05,318.50140504503037,617.9,318.50140504503037C619.75,318.50140504503037,619.75,319.95828588695844,621.6,319.95828588695844C623.45,319.95828588695844,623.45,321.4063517436455,625.3,321.4063517436455C627.15,321.4063517436455,627.15,322.845677373525,629,322.845677373525C630.8499999999999,322.845677373525,630.8499999999999,324.27633681408935,632.6999999999999,324.27633681408935C634.55,324.27633681408935,634.55,325.6984033866124,636.4,325.6984033866124C638.25,325.6984033866124,638.25,327.1119497010151,640.1,327.1119497010151C641.95,327.1119497010151,641.95,328.5170476608581,643.8,328.5170476608581C645.65,328.5170476608581,645.65,329.9137684684526,647.5,329.9137684684526C649.35,329.9137684684526,649.35,331.30218263007737,651.2,331.30218263007737C653.05,331.30218263007737,653.05,332.6823599612915,654.9,332.6823599612915C656.75,332.6823599612915,656.75,334.05436959233396,658.6,334.05436959233396C660.45,334.05436959233396,660.45,335.4182799736008,662.3000000000001,335.4182799736008C664.1500000000001,335.4182799736008,664.1500000000001,336.7741588811908,666,336.7741588811908C667.85,336.7741588811908,667.85,338.12207342251287,669.7,338.12207342251287C671.55,338.12207342251287,671.55,339.46209004194617,673.4,339.46209004194617C675.25,339.46209004194617,675.25,340.79427452654664,677.1,340.79427452654664C678.95,340.79427452654664,678.95,342.11869201179417,680.8000000000001,342.11869201179417C682.6500000000001,342.11869201179417,682.6500000000001,343.43540698737155,684.5,343.43540698737155C686.35,343.43540698737155,686.35,344.7444833029733,688.2,344.7444833029733C690.0500000000001,344.7444833029733,690.0500000000001,346.04598417413433,691.9000000000001,346.04598417413433C693.75,346.04598417413433,693.75,347.3399721880769,695.5999999999999,347.3399721880769C697.4499999999999,347.3399721880769,697.4499999999999,348.6265093095698,699.3,348.6265093095698C701.15,348.6265093095698,701.15,349.90565688679396,703,349.90565688679396C704.8499999999999,349.90565688679396,704.8499999999999,351.1774756572126,706.6999999999999,351.1774756572126C708.55,351.1774756572126,708.55,352.44202575344013,710.4,352.44202575344013C712.25,352.44202575344013,712.25,353.6993667091063,714.1,353.6993667091063C715.95,353.6993667091063,715.95,354.94955746471356,717.8,354.94955746471356C719.65,354.94955746471356,719.65,356.19265637348195,721.5,356.19265637348195C723.3499999999999,356.19265637348195,723.3499999999999,357.4287212071804,725.1999999999999,357.4287212071804C727.05,357.4287212071804,727.05,358.6578091619414,728.9,358.6578091619414C730.75,358.6578091619414,730.75,359.879976864055,732.6,359.879976864055C734.45,359.879976864055,734.45,361.09528037574154,736.3,361.09528037574154C738.15,361.09528037574154,738.15,362.30377520089917,740,362.30377520089917" stroke="#1f77b4" fill="none"/><text font-family="sans-serif" font-size="10" class="labels" x="77.7" y="0.6851919177885823" dx="0" dy="-4" text-anchor="middle"/></g></g></g><text y="4" x="4" style="font-family: Arial, sans-serif; font-size: 12px; fill: black; font-weight: bold; dominant-baseline: hanging;"/></g><g id="grid"><rect x="0" y="0" width="805" height="600" fill="none" stroke="#ccc"/></g></g></svg>