<svg xmlns="http://www.w3.org/2000/svg" width="805" height="600"><rect width="805" height="600" x="0" y="0" fill="#FFFFFF" id="backgorund"/><g id="viz"><clipPath id="serieClipPath"><rect x="-50" y="-10" width="805" height="600"/></clipPath><g transform="translate(0,0)"><g transform="translate(50,10)" clip-path="url(#serieClipPath)"><g id="axis"><g transform="translate(0,570)" fill="none" font-size="10" font-family="sans-serif" text-anchor="middle"><path class="domain" stroke="currentColor" d="M0.5,6V0.5H740.5V6"/><g class="tick" opacity="1" transform="translate(0.5,0)"><line stroke="currentColor" y2="6"/><text fill="currentColor" y="9" dy="0.71em">0</text></g><g class="tick" opacity="1" transform="translate(74.5,0)"><line stroke="currentColor" y2="6"/><text fill="currentColor" y="9" dy="0.71em">20</text></g><g class="tick" opacity="1" transform="translate(148.5,0)"><line stroke="currentColor" y2="6"/><text fill="currentColor" y="9" dy="0.71em">40</text></g><g class="tick" opacity="1" transform="translate(222.5,0)"><line stroke="currentColor" y2="6"/><text fill="currentColor" y="9" dy="0.71em">60</text></g><g class="tick" opacity="1" transform="translate(296.5,0)"><line stroke="currentColor" y2="6"/><text fill="currentColor" y="9" dy="0.71em">80</text></g><g class="tick" opacity="1" transform="translate(370.5,0)"><line stroke="currentColor" y2="6"/><text fill="currentColor" y="9" dy="0.71em">100</text></g><g class="tick" opacity="1" transform="translate(444.5,0)"><line stroke="currentColor" y2="6"/><text fill="currentColor" y="9" dy="0.71em">120</text></g><g class="tick" opacity="1" transform="translate(518.5,0)"><line stroke="currentColor" y2="6"/><text fill="currentColor" y="9" dy="0.71em">140</text></g><g class="tick" opacity="1" transform="translate(592.5,0)"><line stroke="currentColor" y2="6"/><text fill="currentColor" y="9" dy="0.71em">160</text></g><g class="tick" opacity="1" transform="translate(666.5,0)"><line stroke="currentColor" y2="6"/><text fill="currentColor" y="9" dy="0.71em">180</text></g><g class="tick" opacity="1" transform="translate(740.5,0)"><line stroke="currentColor" y2="6"/><text fill="currentColor" y="9" dy="0.71em">200</text></g><text x="740" dy="-5" text-anchor="end" style="font-family: Arial, sans-serif; font-size: 12px; fill: rgb(123, 123, 123); font-weight: bold;">Concurrency Level</text></g><g transform="translate(0,0)" fill="none" font-size="10" font-family="sans-serif" text-anchor="end"><path class="domain" stroke="currentColor" d="M0.5,570.5V0.5"/><g class="tick" opacity="1" transform="translate(0,570.5)"><line stroke="currentColor" x2="-6"/><text fill="currentColor" x="-9" dy="0.32em">150</text></g><g class="tick" opacity="1" transform="translate(0,499.25)"><line stroke="currentColor" x2="-6"/><text fill="currentColor" x="-9" dy="0.32em">200</text></g><g class="tick" opacity="1" transform="translate(0,428)"><line stroke="currentColor" x2="-6"/><text fill="currentColor" x="-9" dy="0.32em">250</text></g><g class="tick" opacity="1" transform="translate(0,356.75)"><line stroke="currentColor" x2="-6"/><text fill="currentColor" x="-9" dy="0.32em">300</text></g><g class="tick" opacity="1" transform="translate(0,285.5)"><line stroke="currentColor" x2="-6"/><text fill="currentColor" x="-9" dy="0.32em">350</text></g><g class="tick" opacity="1" transform="translate(0,214.25)"><line stroke="currentColor" x2="-6"/><text fill="currentColor" x="-9" dy="0.32em">400</text></g><g class="tick" opacity="1" transform="translate(0,143)"><line stroke="currentColor" x2="-6"/><text fill="currentColor" x="-9" dy="0.32em">450</text></g><g class="tick" opacity="1" transform="translate(0,71.75)"><line stroke="currentColor" x2="-6"/><text fill="currentColor" x="-9" dy="0.32em">500</text></g><g class="tick" opacity="1" transform="translate(0,0.5)"><line stroke="currentColor" x2="-6"/><text fill="currentColor" x="-9" dy="0.32em">550</text></g><text x="4" text-anchor="start" dominant-baseline="hanging" style="font-family: Arial, sans-serif; font-size: 12px; fill: rgb(123, 123, 123); font-weight: bold;">Throughput (rps)</text></g></g><g id="viz"><g><path d="M3.7,539.4483871147371C5.550000000000001,539.4483871147371,5.550000000000001,394.5526602749744,7.4,394.5526602749744C9.25,394.5526602749744,9.25,299.6951727648001,11.1,299.6951727648001C12.95,299.6951727648001,12.95,233.53551133895564,14.8,233.53551133895564C16.65,233.53551133895564,16.65,185.34338728045088,18.5,185.34338728045088C20.35,185.34338728045088,20.35,149.13401200388702,22.2,149.13401200388702C24.05,149.13401200388702,24.05,121.30616942949563,25.900000000000002,121.30616942949563C27.75,121.30616942949563,27.75,99.56325928433209,29.6,99.56325928433209C31.45,99.56325928433209,31.45,82.37176354125535,33.3,82.37176354125535C35.15,82.37176354125535,35.15,68.6687725074753,37,68.6687725074753C38.85,68.6687725074753,38.85,57.69444769455116,40.7,57.69444769455116C42.55,57.69444769455116,42.55,48.89129549924721,44.4,48.89129549924721C46.25,48.89129549924721,46.25,41.841105568314944,48.1,41.841105568314944C49.95,41.841105568314944,49.95,36.22408660956129,51.800000000000004,36.22408660956129C53.650000000000006,36.22408660956129,53.650000000000006,31.791589253762414,55.5,31.791589253762414C57.35,31.791589253762414,57.35,28.347422264390175,59.2,28.347422264390175C61.050000000000004,28.347422264390175,61.050000000000004,25.734761299810042,62.900000000000006,25.734761299810042C64.75,25.734761299810042,64.75,23.826790099858066,66.6,23.826790099858066C68.44999999999999,23.826790099858066,68.44999999999999,22.51988897096086,70.3,22.51988897096086C72.15,22.51988897096086,72.15,21.72859684098789,74,21.72859684098789C75.85,21.72859684098789,75.85,21.381830572634282,77.7,21.381830572634282C79.55000000000001,21.381830572634282,79.55000000000001,21.420010141260832,81.4,21.420010141260832C83.25,21.420010141260832,83.25,21.792846214104923,85.10000000000001,21.792846214104923C86.95,21.792846214104923,86.95,22.457618682843755,88.8,22.457618682843755C90.65,22.457618682843755,90.65,23.37782360671535,92.5,23.37782360671535C94.35,23.37782360671535,94.35,24.522099775120864,96.2,24.522099775120864C98.05000000000001,24.522099775120864,98.05000000000001,25.86336974029323,99.9,25.86336974029323C101.75,25.86336974029323,101.75,27.378146958710406,103.60000000000001,27.378146958710406C105.45,27.378146958710406,105.45,29.045972753122918,107.3,29.045972753122918C109.15,29.045972753122918,109.15,30.848955592133752,111,30.848955592133752C112.85,30.848955592133752,112.85,32.77139164701258,114.7,32.77139164701258C116.55000000000001,32.77139164701258,116.55000000000001,34.79945038847894,118.4,34.79945038847894C120.25,34.79945038847894,120.25,36.92091259001125,122.10000000000001,36.92091259001125C123.95000000000002,36.92091259001125,123.95000000000002,39.12495083252844,125.80000000000001,39.12495083252844C127.65,39.12495083252844,127.65,41.4019446881867,129.5,41.4019446881867C131.35,41.4019446881867,131.35,43.743324363815844,133.2,43.743324363815844C135.05,43.743324363815844,135.05,46.14143782708403,136.9,46.14143782708403C138.75,46.14143782708403,138.75,48.589437408596645,140.6,48.589437408596645C142.45,48.589437408596645,142.45,51.081182635573406,144.3,51.081182635573406C146.15,51.081182635573406,146.15,53.61115665579504,148,53.61115665579504C149.85,53.61115665579504,149.85,56.17439409031246,151.7,56.17439409031246C153.55,56.17439409031246,153.55,58.76641853736009,155.4,58.76641853736009C157.25,58.76641853736009,157.25,61.38318825880937,159.1,61.38318825880937C160.95,61.38318825880937,160.95,64.02104883030044,162.8,64.02104883030044C164.65,64.02104883030044,164.65,66.67669173919089,166.5,66.67669173919089C168.35000000000002,66.67669173919089,168.35000000000002,69.3471180802167,170.20000000000002,69.3471180802167C172.05,69.3471180802167,172.05,72.02960663469912,173.89999999999998,72.02960663469912C175.75,72.02960663469912,175.75,74.72168573109875,177.6,74.72168573109875C179.45,74.72168573109875,179.45,77.42110837732898,181.29999999999998,77.42110837732898C183.14999999999998,77.42110837732898,183.14999999999998,80.12583023212991,185,80.12583023212991C186.85000000000002,80.12583023212991,186.85000000000002,82.83399004689315,188.70000000000002,82.83399004689315C190.55,82.83399004689315,190.55,85.54389226292938,192.4,85.54389226292938C194.25,85.54389226292938,194.25,88.25399149417278,196.10000000000002,88.25399149417278C197.95000000000002,88.25399149417278,197.95000000000002,90.96287866320905,199.8,90.96287866320905C201.65000000000003,90.96287866320905,201.65000000000003,93.66926859053241,203.50000000000003,93.66926859053241C205.35000000000002,93.66926859053241,205.35000000000002,96.37198886407785,207.20000000000002,96.37198886407785C209.05,96.37198886407785,209.05,99.06996983914088,210.89999999999998,99.06996983914088C212.75,99.06996983914088,212.75,101.76223563846148,214.6,101.76223563846148C216.45,101.76223563846148,216.45,104.4478960390693,218.29999999999998,104.4478960390693C220.14999999999998,104.4478960390693,220.14999999999998,107.12613914689038,222,107.12613914689038C223.85,107.12613914689038,223.85,109.79622477250513,225.7,109.79622477250513C227.55,109.79622477250513,227.55,112.45747843212234,229.4,112.45747843212234C231.25,112.45747843212234,231.25,115.10928590704235,233.1,115.10928590704235C234.95,115.10928590704235,234.95,117.75108830286432,236.8,117.75108830286432C238.65,117.75108830286432,238.65,120.38237755662124,240.5,120.38237755662124C242.35000000000002,120.38237755662124,242.35000000000002,123.00269234603388,244.20000000000002,123.00269234603388C246.05,123.00269234603388,246.05,125.61161436032748,247.9,125.61161436032748C249.75,125.61161436032748,249.75,128.2087648966373,251.60000000000002,128.2087648966373C253.45,128.2087648966373,253.45,130.79380175003095,255.29999999999998,130.79380175003095C257.15,130.79380175003095,257.15,133.3664163686899,259,133.3664163686899C260.85,133.3664163686899,260.85,135.92633124888522,262.7,135.92633124888522C264.54999999999995,135.92633124888522,264.54999999999995,138.47329754708585,266.4,138.47329754708585C268.25,138.47329754708585,268.25,141.0070928889436,270.09999999999997,141.0070928889436C271.95,141.0070928889436,271.95,143.52751935700275,273.8,143.52751935700275C275.65,143.52751935700275,275.65,146.03440164085825,277.5,146.03440164085825C279.35,146.03440164085825,279.35,148.5275853351382,281.2,148.5275853351382C283.05,148.5275853351382,283.05,151.0069353721596,284.90000000000003,151.0069353721596C286.75,151.0069353721596,286.75,153.47233457740916,288.6,153.47233457740916C290.45000000000005,153.47233457740916,290.45000000000005,155.92368233716527,292.3,155.92368233716527C294.15,155.92368233716527,294.15,158.36089336861428,296,158.36089336861428C297.85,158.36089336861428,297.85,160.78389658373723,299.70000000000005,160.78389658373723C301.55,160.78389658373723,301.55,163.19263403907058,303.4,163.19263403907058C305.25,163.19263403907058,305.25,165.5870599641877,307.09999999999997,165.5870599641877C308.95,165.5870599641877,308.95,167.96713986240383,310.8,167.96713986240383C312.65,167.96713986240383,312.65,170.33284967781393,314.5,170.33284967781393C316.35,170.33284967781393,316.35,172.68417502329507,318.2,172.68417502329507C320.04999999999995,172.68417502329507,320.04999999999995,175.02111046459598,321.9,175.02111046459598C323.75,175.02111046459598,323.75,177.34365885606707,325.6,177.34365885606707C327.45000000000005,177.34365885606707,327.45000000000005,179.6518307239719,329.3,179.6518307239719C331.15,179.6518307239719,331.15,181.94564369367936,333,181.94564369367936C334.85,181.94564369367936,334.85,184.22512195735177,336.7,184.22512195735177C338.55,184.22512195735177,338.55,186.4902957790321,340.40000000000003,186.4902957790321C342.25,186.4902957790321,342.25,188.74120103429846,344.1,188.74120103429846C345.95,188.74120103429846,345.95,190.9778787818877,347.79999999999995,190.9778787818877C349.65,190.9778787818877,349.65,193.20037486490753,351.5,193.20037486490753C353.35,193.20037486490753,353.35,195.40873953944833,355.2,195.40873953944833C357.04999999999995,195.40873953944833,357.04999999999995,197.60302712859163,358.9,197.60302712859163C360.75,197.60302712859163,360.75,199.78329569996356,362.59999999999997,199.78329569996356C364.45,199.78329569996356,364.45,201.94960676513784,366.3,201.94960676513784C368.15,201.94960676513784,368.15,204.10202499932302,370,204.10202499932302C371.85,204.10202499932302,371.85,206.24061797989228,373.7,206.24061797989228C375.55,206.24061797989228,375.55,208.36545594242722,377.40000000000003,208.36545594242722C379.25,208.36545594242722,379.25,210.4766115530476,381.1,210.4766115530476C382.95000000000005,210.4766115530476,382.95000000000005,212.57415969589687,384.8,212.57415969589687C386.65,212.57415969589687,386.65,214.65817727473248,388.5,214.65817727473248C390.35,214.65817727473248,390.35,216.7287430276581,392.20000000000005,216.7287430276581C394.05000000000007,216.7287430276581,394.05000000000007,218.78593735409757,395.90000000000003,218.78593735409757C397.75,218.78593735409757,397.75,220.82984215318342,399.6,220.82984215318342C401.45000000000005,220.82984215318342,401.45000000000005,222.86054067279136,403.3,222.86054067279136C405.15000000000003,222.86054067279136,405.15000000000003,224.87811736850827,407.00000000000006,224.87811736850827C408.85,224.87811736850827,408.85,226.8826577718731,410.70000000000005,226.8826577718731C412.55000000000007,226.8826577718731,412.55000000000007,228.87424836727632,414.40000000000003,228.87424836727632C416.25,228.87424836727632,416.25,230.8529764769508,418.09999999999997,230.8529764769508C419.94999999999993,230.8529764769508,419.94999999999993,232.8189301535223,421.79999999999995,232.8189301535223C423.65,232.8189301535223,423.65,234.77219807962976,425.49999999999994,234.77219807962976C427.34999999999997,234.77219807962976,427.34999999999997,236.71286947415692,429.2,236.71286947415692C431.04999999999995,236.71286947415692,431.04999999999995,238.6410340046479,432.9,238.6410340046479C434.75,238.6410340046479,434.75,240.5567817055144,436.59999999999997,240.5567817055144C438.44999999999993,240.5567817055144,438.44999999999993,242.46020290166072,440.29999999999995,242.46020290166072C442.15,242.46020290166072,442.15,244.3513881371841,444,244.3513881371841C445.85,244.3513881371841,445.85,246.23042810883027,447.7,246.23042810883027C449.54999999999995,246.23042810883027,449.54999999999995,248.09741360390402,451.4,248.09741360390402C453.25,248.09741360390402,453.25,249.952435442354,455.09999999999997,249.952435442354C456.95,249.952435442354,456.95,251.79558442277326,458.8,251.79558442277326C460.65,251.79558442277326,460.65,253.6269512720703,462.5,253.6269512720703C464.35,253.6269512720703,464.35,255.4466265985819,466.2,255.4466265985819C468.05,255.4466265985819,468.05,257.25470084841743,469.90000000000003,257.25470084841743C471.75,257.25470084841743,471.75,259.0512642648332,473.6,259.0512642648332C475.45000000000005,259.0512642648332,475.45000000000005,260.83640685045157,477.3,260.83640685045157C479.15,260.83640685045157,479.15,262.6102183321492,481,262.6102183321492C482.85,262.6102183321492,482.85,264.37278812845364,484.70000000000005,264.37278812845364C486.55000000000007,264.37278812845364,486.55000000000007,266.1242053192921,488.40000000000003,266.1242053192921C490.25,266.1242053192921,490.25,267.8645586179514,492.1,267.8645586179514C493.95000000000005,267.8645586179514,493.95000000000005,269.5939363451147,495.8,269.5939363451147C497.65000000000003,269.5939363451147,497.65000000000003,271.31242640484646,499.50000000000006,271.31242640484646C501.35,271.31242640484646,501.35,273.02011626241176,503.20000000000005,273.02011626241176C505.05000000000007,273.02011626241176,505.05000000000007,274.71709292381524,506.90000000000003,274.71709292381524C508.75,274.71709292381524,508.75,276.4034429169579,510.59999999999997,276.4034429169579C512.4499999999999,276.4034429169579,512.4499999999999,278.07925227431264,514.3,278.07925227431264C516.15,278.07925227431264,516.15,279.74460651702947,518,279.74460651702947C519.8499999999999,279.74460651702947,519.8499999999999,281.39959064038,521.6999999999999,281.39959064038C523.55,281.39959064038,523.55,283.0442891004649,525.4,283.0442891004649C527.25,283.0442891004649,527.25,284.67878580210515,529.1,284.67878580210515C530.95,284.67878580210515,530.95,286.3031640878457,532.8,286.3031640878457C534.65,286.3031640878457,534.65,287.91750672800725,536.5,287.91750672800725C538.3499999999999,287.91750672800725,538.3499999999999,289.5218959117192,540.1999999999999,289.5218959117192C542.05,289.5218959117192,542.05,291.11641323887625,543.9,291.11641323887625C545.75,291.11641323887625,545.75,292.70113971296274,547.6,292.70113971296274C549.45,292.70113971296274,549.45,294.2761557346917,551.3,294.2761557346917C553.15,294.2761557346917,553.15,295.84154109640883,555,295.84154109640883C556.85,295.84154109640883,556.85,297.3973749772148,558.7,297.3973749772148C560.55,297.3973749772148,560.55,298.943735938762,562.4,298.943735938762C564.25,298.943735938762,564.25,300.48070192168564,566.1,300.48070192168564C567.95,300.48070192168564,567.95,302.0083502426269,569.8000000000001,302.0083502426269C571.6500000000001,302.0083502426269,571.6500000000001,303.5267575918146,573.5,303.5267575918146C575.35,303.5267575918146,575.35,305.0360000311704,577.2,305.0360000311704C579.05,305.0360000311704,579.05,306.5361529929017,580.9,306.5361529929017C582.75,306.5361529929017,582.75,308.02729127855736,584.6,308.02729127855736C586.45,308.02729127855736,586.45,309.50948905850976,588.3000000000001,309.50948905850976C590.1500000000001,309.50948905850976,590.1500000000001,310.9828198718428,592,310.9828198718428C593.85,310.9828198718428,593.85,312.44735662661645,595.7,312.44735662661645C597.5500000000001,312.44735662661645,597.5500000000001,313.90317160048335,599.4000000000001,313.90317160048335C601.25,313.90317160048335,601.25,315.35033644163633,603.0999999999999,315.35033644163633C604.9499999999999,315.35033644163633,604.9499999999999,316.78892217006353,606.8,316.78892217006353C608.65,316.78892217006353,608.65,318.21899917909224,610.5,318.21899917909224C612.3499999999999,318.21899917909224,612.3499999999999,319.640637237201,614.1999999999999,319.640637237201C616.05,319.640637237201,616.05,321.0539054900819,617.9,321.0539054900819C619.75,321.0539054900819,619.75,322.458872462937,621.6,322.458872462937C623.45,322.458872462937,623.45,323.8556060629911,625.3,323.8556060629911C627.15,323.8556060629911,627.15,325.2441735822082,629,325.2441735822082C630.8499999999999,325.2441735822082,630.8499999999999,326.62464170019297,632.6999999999999,326.62464170019297C634.55,326.62464170019297,634.55,327.99707648726854,636.4,327.99707648726854C638.25,327.99707648726854,638.25,329.3615434077145,640.1,329.3615434077145C641.95,329.3615434077145,641.95,330.7181073231543,643.8,330.7181073231543C645.65,330.7181073231543,645.65,332.0668324960797,647.5,332.0668324960797C649.35,332.0668324960797,649.35,333.40778259350316,651.2,333.40778259350316C653.05,333.40778259350316,653.05,334.74102069072677,654.9,334.74102069072677C656.75,334.74102069072677,656.75,336.0666092752179,658.6,336.0666092752179C660.45,336.0666092752179,660.45,337.3846102505834,662.3000000000001,337.3846102505834C664.1500000000001,337.3846102505834,664.1500000000001,338.6950849406342,666,338.6950849406342C667.85,338.6950849406342,667.85,339.9980940935296,669.7,339.9980940935296C671.55,339.9980940935296,671.55,341.2936978859981,673.4,341.2936978859981C675.25,341.2936978859981,675.25,342.58195592762314,677.1,342.58195592762314C678.95,342.58195592762314,678.95,343.86292726519093,680.8000000000001,343.86292726519093C682.6500000000001,343.86292726519093,682.6500000000001,345.13667038708894,684.5,345.13667038708894C686.35,345.13667038708894,686.35,346.4032432277573,688.2,346.4032432277573C690.0500000000001,346.4032432277573,690.0500000000001,347.66270317217686,691.9000000000001,347.66270317217686C693.75,347.66270317217686,693.75,348.91510706039844,695.5999999999999,348.91510706039844C697.4499999999999,348.91510706039844,697.4499999999999,350.16051119210175,699.3,350.16051119210175C701.15,350.16051119210175,701.15,351.39897133118194,703,351.39897133118194C704.8499999999999,351.39897133118194,704.8499999999999,352.63054271036,706.6999999999999,352.63054271036C708.55,352.63054271036,708.55,353.85528003580987,710.4,353.85528003580987C712.25,353.85528003580987,712.25,355.0732374918023,714.1,355.0732374918023C715.95,355.0732374918023,715.95,356.2844687453579,717.8,356.2844687453579C719.65,356.2844687453579,719.65,357.4890269509092,721.5,357.4890269509092C723.3499999999999,357.4890269509092,723.3499999999999,358.686964754966,725.1999999999999,358.686964754966C727.05,358.686964754966,727.05,359.87833430078234,728.9,359.87833430078234C730.75,359.87833430078234,730.75,361.06318723302223,732.6,361.06318723302223C734.45,361.06318723302223,734.45,362.24157470242005,736.3,362.24157470242005C738.15,362.24157470242005,738.15,363.4135473704355,740,363.4135473704355" stroke="#1f77b4" fill="none"/><text font-family="sans-serif" font-size="10" class="labels" x="77.7" y="21.381830572634282" dx="0" dy="-4" text-anchor="middle"/></g></g></g><text y="4" x="4" style="font-family: Arial, sans-serif; font-size: 12px; fill: black; font-weight: bold; dominant-baseline: hanging;"/></g><g id="grid"><rect x="0" y="0" width="805" height="600" fill="none" stroke="#ccc"/></g></g></svg>