<svg xmlns="http://www.w3.org/2000/svg" width="805" height="600"><rect width="805" height="600" x="0" y="0" fill="#FFFFFF" id="backgorund"/><g id="viz"><clipPath id="serieClipPath"><rect x="-50" y="-10" width="805" height="600"/></clipPath><g transform="translate(0,0)"><g transform="translate(50,10)" clip-path="url(#serieClipPath)"><g id="axis"><g transform="translate(0,570)" fill="none" font-size="10" font-family="sans-serif" text-anchor="middle"><path class="domain" stroke="currentColor" d="M0.5,6V0.5H740.5V6"/><g class="tick" opacity="1" transform="translate(0.5,0)"><line stroke="currentColor" y2="6"/><text fill="currentColor" y="9" dy="0.71em">0</text></g><g class="tick" opacity="1" transform="translate(74.5,0)"><line stroke="currentColor" y2="6"/><text fill="currentColor" y="9" dy="0.71em">20</text></g><g class="tick" opacity="1" transform="translate(148.5,0)"><line stroke="currentColor" y2="6"/><text fill="currentColor" y="9" dy="0.71em">40</text></g><g class="tick" opacity="1" transform="translate(222.5,0)"><line stroke="currentColor" y2="6"/><text fill="currentColor" y="9" dy="0.71em">60</text></g><g class="tick" opacity="1" transform="translate(296.5,0)"><line stroke="currentColor" y2="6"/><text fill="currentColor" y="9" dy="0.71em">80</text></g><g class="tick" opacity="1" transform="translate(370.5,0)"><line stroke="currentColor" y2="6"/><text fill="currentColor" y="9" dy="0.71em">100</text></g><g class="tick" opacity="1" transform="translate(444.5,0)"><line stroke="currentColor" y2="6"/><text fill="currentColor" y="9" dy="0.71em">120</text></g><g class="tick" opacity="1" transform="translate(518.5,0)"><line stroke="currentColor" y2="6"/><text fill="currentColor" y="9" dy="0.71em">140</text></g><g class="tick" opacity="1" transform="translate(592.5,0)"><line stroke="currentColor" y2="6"/><text fill="currentColor" y="9" dy="0.71em">160</text></g><g class="tick" opacity="1" transform="translate(666.5,0)"><line stroke="currentColor" y2="6"/><text fill="currentColor" y="9" dy="0.71em">180</text></g><g class="tick" opacity="1" transform="translate(740.5,0)"><line stroke="currentColor" y2="6"/><text fill="currentColor" y="9" dy="0.71em">200</text></g><text x="740" dy="-5" text-anchor="end" style="font-family: Arial, sans-serif; font-size: 12px; fill: rgb(123, 123, 123); font-weight: bold;">Concurrency Level</text></g><g transform="translate(0,0)" fill="none" font-size="10" font-family="sans-serif" text-anchor="end"><path class="domain" stroke="currentColor" d="M0.5,570.5V0.5"/><g class="tick" opacity="1" transform="translate(0,570.5)"><line stroke="currentColor" x2="-6"/><text fill="currentColor" x="-9" dy="0.32em">600</text></g><g class="tick" opacity="1" transform="translate(0,499.25)"><line stroke="currentColor" x2="-6"/><text fill="currentColor" x="-9" dy="0.32em">800</text></g><g class="tick" opacity="1" transform="translate(0,428)"><line stroke="currentColor" x2="-6"/><text fill="currentColor" x="-9" dy="0.32em">1,000</text></g><g class="tick" opacity="1" transform="translate(0,356.75)"><line stroke="currentColor" x2="-6"/><text fill="currentColor" x="-9" dy="0.32em">1,200</text></g><g class="tick" opacity="1" transform="translate(0,285.5)"><line stroke="currentColor" x2="-6"/><text fill="currentColor" x="-9" dy="0.32em">1,400</text></g><g class="tick" opacity="1" transform="translate(0,214.25)"><line stroke="currentColor" x2="-6"/><text fill="currentColor" x="-9" dy="0.32em">1,600</text></g><g class="tick" opacity="1" transform="translate(0,143)"><line stroke="currentColor" x2="-6"/><text fill="currentColor" x="-9" dy="0.32em">1,800</text></g><g class="tick" opacity="1" transform="translate(0,71.75)"><line stroke="currentColor" x2="-6"/><text fill="currentColor" x="-9" dy="0.32em">2,000</text></g><g class="tick" opacity="1" transform="translate(0,0.5)"><line stroke="currentColor" x2="-6"/><text fill="currentColor" x="-9" dy="0.32em">2,200</text></g><text x="4" text-anchor="start" dominant-baseline="hanging" style="font-family: Arial, sans-serif; font-size: 12px; fill: rgb(123, 123, 123); font-weight: bold;">Throughput (rps)</text></g></g><g id="viz"><g><path d="M3.7,556.5215678273116C5.550000000000001,556.5215678273116,5.550000000000001,409.8145272934358,7.4,409.8145272934358C9.25,409.8145272934358,9.25,309.96774895494633,11.1,309.96774895494633C12.95,309.96774895494633,12.95,239.63424295298606,14.8,239.63424295298606C16.65,239.63424295298606,16.65,188.97772035698182,18.5,188.97772035698182C20.35,188.97772035698182,20.35,152.01333928781202,22.2,152.01333928781202C24.05,152.01333928781202,24.05,124.89705534294967,25.900000000000002,124.89705534294967C27.75,124.89705534294967,27.75,105.05174853981953,29.6,105.05174853981953C31.45,105.05174853981953,31.45,90.68865447797201,33.3,90.68865447797201C35.15,90.68865447797201,35.15,80.53015146873018,37,80.53015146873018C38.85,80.53015146873018,38.85,73.64157707348626,40.7,73.64157707348626C42.55,73.64157707348626,42.55,69.32515038093662,44.4,69.32515038093662C46.25,69.32515038093662,46.25,67.05081602326622,48.1,67.05081602326622C49.95,67.05081602326622,49.95,66.40985537720759,51.800000000000004,66.40985537720759C53.650000000000006,66.40985537720759,53.650000000000006,67.08298803477048,55.5,67.08298803477048C57.35,67.08298803477048,57.35,68.8179542537592,59.2,68.8179542537592C61.050000000000004,68.8179542537592,61.050000000000004,71.4134538973068,62.900000000000006,71.4134538973068C64.75,71.4134538973068,64.75,74.70744033579138,66.6,74.70744033579138C68.44999999999999,74.70744033579138,68.44999999999999,78.56845633482475,70.3,78.56845633482475C72.15,78.56845633482475,72.15,82.88913210157072,74,82.88913210157072C75.85,82.88913210157072,75.85,87.5812444909163,77.7,87.5812444909163C79.55000000000001,87.5812444909163,79.55000000000001,92.57191963584164,81.4,92.57191963584164C83.25,92.57191963584164,83.25,97.80068401406106,85.10000000000001,97.80068401406106C86.95,97.80068401406106,86.95,103.21715260685065,88.8,103.21715260685065C90.65,103.21715260685065,90.65,108.77920070962068,92.5,108.77920070962068C94.35,108.77920070962068,94.35,114.45150662383665,96.2,114.45150662383665C98.05000000000001,114.45150662383665,98.05000000000001,120.2043814100583,99.9,120.2043814100583C101.75,120.2043814100583,101.75,126.01282274594215,103.60000000000001,126.01282274594215C105.45,126.01282274594215,105.45,131.85574514309752,107.3,131.85574514309752C109.15,131.85574514309752,109.15,137.71534998387725,111,137.71534998387725C112.85,137.71534998387725,112.85,143.57660717952874,114.7,143.57660717952874C116.55000000000001,143.57660717952874,116.55000000000001,149.42682651593893,118.4,149.42682651593893C120.25,149.42682651593893,120.25,155.25530150012244,122.10000000000001,155.25530150012244C123.95000000000002,155.25530150012244,123.95000000000002,161.05301214689564,125.80000000000001,161.05301214689564C127.65,161.05301214689564,127.65,166.81237593671,129.5,166.81237593671C131.35,166.81237593671,131.35,172.52703834014258,133.2,172.52703834014258C135.05,172.52703834014258,135.05,178.19169599435375,136.9,178.19169599435375C138.75,178.19169599435375,138.75,183.80194694453374,140.6,183.80194694453374C142.45,183.80194694453374,142.45,189.35416341293367,144.3,189.35416341293367C146.15,189.35416341293367,146.15,194.8453833925616,148,194.8453833925616C149.85,194.8453833925616,149.85,200.27321802972935,151.7,200.27321802972935C153.55,200.27321802972935,153.55,205.63577229569617,155.4,205.63577229569617C157.25,205.63577229569617,157.25,210.9315768805441,159.1,210.9315768805441C160.95,210.9315768805441,160.95,216.15952959362627,162.8,216.15952959362627C164.65,216.15952959362627,164.65,221.31884484113914,166.5,221.31884484113914C168.35000000000002,221.31884484113914,168.35000000000002,226.40900998560053,170.20000000000002,226.40900998560053C172.05,226.40900998560053,172.05,231.42974758448668,173.89999999999998,231.42974758448668C175.75,231.42974758448668,175.75,236.38098266405376,177.6,236.38098266405376C179.45,236.38098266405376,179.45,241.26281431580986,181.29999999999998,241.26281431580986C183.14999999999998,241.26281431580986,183.14999999999998,246.0754910123247,185,246.0754910123247C186.85000000000002,246.0754910123247,186.85000000000002,250.81938913011012,188.70000000000002,250.81938913011012C190.55,250.81938913011012,190.55,255.494994243453,192.4,255.494994243453C194.25,255.494994243453,194.25,260.10288481696585,196.10000000000002,260.10288481696585C197.95000000000002,260.10288481696585,197.95000000000002,264.6437179783754,199.8,264.6437179783754C201.65000000000003,264.6437179783754,201.65000000000003,269.118217098423,203.50000000000003,269.118217098423C205.35000000000002,269.118217098423,205.35000000000002,273.5271609431374,207.20000000000002,273.5271609431374C209.05,273.5271609431374,209.05,277.8713741962884,210.89999999999998,277.8713741962884C212.75,277.8713741962884,212.75,282.1517191775254,214.6,282.1517191775254C216.45,282.1517191775254,216.45,286.36908860530673,218.29999999999998,286.36908860530673C220.14999999999998,286.36908860530673,220.14999999999998,290.52439927389855,222,290.52439927389855C223.85,290.52439927389855,223.85,294.61858653099074,225.7,294.61858653099074C227.55,294.61858653099074,227.55,298.6525994573086,229.4,298.6525994573086C231.25,298.6525994573086,231.25,302.62739666234177,233.1,302.62739666234177C234.95,302.62739666234177,234.95,306.54394262130114,236.8,306.54394262130114C238.65,306.54394262130114,238.65,310.4032044878992,240.5,310.4032044878992C242.35000000000002,310.4032044878992,242.35000000000002,314.20614932574983,244.20000000000002,314.20614932574983C246.05,314.20614932574983,246.05,317.95374170829285,247.9,317.95374170829285C249.75,317.95374170829285,249.75,321.64694164332036,251.60000000000002,321.64694164332036C253.45,321.64694164332036,253.45,325.28670278353707,255.29999999999998,325.28670278353707C257.15,325.28670278353707,257.15,328.8739708892641,259,328.8739708892641C260.85,328.8739708892641,260.85,332.409682513466,262.7,332.409682513466C264.54999999999995,332.409682513466,264.54999999999995,335.8947638828301,266.4,335.8947638828301C268.25,335.8947638828301,268.25,339.3301299517463,270.09999999999997,339.3301299517463C271.95,339.3301299517463,271.95,342.71668360875316,273.8,342.71668360875316C275.65,342.71668360875316,275.65,346.0553150174034,277.5,346.0553150174034C279.35,346.0553150174034,279.35,349.3469010756008,281.2,349.3469010756008C283.05,349.3469010756008,283.05,352.59230497930207,284.90000000000003,352.59230497930207C286.75,352.59230497930207,286.75,355.79237587809644,288.6,355.79237587809644C290.45000000000005,355.79237587809644,290.45000000000005,358.9479486116069,292.3,358.9479486116069C294.15,358.9479486116069,294.15,362.0598435169161,296,362.0598435169161C297.85,362.0598435169161,297.85,365.1288662983279,299.70000000000005,365.1288662983279C301.55,365.1288662983279,301.55,368.15580795176584,303.4,368.15580795176584C305.25,368.15580795176584,305.25,371.1414447369681,307.09999999999997,371.1414447369681C308.95,371.1414447369681,308.95,374.08653819141824,310.8,374.08653819141824C312.65,374.08653819141824,312.65,376.99183518062637,314.5,376.99183518062637C316.35,376.99183518062637,316.35,379.8580679799778,318.2,379.8580679799778C320.04999999999995,379.8580679799778,320.04999999999995,382.6859543839091,321.9,382.6859543839091C323.75,382.6859543839091,323.75,385.4761978386408,325.6,385.4761978386408C327.45000000000005,385.4761978386408,327.45000000000005,388.2294875951226,329.3,388.2294875951226C331.15,388.2294875951226,331.15,390.9464988792215,333,390.9464988792215C334.85,390.9464988792215,334.85,393.6278930765181,336.7,393.6278930765181C338.55,393.6278930765181,338.55,396.2743179293738,340.40000000000003,396.2743179293738C342.25,396.2743179293738,342.25,398.8864077441961,344.1,398.8864077441961C345.95,398.8864077441961,345.95,401.46478360706766,347.79999999999995,401.46478360706766C349.65,401.46478360706766,349.65,404.0100536061118,351.5,404.0100536061118C353.35,404.0100536061118,353.35,406.52281305915693,355.2,406.52281305915693C357.04999999999995,406.52281305915693,357.04999999999995,409.00364474543187,358.9,409.00364474543187C360.75,409.00364474543187,360.75,411.45311914016486,362.59999999999997,411.45311914016486C364.45,411.45311914016486,364.45,413.871794651105,366.3,413.871794651105C368.15,413.871794651105,368.15,416.26021785609254,370,416.26021785609254C371.85,416.26021785609254,371.85,418.6189237409161,373.7,418.6189237409161C375.55,418.6189237409161,375.55,420.94843593678763,377.40000000000003,420.94843593678763C379.25,420.94843593678763,379.25,423.24926695685315,381.1,423.24926695685315C382.95000000000005,423.24926695685315,382.95000000000005,425.52191843122785,384.8,425.52191843122785C386.65,425.52191843122785,386.65,427.76688134011647,388.5,427.76688134011647C390.35,427.76688134011647,390.35,429.9846362446367,392.20000000000005,429.9846362446367C394.05000000000007,429.9846362446367,394.05000000000007,432.1756535150181,395.90000000000003,432.1756535150181C397.75,432.1756535150181,397.75,434.3403935558964,399.6,434.3403935558964C401.45000000000005,434.3403935558964,401.45000000000005,436.4793070284656,403.3,436.4793070284656C405.15000000000003,436.4793070284656,405.15000000000003,438.5928350692897,407.00000000000006,438.5928350692897C408.85,438.5928350692897,408.85,440.6814095056053,410.70000000000005,440.6814095056053C412.55000000000007,440.6814095056053,412.55000000000007,442.74545306698195,414.40000000000003,442.74545306698195C416.25,442.74545306698195,416.25,444.78537959322927,418.09999999999997,444.78537959322927C419.94999999999993,444.78537959322927,419.94999999999993,446.80159423846675,421.79999999999995,446.80159423846675C423.65,446.80159423846675,423.65,448.79449367128905,425.49999999999994,448.79449367128905C427.34999999999997,448.79449367128905,427.34999999999997,450.7644662709834,429.2,450.7644662709834C431.04999999999995,450.7644662709834,431.04999999999995,452.71189231976757,432.9,452.71189231976757C434.75,452.71189231976757,434.75,454.6371441910333,436.59999999999997,454.6371441910333C438.44999999999993,454.6371441910333,438.44999999999993,456.54058653359397,440.29999999999995,456.54058653359397C442.15,456.54058653359397,442.15,458.4225764519419,444,458.4225764519419C445.85,458.4225764519419,445.85,460.28346368253784,447.7,460.28346368253784C449.54999999999995,460.28346368253784,449.54999999999995,462.1235907661556,451.4,462.1235907661556C453.25,462.1235907661556,453.25,463.9432932163189,455.09999999999997,463.9432932163189C456.95,463.9432932163189,456.95,465.74289968386944,458.8,465.74289968386944C460.65,465.74289968386944,460.65,467.52273211771205,462.5,467.52273211771205C464.35,467.52273211771205,464.35,469.28310592179093,466.2,469.28310592179093C468.05,469.28310592179093,468.05,471.0243301083471,469.90000000000003,471.0243301083471C471.75,471.0243301083471,471.75,472.7467074475193,473.6,472.7467074475193C475.45000000000005,472.7467074475193,475.45000000000005,474.45053461334777,477.3,474.45053461334777C479.15,474.45053461334777,479.15,476.1361023262437,481,476.1361023262437C482.85,476.1361023262437,482.85,477.8036954919917,484.70000000000005,477.8036954919917C486.55000000000007,477.8036954919917,486.55000000000007,479.45359333734837,488.40000000000003,479.45359333734837C490.25,479.45359333734837,490.25,481.0860695423095,492.1,481.0860695423095C493.95000000000005,481.0860695423095,493.95000000000005,482.7013923691087,495.8,482.7013923691087C497.65000000000003,482.7013923691087,497.65000000000003,484.29982478802197,499.50000000000006,484.29982478802197C501.35,484.29982478802197,501.35,485.8816246000431,503.20000000000005,485.8816246000431C505.05000000000007,485.8816246000431,505.05000000000007,487.4470445565013,506.90000000000003,487.4470445565013C508.75,487.4470445565013,508.75,488.99633247568954,510.59999999999997,488.99633247568954C512.4499999999999,488.99633247568954,512.4499999999999,490.5297313565722,514.3,490.5297313565722C516.15,490.5297313565722,516.15,492.04747948964024,518,492.04747948964024C519.8499999999999,492.04747948964024,519.8499999999999,493.54981056498144,521.6999999999999,493.54981056498144C523.55,493.54981056498144,523.55,495.0369537776324,525.4,495.0369537776324C527.25,495.0369537776324,527.25,496.5091339302784,529.1,496.5091339302784C530.95,496.5091339302784,530.95,497.9665715333667,532.8,497.9665715333667C534.65,497.9665715333667,534.65,499.4094829026954,536.5,499.4094829026954C538.3499999999999,499.4094829026954,538.3499999999999,500.8380802545445,540.1999999999999,500.8380802545445C542.05,500.8380802545445,542.05,502.2525717984072,543.9,502.2525717984072C545.75,502.2525717984072,545.75,503.65316182738457,547.6,503.65316182738457C549.45,503.65316182738457,549.45,505.0400508063033,551.3,505.0400508063033C553.15,505.0400508063033,553.15,506.413435457614,555,506.413435457614C556.85,506.413435457614,556.85,507.77350884512737,558.7,507.77350884512737C560.55,507.77350884512737,560.55,509.12046045564597,562.4,509.12046045564597C564.25,509.12046045564597,564.25,510.4544762785446,566.1,510.4544762785446C567.95,510.4544762785446,567.95,511.7757388833532,569.8000000000001,511.7757388833532C571.6500000000001,511.7757388833532,571.6500000000001,513.0844274953957,573.5,513.0844274953957C575.35,513.0844274953957,575.35,514.3807180695355,577.2,514.3807180695355C579.05,514.3807180695355,579.05,515.6647833620765,580.9,515.6647833620765C582.75,515.6647833620765,582.75,516.9367930008705,584.6,516.9367930008705C586.45,516.9367930008705,586.45,518.1969135536768,588.3000000000001,518.1969135536768C590.1500000000001,518.1969135536768,590.1500000000001,519.4453085948217,592,519.4453085948217C593.85,519.4453085948217,593.85,520.6821387702003,595.7,520.6821387702003C597.5500000000001,520.6821387702003,597.5500000000001,521.9075618606706,599.4000000000001,521.9075618606706C601.25,521.9075618606706,601.25,523.1217328438754,603.0999999999999,523.1217328438754C604.9499999999999,523.1217328438754,604.9499999999999,524.3248039545396,606.8,524.3248039545396C608.65,524.3248039545396,608.65,525.516924743281,610.5,525.516924743281C612.3499999999999,525.516924743281,612.3499999999999,526.6982421339746,614.1999999999999,526.6982421339746C616.05,526.6982421339746,616.05,527.8689004797097,617.9,527.8689004797097C619.75,527.8689004797097,619.75,529.0290416173762,621.6,529.0290416173762C623.45,529.0290416173762,623.45,530.1788049209183,625.3,530.1788049209183C627.15,530.1788049209183,627.15,531.31832735329,629,531.31832735329C630.8499999999999,531.31832735329,630.8499999999999,532.4477435171466,632.6999999999999,532.4477435171466C634.55,532.4477435171466,634.55,533.5671857043075,636.4,533.5671857043075C638.25,533.5671857043075,638.25,534.6767839440218,640.1,534.6767839440218C641.95,534.6767839440218,641.95,535.7766660500693,643.8,535.7766660500693C645.65,535.7766660500693,645.65,536.8669576667263,647.5,536.8669576667263C649.35,536.8669576667263,649.35,537.9477823136295,651.2,537.9477823136295C653.05,537.9477823136295,653.05,539.0192614295638,654.9,539.0192614295638C656.75,539.0192614295638,656.75,540.0815144152045,658.6,540.0815144152045C660.45,540.0815144152045,660.45,541.1346586748414,662.3000000000001,541.1346586748414C664.1500000000001,541.1346586748414,664.1500000000001,542.178809657111,666,542.178809657111C667.85,542.178809657111,667.85,543.2140808947645,669.7,543.2140808947645C671.55,543.2140808947645,671.55,544.2405840434942,673.4,544.2405840434942C675.25,544.2405840434942,675.25,545.2584289198467,677.1,545.2584289198467C678.95,545.2584289198467,678.95,546.2677235382437,680.8000000000001,546.2677235382437C682.6500000000001,546.2677235382437,682.6500000000001,547.2685741471364,684.5,547.2685741471364C686.35,547.2685741471364,686.35,548.2610852643135,688.2,548.2610852643135C690.0500000000001,548.2610852643135,690.0500000000001,549.2453597113881,691.9000000000001,549.2453597113881C693.75,549.2453597113881,693.75,550.2214986474813,695.5999999999999,550.2214986474813C697.4499999999999,550.2214986474813,697.4499999999999,551.1896016021274,699.3,551.1896016021274C701.15,551.1896016021274,701.15,552.149766507417,703,552.149766507417C704.8499999999999,552.149766507417,704.8499999999999,553.1020897294006,706.6999999999999,553.1020897294006C708.55,553.1020897294006,708.55,554.0466660987713,710.4,554.0466660987713C712.25,554.0466660987713,712.25,554.9835889408432,714.1,554.9835889408432C715.95,554.9835889408432,715.95,555.9129501048471,717.8,555.9129501048471C719.65,555.9129501048471,719.65,556.8348399925575,721.5,556.8348399925575C723.3499999999999,556.8348399925575,723.3499999999999,557.7493475862713,725.1999999999999,557.7493475862713C727.05,557.7493475862713,727.05,558.6565604761516,728.9,558.6565604761516C730.75,558.6565604761516,730.75,559.5565648869567,732.6,559.5565648869567C734.45,559.5565648869567,734.45,560.4494457041648,736.3,560.4494457041648C738.15,560.4494457041648,738.15,561.3352864995151,740,561.3352864995151" stroke="#1f77b4" fill="none"/><text font-family="sans-serif" font-size="10" class="labels" x="51.800000000000004" y="66.40985537720759" dx="0" dy="-4" text-anchor="middle"/></g></g></g><text y="4" x="4" style="font-family: Arial, sans-serif; font-size: 12px; fill: black; font-weight: bold; dominant-baseline: hanging;"/></g><g id="grid"><rect x="0" y="0" width="805" height="600" fill="none" stroke="#ccc"/></g></g></svg>