<svg xmlns="http://www.w3.org/2000/svg" width="805" height="600"><rect width="805" height="600" x="0" y="0" fill="#FFFFFF" id="backgorund"/><g id="viz"><clipPath id="serieClipPath"><rect x="-50" y="-10" width="805" height="600"/></clipPath><g transform="translate(0,0)"><g transform="translate(50,10)" clip-path="url(#serieClipPath)"><g id="axis"><g transform="translate(0,570)" fill="none" font-size="10" font-family="sans-serif" text-anchor="middle"><path class="domain" stroke="currentColor" d="M0.5,6V0.5H740.5V6"/><g class="tick" opacity="1" transform="translate(0.5,0)"><line stroke="currentColor" y2="6"/><text fill="currentColor" y="9" dy="0.71em">0</text></g><g class="tick" opacity="1" transform="translate(74.5,0)"><line stroke="currentColor" y2="6"/><text fill="currentColor" y="9" dy="0.71em">20</text></g><g class="tick" opacity="1" transform="translate(148.5,0)"><line stroke="currentColor" y2="6"/><text fill="currentColor" y="9" dy="0.71em">40</text></g><g class="tick" opacity="1" transform="translate(222.5,0)"><line stroke="currentColor" y2="6"/><text fill="currentColor" y="9" dy="0.71em">60</text></g><g class="tick" opacity="1" transform="translate(296.5,0)"><line stroke="currentColor" y2="6"/><text fill="currentColor" y="9" dy="0.71em">80</text></g><g class="tick" opacity="1" transform="translate(370.5,0)"><line stroke="currentColor" y2="6"/><text fill="currentColor" y="9" dy="0.71em">100</text></g><g class="tick" opacity="1" transform="translate(444.5,0)"><line stroke="currentColor" y2="6"/><text fill="currentColor" y="9" dy="0.71em">120</text></g><g class="tick" opacity="1" transform="translate(518.5,0)"><line stroke="currentColor" y2="6"/><text fill="currentColor" y="9" dy="0.71em">140</text></g><g class="tick" opacity="1" transform="translate(592.5,0)"><line stroke="currentColor" y2="6"/><text fill="currentColor" y="9" dy="0.71em">160</text></g><g class="tick" opacity="1" transform="translate(666.5,0)"><line stroke="currentColor" y2="6"/><text fill="currentColor" y="9" dy="0.71em">180</text></g><g class="tick" opacity="1" transform="translate(740.5,0)"><line stroke="currentColor" y2="6"/><text fill="currentColor" y="9" dy="0.71em">200</text></g><text x="740" dy="-5" text-anchor="end" style="font-family: Arial, sans-serif; font-size: 12px; fill: rgb(123, 123, 123); font-weight: bold;">Concurrency Level</text></g><g transform="translate(0,0)" fill="none" font-size="10" font-family="sans-serif" text-anchor="end"><path class="domain" stroke="currentColor" d="M0.5,570.5V0.5"/><g class="tick" opacity="1" transform="translate(0,570.5)"><line stroke="currentColor" x2="-6"/><text fill="currentColor" x="-9" dy="0.32em">300</text></g><g class="tick" opacity="1" transform="translate(0,499.25)"><line stroke="currentColor" x2="-6"/><text fill="currentColor" x="-9" dy="0.32em">400</text></g><g class="tick" opacity="1" transform="translate(0,428)"><line stroke="currentColor" x2="-6"/><text fill="currentColor" x="-9" dy="0.32em">500</text></g><g class="tick" opacity="1" transform="translate(0,356.75)"><line stroke="currentColor" x2="-6"/><text fill="currentColor" x="-9" dy="0.32em">600</text></g><g class="tick" opacity="1" transform="translate(0,285.5)"><line stroke="currentColor" x2="-6"/><text fill="currentColor" x="-9" dy="0.32em">700</text></g><g class="tick" opacity="1" transform="translate(0,214.25)"><line stroke="currentColor" x2="-6"/><text fill="currentColor" x="-9" dy="0.32em">800</text></g><g class="tick" opacity="1" transform="translate(0,143)"><line stroke="currentColor" x2="-6"/><text fill="currentColor" x="-9" dy="0.32em">900</text></g><g class="tick" opacity="1" transform="translate(0,71.75)"><line stroke="currentColor" x2="-6"/><text fill="currentColor" x="-9" dy="0.32em">1,000</text></g><g class="tick" opacity="1" transform="translate(0,0.5)"><line stroke="currentColor" x2="-6"/><text fill="currentColor" x="-9" dy="0.32em">1,100</text></g><text x="4" text-anchor="start" dominant-baseline="hanging" style="font-family: Arial, sans-serif; font-size: 12px; fill: rgb(123, 123, 123); font-weight: bold;">Throughput (rps)</text></g></g><g id="viz"><g><path d="M3.7,498.8189126419526C5.550000000000001,498.8189126419526,5.550000000000001,340.32267371344346,7.4,340.32267371344346C9.25,340.32267371344346,9.25,242.06371704049002,11.1,242.06371704049002C12.95,242.06371704049002,12.95,177.08618976041083,14.8,177.08618976041083C16.65,177.08618976041083,16.65,132.35650798602342,18.5,132.35650798602342C20.35,132.35650798602342,20.35,100.80681527352536,22.2,100.80681527352536C24.05,100.80681527352536,24.05,78.27505291913789,25.900000000000002,78.27505291913789C27.75,78.27505291913789,27.75,62.15300523004223,29.6,62.15300523004223C31.45,62.15300523004223,31.45,50.72475863631118,33.3,50.72475863631118C35.15,50.72475863631118,35.15,42.81650750650868,37,42.81650750650868C38.85,42.81650750650868,38.85,37.5991955777021,40.7,37.5991955777021C42.55,37.5991955777021,42.55,34.471456989419565,44.4,34.471456989419565C46.25,34.471456989419565,46.25,32.9871658598148,48.1,32.9871658598148C49.95,32.9871658598148,49.95,32.80895042385403,51.800000000000004,32.80895042385403C53.650000000000006,32.80895042385403,53.650000000000006,33.67743099873785,55.5,33.67743099873785C57.35,33.67743099873785,57.35,35.3903106162649,59.2,35.3903106162649C61.050000000000004,35.3903106162649,61.050000000000004,37.78782548113894,62.900000000000006,37.78782548113894C64.75,37.78782548113894,64.75,40.74240914250957,66.6,40.74240914250957C68.44999999999999,40.74240914250957,68.44999999999999,44.151213709236316,70.3,44.151213709236316C72.15,44.151213709236316,72.15,47.930608563798174,74,47.930608563798174C75.85,47.930608563798174,75.85,52.01207334122947,77.7,52.01207334122947C79.55000000000001,52.01207334122947,79.55000000000001,56.339090495602626,81.4,56.339090495602626C83.25,56.339090495602626,83.25,60.86476542526224,85.10000000000001,60.86476542526224C86.95,60.86476542526224,86.95,65.54998350833422,88.8,65.54998350833422C90.65,65.54998350833422,90.65,70.36196838397562,92.5,70.36196838397562C94.35,70.36196838397562,94.35,75.27314358416226,96.2,75.27314358416226C98.05000000000001,75.27314358416226,98.05000000000001,80.26022596223602,99.9,80.26022596223602C101.75,80.26022596223602,101.75,85.3034979945684,103.60000000000001,85.3034979945684C105.45,85.3034979945684,105.45,90.38621937949556,107.3,90.38621937949556C109.15,90.38621937949556,109.15,95.49414803620311,111,95.49414803620311C112.85,95.49414803620311,112.85,100.61514770282139,114.7,100.61514770282139C116.55000000000001,100.61514770282139,116.55000000000001,105.73886459072635,118.4,105.73886459072635C120.25,105.73886459072635,120.25,110.85645948539363,122.10000000000001,110.85645948539363C123.95000000000002,110.85645948539363,123.95000000000002,115.9603846535638,125.80000000000001,115.9603846535638C127.65,115.9603846535638,127.65,121.0441971773749,129.5,121.0441971773749C131.35,121.0441971773749,131.35,126.1024020713829,133.2,126.1024020713829C135.05,126.1024020713829,135.05,131.1303198803209,136.9,131.1303198803209C138.75,131.1303198803209,138.75,136.1239745006009,140.6,136.1239745006009C142.45,136.1239745006009,142.45,141.07999778806342,144.3,141.07999778806342C146.15,141.07999778806342,146.15,145.99554816114764,148,145.99554816114764C149.85,145.99554816114764,149.85,150.8682409220087,151.7,150.8682409220087C153.55,150.8682409220087,153.55,155.6960884279867,155.4,155.6960884279867C157.25,155.6960884279867,157.25,160.47744857484994,159.1,160.47744857484994C160.95,160.47744857484994,160.95,165.2109803187279,162.8,165.2109803187279C164.65,165.2109803187279,164.65,169.89560517892428,166.5,169.89560517892428C168.35000000000002,169.89560517892428,168.35000000000002,174.53047383917584,170.20000000000002,174.53047383917584C172.05,174.53047383917584,172.05,179.11493710844354,173.89999999999998,179.11493710844354C175.75,179.11493710844354,175.75,183.6485206202589,177.6,183.6485206202589C179.45,183.6485206202589,179.45,188.1309027469654,181.29999999999998,188.1309027469654C183.14999999999998,188.1309027469654,183.14999999999998,192.56189528581524,185,192.56189528581524C186.85000000000002,192.56189528581524,186.85000000000002,196.94142654090254,188.70000000000002,196.94142654090254C190.55,196.94142654090254,190.55,201.2695264808484,192.4,201.2695264808484C194.25,201.2695264808484,194.25,205.54631369898004,196.10000000000002,205.54631369898004C197.95000000000002,205.54631369898004,197.95000000000002,209.77198394207886,199.8,209.77198394207886C201.65000000000003,209.77198394207886,201.65000000000003,213.94680000692668,203.50000000000003,213.94680000692668C205.35000000000002,213.94680000692668,205.35000000000002,218.07108283188705,207.20000000000002,218.07108283188705C209.05,218.07108283188705,209.05,222.1452036345148,210.89999999999998,222.1452036345148C212.75,222.1452036345148,212.75,226.16957696636814,214.6,226.16957696636814C216.45,226.16957696636814,216.45,230.14465457340444,218.29999999999998,230.14465457340444C220.14999999999998,230.14465457340444,220.14999999999998,234.07091996504158,222,234.07091996504158C223.85,234.07091996504158,223.85,237.9488836075628,225.7,237.9488836075628C227.55,237.9488836075628,227.55,241.77907866835258,229.4,241.77907866835258C231.25,241.77907866835258,231.25,245.56205724676195,233.1,245.56205724676195C234.95,245.56205724676195,234.95,249.2983870354252,236.8,249.2983870354252C238.65,249.2983870354252,238.65,252.9886483627917,240.5,252.9886483627917C242.35000000000002,252.9886483627917,242.35000000000002,256.63343157364693,244.20000000000002,256.63343157364693C246.05,256.63343157364693,246.05,260.2333347096081,247.9,260.2333347096081C249.75,260.2333347096081,249.75,263.78896145612396,251.60000000000002,263.78896145612396C253.45,263.78896145612396,253.45,267.3009193264519,255.29999999999998,267.3009193264519C257.15,267.3009193264519,257.15,270.76981805653793,259,270.76981805653793C260.85,270.76981805653793,260.85,274.19626818773855,262.7,274.19626818773855C264.54999999999995,274.19626818773855,264.54999999999995,277.580879816966,266.4,277.580879816966C268.25,277.580879816966,268.25,280.92426149614835,270.09999999999997,280.92426149614835C271.95,280.92426149614835,271.95,284.22701926493585,273.8,284.22701926493585C275.65,284.22701926493585,275.65,287.48975580236953,277.5,287.48975580236953C279.35,287.48975580236953,279.35,290.71306968480906,281.2,290.71306968480906C283.05,290.71306968480906,283.05,293.89755473880166,284.90000000000003,293.89755473880166C286.75,293.89755473880166,286.75,297.0437994788111,288.6,297.0437994788111C290.45000000000005,297.0437994788111,290.45000000000005,300.1523866208015,292.3,300.1523866208015C294.15,300.1523866208015,294.15,303.22389266364604,296,303.22389266364604C297.85,303.22389266364604,297.85,306.25888753117374,299.70000000000005,306.25888753117374C301.55,306.25888753117374,301.55,309.25793426843154,303.4,309.25793426843154C305.25,309.25793426843154,305.25,312.2215887864095,307.09999999999997,312.2215887864095C308.95,312.2215887864095,308.95,315.15039965007907,310.8,315.15039965007907C312.65,315.15039965007907,312.65,318.044907905126,314.5,318.044907905126C316.35,318.044907905126,316.35,320.90564693923596,318.2,320.90564693923596C320.04999999999995,320.90564693923596,320.04999999999995,323.7331423742164,321.9,323.7331423742164C323.75,323.7331423742164,323.75,326.52791198561886,325.6,326.52791198561886C327.45000000000005,326.52791198561886,327.45000000000005,329.2904656468609,329.3,329.2904656468609C331.15,329.2904656468609,331.15,332.02130529515733,333,332.02130529515733C334.85,332.02130529515733,334.85,334.72092491683554,336.7,334.72092491683554C338.55,334.72092491683554,338.55,337.3898105498582,340.40000000000003,337.3898105498582C342.25,337.3898105498582,342.25,340.02844030159457,344.1,340.02844030159457C345.95,340.02844030159457,345.95,342.63728438007536,347.79999999999995,342.63728438007536C349.65,342.63728438007536,349.65,345.2168051371457,351.5,345.2168051371457C353.35,345.2168051371457,353.35,347.76745712208844,355.2,347.76745712208844C357.04999999999995,347.76745712208844,357.04999999999995,350.2896871444315,358.9,350.2896871444315C360.75,350.2896871444315,360.75,352.78393434478227,362.59999999999997,352.78393434478227C364.45,352.78393434478227,364.45,355.2506302726479,366.3,355.2506302726479C368.15,355.2506302726479,368.15,357.6901989703042,370,357.6901989703042C371.85,357.6901989703042,371.85,360.1030570618704,373.7,360.1030570618704C375.55,360.1030570618704,375.55,362.4896138468288,377.40000000000003,362.4896138468288C379.25,362.4896138468288,379.25,364.8502713973111,381.1,364.8502713973111C382.95000000000005,364.8502713973111,382.95000000000005,367.1854246585347,384.8,367.1854246585347C386.65,367.1854246585347,386.65,369.4954615518398,388.5,369.4954615518398C390.35,369.4954615518398,390.35,371.7807630798326,392.20000000000005,371.7807630798326C394.05000000000007,371.7807630798326,394.05000000000007,374.0417034331921,395.90000000000003,374.0417034331921C397.75,374.0417034331921,397.75,376.27865009873904,399.6,376.27865009873904C401.45000000000005,376.27865009873904,401.45000000000005,378.491963968417,403.3,378.491963968417C405.15000000000003,378.491963968417,405.15000000000003,380.68199944886163,407.00000000000006,380.68199944886163C408.85,380.68199944886163,408.85,382.8491045712766,410.70000000000005,382.8491045712766C412.55000000000007,382.8491045712766,412.55000000000007,384.9936211013626,414.40000000000003,384.9936211013626C416.25,384.9936211013626,416.25,387.1158846490717,418.09999999999997,387.1158846490717C419.94999999999993,387.1158846490717,419.94999999999993,389.2162247779889,421.79999999999995,389.2162247779889C423.65,389.2162247779889,423.65,391.2949651141615,425.49999999999994,391.2949651141615C427.34999999999997,391.2949651141615,427.34999999999997,393.35242345421966,429.2,393.35242345421966C431.04999999999995,393.35242345421966,431.04999999999995,395.3889118726485,432.9,395.3889118726485C434.75,395.3889118726485,434.75,397.40473682809323,436.59999999999997,397.40473682809323C438.44999999999993,397.40473682809323,438.44999999999993,399.40019926858565,440.29999999999995,399.40019926858565C442.15,399.40019926858565,442.15,401.37559473560566,444,401.37559473560566C445.85,401.37559473560566,445.85,403.3312134668917,447.7,403.3312134668917C449.54999999999995,403.3312134668917,449.54999999999995,405.2673404979355,451.4,405.2673404979355C453.25,405.2673404979355,453.25,407.18425576209995,455.09999999999997,407.18425576209995C456.95,407.18425576209995,456.95,409.0822341893118,458.8,409.0822341893118C460.65,409.0822341893118,460.65,410.9615458032868,462.5,410.9615458032868C464.35,410.9615458032868,464.35,412.8224558172554,466.2,412.8224558172554C468.05,412.8224558172554,468.05,414.66522472815853,469.90000000000003,414.66522472815853C471.75,414.66522472815853,471.75,416.49010840929685,473.6,416.49010840929685C475.45000000000005,416.49010840929685,475.45000000000005,418.2973582014129,477.3,418.2973582014129C479.15,418.2973582014129,479.15,420.08722100220007,481,420.08722100220007C482.85,420.08722100220007,482.85,421.859939354228,484.70000000000005,421.859939354228C486.55000000000007,421.859939354228,486.55000000000007,423.6157515312854,488.40000000000003,423.6157515312854C490.25,423.6157515312854,490.25,425.3548916231381,492.1,425.3548916231381C493.95000000000005,425.3548916231381,493.95000000000005,427.0775896187086,495.8,427.0775896187086C497.65000000000003,427.0775896187086,497.65000000000003,428.78407148768395,499.50000000000006,428.78407148768395C501.35,428.78407148768395,501.35,430.47455926056006,503.20000000000005,430.47455926056006C505.05000000000007,430.47455926056006,505.05000000000007,432.1492711071345,506.90000000000003,432.1492711071345C508.75,432.1492711071345,508.75,433.8084214134623,510.59999999999997,433.8084214134623C512.4499999999999,433.8084214134623,512.4499999999999,435.4522208572883,514.3,435.4522208572883C516.15,435.4522208572883,516.15,437.08087648197386,518,437.08087648197386C519.8499999999999,437.08087648197386,519.8499999999999,438.6945917689348,521.6999999999999,438.6945917689348C523.55,438.6945917689348,523.55,440.2935667086111,525.4,440.2935667086111C527.25,440.2935667086111,527.25,441.87799786998653,529.1,441.87799786998653C530.95,441.87799786998653,530.95,443.44807846868025,532.8,443.44807846868025C534.65,443.44807846868025,534.65,445.0039984336317,536.5,445.0039984336317C538.3499999999999,445.0039984336317,538.3499999999999,446.5459444723998,540.1999999999999,446.5459444723998C542.05,446.5459444723998,542.05,448.07410013510093,543.9,448.07410013510093C545.75,448.07410013510093,545.75,449.58864587700594,547.6,449.58864587700594C549.45,449.58864587700594,549.45,451.08975911982174,551.3,451.08975911982174C553.15,451.08975911982174,553.15,452.5776143116791,555,452.5776143116791C556.85,452.5776143116791,556.85,454.05238298585147,558.7,454.05238298585147C560.55,454.05238298585147,560.55,455.5142338182266,562.4,455.5142338182266C564.25,455.5142338182266,564.25,456.9633326835568,566.1,456.9633326835568C567.95,456.9633326835568,567.95,458.39984271050844,569.8000000000001,458.39984271050844C571.6500000000001,458.39984271050844,571.6500000000001,459.8239243355381,573.5,459.8239243355381C575.35,459.8239243355381,575.35,461.2357353556137,577.2,461.2357353556137C579.05,461.2357353556137,579.05,462.635430979808,580.9,462.635430979808C582.75,462.635430979808,582.75,464.0231638797858,584.6,464.0231638797858C586.45,464.0231638797858,586.45,465.3990842392064,588.3000000000001,465.3990842392064C590.1500000000001,465.3990842392064,590.1500000000001,466.76333980206607,592,466.76333980206607C593.85,466.76333980206607,593.85,468.1160759200017,595.7,468.1160759200017C597.5500000000001,468.1160759200017,597.5500000000001,469.4574355985761,599.4000000000001,469.4574355985761C601.25,469.4574355985761,601.25,470.7875595425705,603.0999999999999,470.7875595425705C604.9499999999999,470.7875595425705,604.9499999999999,472.10658620030046,606.8,472.10658620030046C608.65,472.10658620030046,608.65,473.4146518069814,610.5,473.4146518069814C612.3499999999999,473.4146518069814,612.3499999999999,474.71189042716014,614.1999999999999,474.71189042716014C616.05,474.71189042716014,616.05,475.9984339962357,617.9,475.9984339962357C619.75,475.9984339962357,619.75,477.2744123610878,621.6,477.2744123610878C623.45,477.2744123610878,623.45,478.53995331983367,625.3,478.53995331983367C627.15,478.53995331983367,627.15,479.795182660732,629,479.795182660732C630.8499999999999,479.795182660732,630.8499999999999,481.04022420025245,632.6999999999999,481.04022420025245C634.55,481.04022420025245,634.55,482.2751998203312,636.4,482.2751998203312C638.25,482.2751998203312,638.25,483.5002295048282,640.1,483.5002295048282C641.95,483.5002295048282,641.95,484.7154313752062,643.8,484.7154313752062C645.65,484.7154313752062,645.65,485.92092172544824,647.5,485.92092172544824C649.35,485.92092172544824,649.35,487.11681505623005,651.2,487.11681505623005C653.05,487.11681505623005,653.05,488.3032241083657,654.9,488.3032241083657C656.75,488.3032241083657,656.75,489.4802598955419,658.6,489.4802598955419C660.45,489.4802598955419,660.45,490.6480317363569,662.3000000000001,490.6480317363569C664.1500000000001,490.6480317363569,664.1500000000001,491.80664728568155,666,491.80664728568155C667.85,491.80664728568155,667.85,492.9562125653546,669.7,492.9562125653546C671.55,492.9562125653546,671.55,494.09683199423125,673.4,494.09683199423125C675.25,494.09683199423125,675.25,495.228608417597,677.1,495.228608417597C678.95,495.228608417597,678.95,496.35164313596187,680.8000000000001,496.35164313596187C682.6500000000001,496.35164313596187,682.6500000000001,497.46603593325017,684.5,497.46603593325017C686.35,497.46603593325017,686.35,498.5718851043981,688.2,498.5718851043981C690.0500000000001,498.5718851043981,690.0500000000001,499.66928748237325,691.9000000000001,499.66928748237325C693.75,499.66928748237325,693.75,500.7583384646302,695.5999999999999,500.7583384646302C697.4499999999999,500.7583384646302,697.4499999999999,501.83913203901284,699.3,501.83913203901284C701.15,501.83913203901284,701.15,502.911760809119,703,502.911760809119C704.8499999999999,502.911760809119,704.8499999999999,503.97631601913673,706.6999999999999,503.97631601913673C708.55,503.97631601913673,708.55,505.0328875781662,710.4,505.0328875781662C712.25,505.0328875781662,712.25,506.0815640840379,714.1,506.0815640840379C715.95,506.0815640840379,715.95,507.12243284663964,717.8,507.12243284663964C719.65,507.12243284663964,719.65,508.1555799107625,721.5,508.1555799107625C723.3499999999999,508.1555799107625,723.3499999999999,509.1810900784773,725.1999999999999,509.1810900784773C727.05,509.1810900784773,727.05,510.1990469310514,728.9,510.1990469310514C730.75,510.1990469310514,730.75,511.209532850418,732.6,511.209532850418C734.45,511.209532850418,734.45,512.212629040206,736.3,512.212629040206C738.15,512.212629040206,738.15,513.2084155463424,740,513.2084155463424" stroke="#1f77b4" fill="none"/><text font-family="sans-serif" font-size="10" class="labels" x="51.800000000000004" y="32.80895042385403" dx="0" dy="-4" text-anchor="middle"/></g></g></g><text y="4" x="4" style="font-family: Arial, sans-serif; font-size: 12px; fill: black; font-weight: bold; dominant-baseline: hanging;"/></g><g id="grid"><rect x="0" y="0" width="805" height="600" fill="none" stroke="#ccc"/></g></g></svg>